{
.appVersion = "3133";
.formatVersion = 3;
customParameters = (
{
name = vendorID;
value = MCKL;
},
{
name = panose;
value = (
2,
10,
5,
3,
6,
5,
4,
6,
3,
3
);
},
{
name = unicodeRanges;
value = (
0,
1,
2,
60
);
},
{
name = codePageRanges;
value = (
"1252",
"1250",
"1254",
"1257",
"bit 29"
);
},
{
name = fsType;
value = (
);
},
{
name = blueScale;
value = 0.037;
},
{
name = glyphOrder;
value = (
.notdef,
.null,
CR,
space,
exclam,
quotedbl,
numbersign,
dollar,
percent,
ampersand,
quoteright,
parenleft,
parenright,
asterisk,
plus,
comma,
hyphen,
period,
slash,
zero,
one,
two,
three,
four,
five,
six,
seven,
eight,
nine,
colon,
semicolon,
equal,
question,
at,
A,
B,
C,
D,
E,
F,
G,
H,
I,
J,
K,
L,
M,
N,
O,
P,
Q,
R,
S,
T,
U,
V,
W,
X,
Y,
Z,
bracketleft,
backslash,
bracketright,
asciicircum,
underscore,
quoteleft,
a,
b,
c,
d,
e,
f,
g,
h,
i,
j,
k,
l,
m,
n,
o,
p,
q,
r,
s,
t,
u,
v,
w,
x,
y,
z,
braceleft,
bar,
braceright,
asciitilde,
exclamdown,
cent,
sterling,
fraction,
yen,
section,
quotesingle,
quotedblleft,
guillemotleft,
guilsinglleft,
guilsinglright,
fi,
fl,
endash,
dagger,
daggerdbl,
periodcentered,
paragraph,
bullet,
quotesinglbase,
quotedblbase,
quotedblright,
guillemotright,
ellipsis,
questiondown,
grave,
acute,
circumflex,
tilde,
macron,
breve,
dotaccent,
dieresis,
ring,
cedilla,
hungarumlaut,
ogonek,
caron,
emdash,
AE,
Lslash,
Oslash,
OE,
ae,
dotlessi,
lslash,
oslash,
oe,
germandbls,
uni00B9,
trademark,
Eth,
onehalf,
Thorn,
onequarter,
degree,
thorn,
threequarters,
uni00B2,
registered,
minus,
eth,
multiply,
uni00B3,
copyright,
Aacute,
Acircumflex,
Adieresis,
Agrave,
Aring,
Atilde,
Ccedilla,
Eacute,
Ecircumflex,
Edieresis,
Egrave,
Iacute,
Icircumflex,
Idieresis,
Igrave,
Ntilde,
Oacute,
Ocircumflex,
Odieresis,
Ograve,
Otilde,
Scaron,
Uacute,
Ucircumflex,
Udieresis,
Ugrave,
Yacute,
Ydieresis,
Zcaron,
aacute,
acircumflex,
adieresis,
agrave,
aring,
atilde,
ccedilla,
eacute,
ecircumflex,
edieresis,
egrave,
iacute,
icircumflex,
idieresis,
igrave,
ntilde,
oacute,

glyphs = (
{
glyphname = .notdef;
layers = (
{
hints = (
{
horizontal = 1;
place = (-100, 850);
place = (-100, 850);
type = Stem;
},
{
place = (60, 394);
place = (60, 394);
type = Stem;
}
);
layerId = m01;
shapes = (
{
closed = 1;
nodes = (
(60,750,l),
(60,-100,l),
(454,-100,l),
(454,750,l)
);
}
);
width = 514;
}
);
note = ".notdef";
},
{
glyphname = exclam;
kernLeft = exclam;
layers = (
{
hints = (
{
horizontal = 1;
place = (0, 113);
place = (0, 113);
type = Stem;
},
{
place = (67, 106);
place = (67, 106);
type = Stem;
},
{
place = (64, 112);
place = (64, 112);
type = Stem;
}
);
layerId = m01;
shapes = (
{
closed = 1;
nodes = (
(119,187,l),
(121,187,l),
(173,641,ls),
(178,682,o),
(152,712,o),
(120,712,cs),
(88,712,o),
(62,682,o),
(67,641,cs)
);
},
{
closed = 1;
nodes = (
(64,0,l),
(176,0,l),
(176,113,l),
(64,113,l)
);
}
);
width = 240;
}
);
note = exclam;
unicode = 33;
},
{
glyphname = quotedbl;
kernLeft = quotedbl;
kernRight = quotedbl;
layers = (
{
hints = (
{
horizontal = 1;
place = (452, 259);
place = (452, 259);
type = Stem;
},
{
place = (65, 110);
place = (65, 110);
type = Stem;
},
{
place = (225, 110);
place = (225, 110);
type = Stem;
}
);
layerId = m01;
shapes = (
{
closed = 1;
nodes = (
(120,452,l),
(171,621,ls),
(174,629,o),
(175,638,o),
(175,648,cs),
(175,684,o),
(153,711,o),
(121,711,cs),
(88,711,o),
(65,684,o),
(65,648,cs),
(65,638,o),
(66,629,o),
(69,621,cs)
);
},
{
closed = 1;
nodes = (
(225,638,o),
(226,629,o),
(229,621,cs),
(280,452,l),
(331,621,ls),
(334,629,o),
(335,638,o),
(335,648,cs),
(335,684,o),
(313,711,o),
(281,711,cs),
(248,711,o),
(225,684,o),
(225,648,cs)
);
}
);
width = 400;
}
);
note = quotedbl;
unicode = 34;
},
{
glyphname = numbersign;
layers = (
{
hints = (
{
horizontal = 1;
place = (217, 31);
place = (217, 31);
type = Stem;
},
{
horizontal = 1;
place = (453, 31);
place = (453, 31);
type = Stem;
},
{
place = (22, 700);
place = (22, 700);
type = Stem;
}
);
layerId = m01;
shapes = (
{
closed = 1;
nodes = (
(31,248,l),
(22,217,l),
(212,217,l),
(150,0,l),
(185,0,l),
(247,217,l),
(421,217,l),
(359,0,l),
(394,0,l),
(456,217,l),
(646,217,l),
(655,248,l),
(465,248,l),
(523,453,l),
(713,453,l),
(722,484,l),
(532,484,l),
(594,701,l),
(559,701,l),
(497,484,l),
(323,484,l),
(385,701,l),
(350,701,l),
(288,484,l),
(98,484,l),
(89,453,l),
(279,453,l),
(221,248,l)
);
},
{
closed = 1;
nodes = (
(256,248,l),
(314,453,l),
(488,453,l),
(430,248,l)
);
}
);
width = 744;
}
);
note = numbersign;
unicode = 35;
},
{
glyphname = dollar;
layers = (
{
hints = (
{
horizontal = 1;
place = (8, 43);
place = (8, 43);
type = Stem;
},
{
horizontal = 1;
place = (116, 80);
place = (116, 80);
type = Stem;
},
{
horizontal = 1;
place = (509, 79);
place = (509, 79);
type = Stem;
},
{
horizontal = 1;
place = (649, 43);
place = (649, 43);
type = Stem;
},
{
place = (32, 110);
place = (32, 110);
type = Stem;
},
{
place = (225, 36);
place = (225, 36);
type = Stem;
},
{
place = (373, 86);
place = (373, 86);
type = Stem;
},
{
place = (32, 82);
place = (32, 82);
type = Stem;
},
{
place = (227, 36);
place = (227, 36);
type = Stem;
},
{
horizontal = 1;
place = (647, 44);
place = (647, 44);
type = Stem;
},
{
place = (344, 87);
place = (344, 87);
type = Stem;
},
{
place = (321, 110);
place = (321, 110);
type = Stem;
},
{
place = (32, 88);
place = (32, 88);
type = Stem;
}
);
layerId = m01;
shapes = (
{
closed = 1;
nodes = (
(225,-68,l),
(261,-68,l),
(261,9,l),
(381,20,o),
(459,97,o),
(459,208,cs),
(459,280,o),
(421,334,o),
(345,370,cs),
(199,438,ls),
(142,464,o),
(114,499,o),
(114,542,cs),
(114,603,o),
(159,646,o),
(227,649,c),
(227,445,l),
(263,430,l),
(263,647,l),
(314,642,o),
(343,621,o),
(344,588,c),
(322,588,l),
(321,585,o),
(321,580,o),
(321,573,cs),
(321,534,o),
(344,509,o),
(379,509,cs),
(408,509,o),
(431,534,o),
(431,565,cs),
(431,625,o),
(363,683,o),
(263,691,c),
(263,750,l),
(227,750,l),
(227,692,l),
(111,687,o),
(32,615,o),
(32,511,cs),
(32,441,o),
(70,388,o),
(146,353,cs),
(292,285,ls),
(346,260,o),
(373,222,o),
(373,172,cs),
(373,107,o),
(329,60,o),
(261,52,c),
(261,279,l),
(225,296,l),
(225,51,l),
(160,54,o),
(123,77,o),
(120,116,c),
(142,116,l),
(147,164,o),
(125,196,o),
(85,196,cs),
(56,196,o),
(32,171,o),
(32,140,cs),
(32,72,o),
(113,12,o),
(225,8,c)
);
}
);
width = 495;
}
);
note = dollar;
unicode = 36;
},
{
glyphname = percent;
layers = (
{
hints = (
{
horizontal = 1;
place = (-6, 27);
place = (-6, 27);
type = Stem;
},
{
horizontal = 1;
place = (355, 26);
place = (355, 26);
type = Stem;
},
{
horizontal = 1;
place = (680, 26);
place = (680, 26);
type = Stem;
},
{
place = (37, 77);
place = (37, 77);
type = Stem;
},
{
place = (255, 77);
place = (255, 77);
type = Stem;
},
{
place = (448, 77);
place = (448, 77);
type = Stem;
},
{
place = (666, 77);
place = (666, 77);
type = Stem;
},
{
horizontal = 1;
place = (319, 27);
place = (319, 27);
type = Stem;
}
);
layerId = m01;
shapes = (
{
closed = 1;
nodes = (
(105,706,o),
(37,630,o),
(37,511,cs),
(37,398,o),
(102,319,o),
(187,319,cs),
(269,319,o),
(332,402,o),
(332,515,cs),
(332,634,o),
(265,706,o),
(183,706,cs)
);
},
{
closed = 1;
nodes = (
(114,573,o),
(120,612,o),
(133,639,cs),
(145,666,o),
(160,680,o),
(179,680,cs),
(202,680,o),
(221,664,o),
(235,633,cs),
(248,602,o),
(255,558,o),
(255,503,cs),
(255,453,o),
(249,414,o),
(237,387,cs),
(224,360,o),
(208,346,o),
(189,346,cs),
(166,346,o),
(147,362,o),
(134,393,cs),
(121,424,o),
(114,468,o),
(114,523,cs)
);
},
{
closed = 1;
nodes = (
(143,0,l),
(189,0,l),
(639,700,l),
(593,700,l)
);
},
{
closed = 1;
nodes = (
(448,73,o),
(513,-6,o),
(598,-6,cs),
(680,-6,o),
(743,77,o),
(743,190,cs),
(743,309,o),
(676,381,o),
(594,381,cs),
(516,381,o),
(448,305,o),
(448,186,cs)
);
},
{
closed = 1;
nodes = (
(525,248,o),
(531,287,o),
(544,314,cs),
(556,341,o),
(571,355,o),
(590,355,cs),
(613,355,o),
(632,339,o),
(646,308,cs),
(659,277,o),
(666,233,o),
(666,178,cs),
(666,128,o),
(660,89,o),
(648,62,cs),
(635,35,o),
(619,21,o),
(600,21,cs),
(577,21,o),
(558,37,o),
(545,68,cs),
(532,99,o),
(525,143,o),
(525,198,cs)
);
}
);
width = 780;
}
);
note = percent;
unicode = 37;
},
{
glyphname = ampersand;
kernLeft = ampersand;
kernRight = ampersand;
layers = (
{
hints = (
{
horizontal = 1;
place = (-9, 46);
place = (-9, 46);
type = Stem;
},
{
horizontal = 1;
place = (390.5, 27.5);
place = (390.5, 27.5);
type = Stem;
},
{
horizontal = 1;
place = (675, 33);
place = (675, 33);
type = Stem;
},
{
place = (17, 98);
place = (17, 98);
type = Stem;
},
{
place = (380, 82);
place = (380, 82);
type = Stem;
},
{
horizontal = 1;
place = (-5, 60);
place = (-5, 60);
type = Stem;
},
{
horizontal = 1;
place = (393, 25);
place = (393, 25);
type = Stem;
},
{
place = (493, 195);
place = (493, 195);
type = Stem;
},
{
place = (132, 86);
place = (132, 86);
type = Stem;
},
{
place = (554, 134);
place = (554, 134);
type = Stem;
}
);
layerId = m01;
shapes = (
{
closed = 1;
nodes = (
(470,78,l),
(448,55,l),
(497,10,o),
(535,-5,o),
(586,-5,cs),
(641,-5,o),
(696,24,o),
(731,65,c),
(716,58,o),
(686,55,o),
(663,55,cs),
(606,55,o),
(562,80,o),
(499,147,c),
(520,176,o),
(539,207,o),
(556,241,cs),
(601,326,ls),
(621,363,o),
(648,384,o),
(688,393,c),
(688,418,l),
(493,418,l),
(493,392,l),
(516,389,ls),
(541,386,o),
(554,373,o),
(554,350,cs),
(554,337,o),
(550,322,o),
(542,304,cs),
(523,263,ls),
(506,226,o),
(491,196,o),
(476,173,c),
(419,237,o),
(361,312,o),
(300,398,c),
(273,383,l),
(261,400,l),
(341,444,ls),
(429,492,o),
(462,532,o),
(462,588,cs),
(462,652,o),
(403,708,o),
(320,708,cs),
(240,708,o),
(182,675,o),
(154,624,cs),
(139,599,o),
(132,572,o),
(132,543,cs),
(132,498,o),
(148,455,o),
(191,387,c),
(96,335,o),
(50,294,o),
(31,252,cs),
(22,231,o),
(17,206,o),
(17,178,cs),
(17,73,o),
(103,-9,o),
(235,-9,cs),
(323,-9,o),
(391,24,o),
(455,92,c)
);
},
{
closed = 1;
nodes = (
(115,275,o),
(144,330,o),
(203,369,c),
(255,290,o),
(355,151,o),
(410,92,c),
(371,57,o),
(332,37,o),
(268,37,cs),
(176,37,o),
(115,102,o),
(115,202,cs)
);
},
{
closed = 1;
nodes = (
(218,632,o),
(253,675,o),
(302,675,cs),
(347,675,o),
(380,635,o),
(380,582,cs),
(380,518,o),
(343,466,o),
(274,434,c),
(233,494,o),
(219,530,o),
(218,573,cs)
);
}
);
width = 725;
}
);
note = ampersand;
unicode = 38;
},
{
glyphname = quoteright;
kernLeft = quotedbl;
kernRight = quotedbl;
layers = (
{
hints = (
{
horizontal = 1;
place = (623, 88);
place = (623, 88);
type = Stem;
},
{
place = (141, 41);
place = (141, 41);
type = Stem;
},
{
place = (53, 72);
place = (53, 72);
type = Stem;
},
{
horizontal = 1;
place = (595, 116);
place = (595, 116);
type = Stem;
}
);
layerId = m01;
shapes = (
{
closed = 1;
nodes = (
(41,455,l),
(126,484,o),
(182,552,o),
(182,627,cs),
(182,678,o),
(155,711,o),
(114,711,cs),
(79,711,o),
(53,686,o),
(53,651,cs),
(53,620,o),
(77,595,o),
(106,595,cs),
(114,595,o),
(121,596,o),
(125,599,c),
(125,623,l),
(141,623,l),
(141,604,ls),
(141,548,o),
(101,490,o),
(37,461,c)
);
}
);
width = 238;
}
);
note = quoteright;
unicode = 8217;
},
{
glyphname = parenleft;
layers = (
{
hints = (
{
horizontal = 1;
place = (-226, 970);
place = (-226, 970);
type = Stem;
},
{
place = (62, 109);
place = (62, 109);
type = Stem;
}
);
layerId = m01;
shapes = (
{
closed = 1;
nodes = (
(62,98,o),
(124,-45,o),
(228,-136,cs),
(280,-181,o),
(339,-211,o),
(405,-226,c),
(405,-224,l),
(254,-136,o),
(171,34,o),
(171,259,cs),
(171,484,o),
(254,654,o),
(405,742,c),
(405,744,l),
(273,715,o),
(165,620,o),
(106,483,cs),
(77,414,o),
(62,340,o),
(62,259,cs)
);
}
);
width = 416;
}
);
note = parenleft;
unicode = 40;
},
{
glyphname = parenright;
layers = (
{
hints = (
{
horizontal = 1;
place = (-226, 970);
place = (-226, 970);
type = Stem;
},
{
place = (245, 109);
place = (245, 109);
type = Stem;
}
);
layerId = m01;
shapes = (
{
closed = 1;
nodes = (
(354,420,o),
(292,563,o),
(188,654,cs),
(136,699,o),
(77,729,o),
(11,744,c),
(11,742,l),
(162,654,o),
(245,484,o),
(245,259,cs),
(245,34,o),
(162,-136,o),
(11,-224,c),
(11,-226,l),
(143,-197,o),
(251,-102,o),
(310,35,cs),
(339,104,o),
(354,178,o),
(354,259,cs)
);
}
);
width = 416;
}
);
note = parenright;
unicode = 41;
},
{
glyphname = asterisk;
kernLeft = asterisk;
kernRight = asterisk;
layers = (
{
hints = (
{
horizontal = 1;
place = (303, 163);
place = (303, 163);
type = Stem;
},
{
horizontal = 1;
place = (536, 163);
place = (536, 163);
type = Stem;
},
{
place = (189, 40);
place = (189, 40);
type = Stem;
}
);
layerId = m01;
shapes = (
{
closed = 1;
nodes = (
(189,536,l),
(48,617,l),
(28,583,l),
(169,501,l)
);
},
{
closed = 1;
nodes = (
(28,419,l),
(48,385,l),
(189,466,l),
(169,501,l)
);
},
{
closed = 1;
nodes = (
(189,303,l),
(229,303,l),
(229,466,l),
(189,466,l)
);
},
{
closed = 1;
nodes = (
(189,536,l),
(229,536,l),
(229,699,l),
(189,699,l)
);
},
{
closed = 1;
nodes = (
(229,466,l),
(370,385,l),
(390,419,l),
(249,501,l)
);
},
{
closed = 1;
nodes = (
(229,536,l),
(249,501,l),
(390,583,l),
(370,617,l)
);
}
);
width = 418;
}
);
note = asterisk;
unicode = 42;
},
{
glyphname = plus;
kernLeft = plus;
kernRight = plus;
layers = (
{
hints = (
{
horizontal = 1;
place = (295, 40);
place = (295, 40);
type = Stem;
},
{
place = (239, 40);
place = (239, 40);
type = Stem;
}
);
layerId = m01;
shapes = (
{
closed = 1;
nodes = (
(239,335,l),
(35,335,l),
(35,295,l),
(239,295,l),
(239,91,l),
(279,91,l),
(279,295,l),
(483,295,l),
(483,335,l),
(279,335,l),
(279,539,l),
(239,539,l)
);
}
);
width = 518;
}
);
note = plus;
unicode = 43;
},
{
glyphname = comma;
kernLeft = comma;
kernRight = comma;
layers = (
{
hints = (
{
horizontal = 1;
place = (27, 88);
place = (27, 88);
type = Stem;
},
{
place = (141, 41);
place = (141, 41);
type = Stem;
},
{
place = (53, 72);
place = (53, 72);
type = Stem;
},
{
horizontal = 1;
place = (-1, 116);
place = (-1, 116);
type = Stem;
}
);
layerId = m01;
shapes = (
{
closed = 1;
nodes = (
(41,-141,l),
(126,-112,o),
(182,-44,o),
(182,31,cs),
(182,82,o),
(155,115,o),
(114,115,cs),
(79,115,o),
(53,90,o),
(53,55,cs),
(53,24,o),
(77,-1,o),
(106,-1,cs),
(114,-1,o),
(121,0,o),
(125,3,c),
(125,27,l),
(141,27,l),
(141,8,ls),
(141,-48,o),
(101,-106,o),
(37,-135,c)
);
}
);
width = 238;
}
);
note = comma;
unicode = 44;
},
{
glyphname = hyphen;
kernLeft = plus;
kernRight = plus;
layers = (
{
hints = (
{
horizontal = 1;
place = (295, 40);
place = (295, 40);
type = Stem;
},
{
place = (35, 348);
place = (35, 348);
type = Stem;
}
);
layerId = m01;
shapes = (
{
closed = 1;
nodes = (
(383,335,l),
(35,335,l),
(35,295,l),
(383,295,l)
);
}
);
width = 418;
}
);
note = hyphen;
unicode = 45;
},
{
glyphname = period;
kernLeft = comma;
kernRight = comma;
layers = (
{
hints = (
{
horizontal = 1;
place = (0, 113);
place = (0, 113);
type = Stem;
},
{
place = (64, 112);
place = (64, 112);
type = Stem;
}
);
layerId = m01;
shapes = (
{
closed = 1;
nodes = (
(176,113,l),
(64,113,l),
(64,0,l),
(176,0,l)
);
}
);
width = 240;
}
);
note = period;
unicode = 46;
},
{
glyphname = slash;
kernLeft = slash;
kernRight = asterisk;
layers = (
{
hints = (
{
horizontal = 1;
place = (-231, 931);
place = (-231, 931);
type = Stem;
},
{
place = (-82, 435);
place = (-82, 435);
type = Stem;
}
);
layerId = m01;
shapes = (
{
closed = 1;
nodes = (
(-46,-231,l),
(353,700,l),
(317,700,l),
(-82,-231,l)
);
}
);
width = 370;
}
);
note = slash;
unicode = 47;
},
{
glyphname = zero;
kernLeft = zero;
kernRight = zero;
layers = (
{
hints = (
{
horizontal = 1;
place = (-11, 42);
place = (-11, 42);
type = Stem;
},
{
horizontal = 1;
place = (669, 42);
place = (669, 42);
type = Stem;
},
{
place = (49, 100);
place = (49, 100);
type = Stem;
},
{
place = (444, 100);
place = (444, 100);
type = Stem;
}
);
layerId = m01;
shapes = (
{
closed = 1;
nodes = (
(202,711,o),
(124,645,o),
(81,534,cs),
(60,479,o),
(49,416,o),
(49,347,cs),
(49,210,o),
(96,95,o),
(173,35,cs),
(211,4,o),
(254,-11,o),
(302,-11,cs),
(391,-11,o),
(469,56,o),
(512,167,cs),
(533,222,o),
(544,284,o),
(544,353,cs),
(544,490,o),
(497,605,o),
(421,666,cs),
(382,696,o),
(339,711,o),
(291,711,cs)
);
},
{
closed = 1;
nodes = (
(149,553,o),
(203,669,o),
(290,669,cs),
(382,669,o),
(444,539,o),
(444,335,cs),
(444,148,o),
(389,31,o),
(301,31,cs),
(240,31,o),
(193,88,o),
(168,189,cs),
(155,239,o),
(149,298,o),
(149,365,cs)
);
}
);
width = 593;
}
);
note = zero;
unicode = 48;
},
{
glyphname = one;
kernLeft = one;
kernRight = one;
layers = (
{
hints = (
{
horizontal = 1;
place = (0, 27);
place = (0, 27);
type = Stem;
},
{
place = (139, 92);
place = (139, 92);
type = Stem;
}
);
layerId = m01;
shapes = (
{
closed = 1;
nodes = (
(231,710,l),
(41,668,l),
(81,651,ls),
(129,631,o),
(139,620,o),
(139,589,cs),
(139,95,ls),
(139,54,o),
(114,33,o),
(59,28,cs),
(39,26,l),
(39,0,l),
(332,0,l),
(332,26,l),
(311,28,ls),
(256,33,o),
(231,54,o),
(231,95,cs)
);
}
);
width = 370;
}
);
note = one;
unicode = 49;
},
{
glyphname = two;
kernLeft = two;
kernRight = two;
layers = (
{
hints = (
{
horizontal = 1;
place = (0, 47);
place = (0, 47);
type = Stem;
},
{
horizontal = 1;
place = (488, 72);
place = (488, 72);
type = Stem;
},
{
horizontal = 1;
place = (669, 41);
place = (669, 41);
type = Stem;
},
{
place = (29, 81);
place = (29, 81);
type = Stem;
},
{
place = (346, 104);
place = (346, 104);
type = Stem;
},
{
horizontal = 1;
place = (0, 71);
place = (0, 71);
type = Stem;
}
);
layerId = m01;
shapes = (
{
closed = 1;
nodes = (
(120,47,l),
(97,47,l),
(340,329,ls),
(419,418,o),
(450,483,o),
(450,539,cs),
(450,643,o),
(375,710,o),
(236,710,cs),
(119,710,o),
(29,634,o),
(29,545,cs),
(29,513,o),
(52,488,o),
(81,488,cs),
(112,488,o),
(132,512,o),
(132,548,cs),
(132,553,o),
(132,557,o),
(131,560,c),
(110,560,l),
(111,628,o),
(153,669,o),
(225,669,cs),
(300,669,o),
(346,614,o),
(346,523,cs),
(346,459,o),
(321,401,o),
(256,317,cs),
(15,0,l),
(444,0,l),
(475,174,l),
(443,174,l),
(425,134,ls),
(407,92,o),
(363,71,o),
(293,71,cs),
(141,71,l)
);
}
);
width = 504;
}
);
note = two;
unicode = 50;
},
{
glyphname = three;
kernLeft = three;
kernRight = three;
layers = (
{
hints = (
{
horizontal = 1;
place = (-11, 41);
place = (-11, 41);
type = Stem;
},
{
horizontal = 1;
place = (120, 77);
place = (120, 77);
type = Stem;
},
{
horizontal = 1;
place = (354, 65);
place = (354, 65);
type = Stem;
},
{
horizontal = 1;
place = (629, 71);
place = (629, 71);
type = Stem;
},
{
place = (36, 106);
place = (36, 106);
type = Stem;
},
{
place = (379, 100);
place = (379, 100);
type = Stem;
},
{
horizontal = 1;
place = (654, 46);
place = (654, 46);
type = Stem;
},
{
place = (36, 84);
place = (36, 84);
type = Stem;
}
);
layerId = m01;
shapes = (
{
closed = 1;
nodes = (
(479,343,o),
(384,423,o),
(259,419,c),
(482,700,l),
(73,700,l),
(45,537,l),
(77,537,l),
(87,565,ls),
(103,613,o),
(130,629,o),
(182,629,cs),
(345,629,l),
(365,654,l),
(388,654,l),
(144,347,l),
(167,352,o),
(190,354,o),
(211,354,cs),
(326,354,o),
(379,291,o),
(379,200,cs),
(379,97,o),
(321,30,o),
(232,30,cs),
(164,30,o),
(123,64,o),
(120,120,c),
(140,120,l),
(141,128,o),
(142,134,o),
(142,137,cs),
(142,173,o),
(120,197,o),
(88,197,cs),
(59,197,o),
(36,174,o),
(36,143,cs),
(36,55,o),
(127,-11,o),
(243,-11,cs),
(384,-11,o),
(479,91,o),
(479,218,cs)
);
}
);
width = 520;
}
);
note = three;
unicode = 51;
},
{
glyphname = four;
kernLeft = four;
kernRight = four;
layers = (
{
hints = (
{
horizontal = 1;
place = (0, 27);
place = (0, 27);
type = Stem;
},
{
horizontal = 1;
place = (214, 66);
place = (214, 66);
type = Stem;
},
{
place = (355, 91);
place = (355, 91);
type = Stem;
},
{
place = (355, 58);
place = (355, 58);
type = Stem;
},
{
place = (313, 116);
place = (313, 116);
type = Stem;
}
);
layerId = m01;
shapes = (
{
closed = 1;
nodes = (
(355,214,l),
(355,95,ls),
(355,52,o),
(342,32,o),
(299,28,cs),
(278,26,l),
(278,0,l),
(523,0,l),
(523,26,l),
(502,28,ls),
(459,32,o),
(446,51,o),
(446,95,cs),
(446,196,l),
(413,196,l),
(413,214,l),
(553,214,l),
(579,385,l),
(547,385,l),
(535,354,ls),
(520,315,o),
(490,291,o),
(446,283,c),
(446,469,l),
(355,416,l),
(355,280,l),
(123,280,l),
(184,349,o),
(246,421,o),
(309,495,cs),
(358,554,o),
(391,600,o),
(408,633,cs),
(424,666,o),
(431,695,o),
(429,719,c),
(313,698,l),
(316,634,o),
(295,573,o),
(228,478,cs),
(165,387,o),
(97,299,o),
(25,214,c)
);
}
);
width = 601;
}
);
note = four;
unicode = 52;
},
{
glyphname = five;
kernLeft = five;
kernRight = three;
layers = (
{
hints = (
{
horizontal = 1;
place = (-10, 41);
place = (-10, 41);
type = Stem;
},
{
horizontal = 1;
place = (364, 78);
place = (364, 78);
type = Stem;
},
{
horizontal = 1;
place = (654, 46);
place = (654, 46);
type = Stem;
},
{
place = (46, 104);
place = (46, 104);
type = Stem;
},
{
place = (388, 98);
place = (388, 98);
type = Stem;
},
{
horizontal = 1;
place = (121, 77);
place = (121, 77);
type = Stem;
},
{
horizontal = 1;
place = (624, 76);
place = (624, 76);
type = Stem;
},
{
place = (46, 82);
place = (46, 82);
type = Stem;
}
);
layerId = m01;
shapes = (
{
closed = 1;
nodes = (
(176,654,l),
(174,624,l),
(437,624,l),
(456,752,l),
(429,752,l),
(423,736,ls),
(415,712,o),
(390,700,o),
(348,700,cs),
(119,700,l),
(84,327,l),
(132,352,o),
(181,364,o),
(230,364,cs),
(322,364,o),
(388,304,o),
(388,204,cs),
(388,100,o),
(334,31,o),
(243,31,cs),
(174,31,o),
(131,64,o),
(128,121,c),
(149,121,l),
(150,125,o),
(150,131,o),
(150,138,cs),
(150,179,o),
(126,198,o),
(98,198,cs),
(69,198,o),
(46,172,o),
(46,140,cs),
(46,55,o),
(134,-10,o),
(241,-10,cs),
(384,-10,o),
(486,86,o),
(486,224,cs),
(486,354,o),
(394,442,o),
(251,442,cs),
(208,442,o),
(170,435,o),
(137,422,c),
(158,654,l)
);
}
);
width = 521;
}
);
note = five;
unicode = 53;
},
{
glyphname = six;
kernLeft = zero;
kernRight = three;
layers = (
{
hints = (
{
horizontal = 1;
place = (-10, 42);
place = (-10, 42);
type = Stem;
},
{
horizontal = 1;
place = (384, 43);
place = (384, 43);
type = Stem;
},
{
horizontal = 1;
place = (670, 41);
place = (670, 41);
type = Stem;
},
{
place = (47, 104);
place = (47, 104);
type = Stem;
},
{
place = (424, 98);
place = (424, 98);
type = Stem;
},
{
horizontal = 1;
place = (502, 77);
place = (502, 77);
type = Stem;
},
{
place = (47, 77);
place = (47, 77);
type = Stem;
},
{
place = (418, 83);
place = (418, 83);
type = Stem;
},
{
place = (395, 106);
place = (395, 106);
type = Stem;
}
);
layerId = m01;
shapes = (
{
closed = 1;
nodes = (
(522,345,o),
(436,427,o),
(315,427,cs),
(252,427,o),
(179,392,o),
(124,328,c),
(124,354,l),
(151,382,l),
(159,562,o),
(221,670,o),
(314,670,cs),
(377,670,o),
(417,635,o),
(418,579,c),
(397,579,l),
(396,570,o),
(395,563,o),
(395,560,cs),
(395,525,o),
(418,502,o),
(450,502,cs),
(479,502,o),
(501,526,o),
(501,557,cs),
(501,636,o),
(422,711,o),
(317,711,cs),
(213,711,o),
(128,641,o),
(82,525,cs),
(59,467,o),
(47,401,o),
(47,328,cs),
(51,124,o),
(162,-10,o),
(301,-10,cs),
(423,-10,o),
(522,94,o),
(522,227,cs)
);
},
{
closed = 1;
nodes = (
(179,358,o),
(236,384,o),
(292,384,cs),
(373,384,o),
(424,314,o),
(424,205,cs),
(424,100,o),
(378,32,o),
(306,32,cs),
(217,32,o),
(156,140,o),
(151,315,c)
);
}
);
width = 566;
}
);
note = six;
unicode = 54;
},
{
glyphname = seven;
kernLeft = seven;
kernRight = seven;
layers = (
{
hints = (
{
horizontal = 1;
place = (629, 71);
place = (629, 71);
type = Stem;
},
{
place = (109, 110);
place = (109, 110);
type = Stem;
},
{
horizontal = 1;
place = (654, 46);
place = (654, 46);
type = Stem;
}
);
layerId = m01;
shapes = (
{
closed = 1;
nodes = (
(226,-6,l),
(221,16,o),
(219,36,o),
(219,53,cs),
(219,106,o),
(235,171,o),
(274,260,cs),
(346,428,o),
(413,575,o),
(476,700,c),
(47,700,l),
(16,521,l),
(49,521,l),
(64,567,ls),
(79,611,o),
(129,629,o),
(218,629,cs),
(379,629,l),
(393,654,l),
(414,654,l),
(343,524,o),
(264,369,o),
(175,190,cs),
(128,98,o),
(109,44,o),
(109,-1,cs),
(109,-8,o),
(110,-19,o),
(113,-34,c)
);
}
);
width = 486;
}
);
note = seven;
unicode = 55;
},
{
glyphname = eight;
kernLeft = three;
kernRight = three;
layers = (
{
hints = (
{
horizontal = 1;
place = (-11, 42);
place = (-11, 42);
type = Stem;
},
{
horizontal = 1;
place = (676, 34);
place = (676, 34);
type = Stem;
},
{
place = (39, 90);
place = (39, 90);
type = Stem;
},
{
place = (387, 83);
place = (387, 83);
type = Stem;
},
{
place = (407, 97);
place = (407, 97);
type = Stem;
},
{
place = (72, 84);
place = (72, 84);
type = Stem;
}
);
layerId = m01;
shapes = (
{
closed = 1;
nodes = (
(405,-11,o),
(504,79,o),
(504,186,cs),
(504,262,o),
(464,326,o),
(356,378,c),
(324,366,l),
(305,376,l),
(337,389,ls),
(426,425,o),
(470,478,o),
(470,553,cs),
(470,642,o),
(391,710,o),
(274,710,cs),
(155,710,o),
(72,632,o),
(72,535,cs),
(72,468,o),
(108,414,o),
(180,375,c),
(211,388,l),
(229,378,l),
(198,364,ls),
(90,316,o),
(39,259,o),
(39,175,cs),
(39,69,o),
(137,-11,o),
(270,-11,cs)
);
},
{
closed = 1;
nodes = (
(129,262,o),
(165,319,o),
(229,344,c),
(294,310,ls),
(379,266,o),
(407,222,o),
(407,161,cs),
(407,86,o),
(354,31,o),
(270,31,cs),
(187,31,o),
(129,96,o),
(129,187,cs)
);
},
{
closed = 1;
nodes = (
(156,630,o),
(202,676,o),
(267,676,cs),
(335,676,o),
(387,622,o),
(387,546,cs),
(387,486,o),
(358,437,o),
(309,410,c),
(251,438,ls),
(188,469,o),
(156,511,o),
(156,565,cs)
);
}
);
width = 543;
}
);
note = eight;
unicode = 56;
},
{
glyphname = nine;
kernLeft = three;
kernRight = zero;
layers = (
{
hints = (
{
horizontal = 1;
place = (-10, 41);
place = (-10, 41);
type = Stem;
},
{
horizontal = 1;
place = (274, 43);
place = (274, 43);
type = Stem;
},
{
horizontal = 1;
place = (669, 42);
place = (669, 42);
type = Stem;
},
{
place = (46, 98);
place = (46, 98);
type = Stem;
},
{
place = (441, 76);
place = (441, 76);
type = Stem;
},
{
horizontal = 1;
place = (122, 77);
place = (122, 77);
type = Stem;
},
{
place = (65, 83);
place = (65, 83);
type = Stem;
},
{
place = (65, 106);
place = (65, 106);
type = Stem;
},
{
place = (413, 104);
place = (413, 104);
type = Stem;
}
);
layerId = m01;
shapes = (
{
closed = 1;
nodes = (
(516,501,o),
(469,610,o),
(393,668,cs),
(355,697,o),
(312,711,o),
(265,711,cs),
(144,711,o),
(46,607,o),
(46,474,cs),
(46,361,o),
(127,274,o),
(251,274,cs),
(315,274,o),
(386,309,o),
(441,373,c),
(441,346,l),
(413,319,l),
(406,139,o),
(345,31,o),
(252,31,cs),
(189,31,o),
(149,66,o),
(148,122,c),
(169,122,l),
(170,131,o),
(171,138,o),
(171,141,cs),
(171,176,o),
(148,199,o),
(116,199,cs),
(88,199,o),
(65,176,o),
(65,145,cs),
(65,65,o),
(144,-10,o),
(250,-10,cs),
(401,-10,o),
(517,144,o),
(517,373,cs)
);
},
{
closed = 1;
nodes = (
(144,603,o),
(189,669,o),
(261,669,cs),
(348,669,o),
(408,561,o),
(413,385,c),
(385,342,o),
(330,317,o),
(275,317,cs),
(195,317,o),
(144,387,o),
(144,496,cs)
);
}
);
width = 566;
}
);
note = nine;
unicode = 57;
},
{
glyphname = colon;
kernLeft = colon;
kernRight = colon;
layers = (
{
hints = (
{
horizontal = 1;
place = (0, 113);
place = (0, 113);
type = Stem;
},
{
horizontal = 1;
place = (367, 113);
place = (367, 113);
type = Stem;
},
{
place = (64, 112);
place = (64, 112);
type = Stem;
}
);
layerId = m01;
shapes = (
{
closed = 1;
nodes = (
(176,480,l),
(64,480,l),
(64,367,l),
(176,367,l)
);
},
{
closed = 1;
nodes = (
(64,0,l),
(176,0,l),
(176,113,l),
(64,113,l)
);
}
);
width = 240;
}
);
note = colon;
unicode = 58;
},
{
glyphname = semicolon;
kernLeft = colon;
kernRight = colon;
layers = (
{
hints = (
{
horizontal = 1;
place = (367, 113);
place = (367, 113);
type = Stem;
},
{
place = (64, 112);
place = (64, 112);
type = Stem;
},
{
horizontal = 1;
place = (27, 88);
place = (27, 88);
type = Stem;
},
{
place = (141, 41);
place = (141, 41);
type = Stem;
},
{
place = (53, 72);
place = (53, 72);
type = Stem;
},
{
horizontal = 1;
place = (-1, 116);
place = (-1, 116);
type = Stem;
}
);
layerId = m01;
shapes = (
{
closed = 1;
nodes = (
(176,480,l),
(64,480,l),
(64,367,l),
(176,367,l)
);
},
{
closed = 1;
nodes = (
(41,-141,l),
(126,-112,o),
(182,-44,o),
(182,31,cs),
(182,82,o),
(155,115,o),
(114,115,cs),
(79,115,o),
(53,90,o),
(53,55,cs),
(53,24,o),
(77,-1,o),
(106,-1,cs),
(114,-1,o),
(121,0,o),
(125,3,c),
(125,27,l),
(141,27,l),
(141,8,ls),
(141,-48,o),
(101,-106,o),
(37,-135,c)
);
}
);
width = 240;
}
);
note = semicolon;
unicode = 59;
},
{
glyphname = equal;
kernLeft = plus;
kernRight = plus;
layers = (
{
hints = (
{
horizontal = 1;
place = (220, 40);
place = (220, 40);
type = Stem;
},
{
horizontal = 1;
place = (370, 40);
place = (370, 40);
type = Stem;
},
{
place = (35, 448);
place = (35, 448);
type = Stem;
}
);
layerId = m01;
shapes = (
{
closed = 1;
nodes = (
(483,410,l),
(35,410,l),
(35,370,l),
(483,370,l)
);
},
{
closed = 1;
nodes = (
(35,220,l),
(483,220,l),
(483,260,l),
(35,260,l)
);
}
);
width = 518;
}
);
note = equal;
unicode = 61;
},
{
glyphname = question;
kernLeft = question;
layers = (
{
hints = (
{
horizontal = 1;
place = (0, 113);
place = (0, 113);
type = Stem;
},
{
horizontal = 1;
place = (519, 72);
place = (519, 72);
type = Stem;
},
{
horizontal = 1;
place = (672, 38);
place = (672, 38);
type = Stem;
},
{
place = (19, 74);
place = (19, 74);
type = Stem;
},
{
place = (166, 44);
place = (166, 44);
type = Stem;
},
{
place = (333, 93);
place = (333, 93);
type = Stem;
},
{
place = (19, 96);
place = (19, 96);
type = Stem;
},
{
place = (149, 112);
place = (149, 112);
type = Stem;
}
);
layerId = m01;
shapes = (
{
closed = 1;
nodes = (
(217,216,o),
(210,230,o),
(210,250,cs),
(210,275,o),
(223,302,o),
(247,318,cs),
(317,369,ls),
(394,425,o),
(426,476,o),
(426,543,cs),
(426,635,o),
(338,710,o),
(208,710,cs),
(107,710,o),
(19,648,o),
(19,573,cs),
(19,544,o),
(41,519,o),
(68,519,cs),
(97,519,o),
(115,541,o),
(115,573,cs),
(115,577,o),
(114,583,o),
(113,591,c),
(93,591,l),
(96,642,o),
(137,672,o),
(202,672,cs),
(278,672,o),
(333,619,o),
(333,547,cs),
(333,494,o),
(311,448,o),
(267,410,cs),
(214,364,ls),
(181,335,o),
(166,307,o),
(166,274,cs),
(166,234,o),
(193,208,o),
(232,207,c)
);
},
{
closed = 1;
nodes = (
(149,0,l),
(261,0,l),
(261,113,l),
(149,113,l)
);
}
);
width = 430;
}
);
note = question;
unicode = 63;
},
{
glyphname = at;
kernLeft = at;
kernRight = at;
layers = (
{
hints = (
{
horizontal = 1;
place = (-125, 29);
place = (-125, 29);
type = Stem;
},
{
horizontal = 1;
place = (51, 37);
place = (51, 37);
type = Stem;
},
{
horizontal = 1;
place = (387, 30);
place = (387, 30);
type = Stem;
},
{
horizontal = 1;
place = (557, 32);
place = (557, 32);
type = Stem;
},
{
place = (45, 38);
place = (45, 38);
type = Stem;
},
{
place = (194, 84);
place = (194, 84);
type = Stem;
},
{
place = (411, 71);
place = (411, 71);
type = Stem;
},
{
place = (698, 36);
place = (698, 36);
type = Stem;
},
{
horizontal = 1;
place = (51, 49);
place = (51, 49);
type = Stem;
}
);
layerId = m01;
shapes = (
{
closed = 1;
nodes = (
(591,419,l),
(507,393,l),
(487,409,o),
(462,417,o),
(433,417,cs),
(337,417,o),
(240,345,o),
(206,230,cs),
(198,202,o),
(194,177,o),
(194,154,cs),
(194,91,o),
(225,52,o),
(276,51,cs),
(331,51,o),
(381,93,o),
(444,193,c),
(430,145,l),
(411,117,l),
(411,72,o),
(449,51,o),
(505,51,cs),
(630,51,o),
(734,157,o),
(734,312,cs),
(734,419,o),
(680,506,o),
(589,554,cs),
(543,577,o),
(492,589,o),
(435,589,cs),
(298,589,o),
(171,515,o),
(99,395,cs),
(63,334,o),
(45,268,o),
(45,195,cs),
(45,74,o),
(103,-28,o),
(200,-83,cs),
(248,-111,o),
(302,-125,o),
(362,-125,cs),
(449,-125,o),
(524,-99,o),
(589,-47,c),
(588,-45,l),
(519,-79,o),
(451,-96,o),
(382,-96,cs),
(206,-96,o),
(83,24,o),
(83,194,cs),
(83,330,o),
(154,447,o),
(262,510,cs),
(316,541,o),
(373,557,o),
(434,557,cs),
(585,557,o),
(698,454,o),
(698,314,cs),
(698,189,o),
(625,88,o),
(528,88,cs),
(497,88,o),
(482,100,o),
(482,124,cs),
(482,135,o),
(485,149,o),
(491,165,cs)
);
},
{
closed = 1;
nodes = (
(278,176,o),
(283,205,o),
(294,238,cs),
(325,331,o),
(377,387,o),
(434,387,cs),
(457,387,o),
(475,377,o),
(489,357,c),
(431,218,l),
(379,139,o),
(340,100,o),
(313,100,cs),
(290,100,o),
(278,119,o),
(278,152,cs)
);
}
);
width = 764;
}
);
note = at;
unicode = 64;
},
{
glyphname = A;
kernLeft = A;
kernRight = A;
layers = (
{
hints = (
{
horizontal = 1;
place = (0, 30);
place = (0, 30);
type = Stem;
},
{
horizontal = 1;
place = (236, 35);
place = (236, 35);
type = Stem;
},
{
place = (6, 709);
place = (6, 709);
type = Stem;
},
{
place = (6, 204);
place = (6, 204);
type = Stem;
},
{
place = (6, 134);
place = (6, 134);
type = Stem;
}
);
layerId = m01;
shapes = (
{
closed = 1;
nodes = (
(508,216,l),
(472,216,l),
(520,102,ls),
(525,92,o),
(527,82,o),
(527,73,cs),
(527,49,o),
(510,34,o),
(481,31,cs),
(464,29,l),
(464,0,l),
(715,0,l),
(715,27,l),
(672,36,o),
(651,58,o),
(631,103,cs),
(362,733,l),
(360,733,l),
(93,111,ls),
(74,66,o),
(45,38,o),
(6,27,c),
(6,0,l),
(210,0,l),
(210,29,l),
(193,31,ls),
(158,35,o),
(140,52,o),
(140,81,cs),
(140,95,o),
(144,112,o),
(153,132,cs),
(197,236,l),
(500,236,l)
);
},
{
closed = 1;
nodes = (
(212,271,l),
(331,556,l),
(450,271,l)
);
}
);
width = 721;
}
);
note = A;
unicode = 65;
},
{
glyphname = B;
kernRight = B;
layers = (
{
hints = (
{
horizontal = 1;
place = (0, 41);
place = (0, 41);
type = Stem;
},
{
horizontal = 1;
place = (351, 35);
place = (351, 35);
type = Stem;
},
{
horizontal = 1;
place = (659, 41);
place = (659, 41);
type = Stem;
},
{
place = (114, 106);
place = (114, 106);
type = Stem;
},
{
place = (510, 111);
place = (510, 111);
type = Stem;
},
{
place = (472, 109);
place = (472, 109);
type = Stem;
},
{
horizontal = 1;
place = (0, 30);
place = (0, 30);
type = Stem;
},
{
horizontal = 1;
place = (670, 30);
place = (670, 30);
type = Stem;
},
{
place = (114, 70);
place = (114, 70);
type = Stem;
}
);
layerId = m01;
shapes = (
{
closed = 1;
nodes = (
(621,282,o),
(561,348,o),
(458,375,c),
(534,404,o),
(581,463,o),
(581,528,cs),
(581,634,o),
(480,700,o),
(333,700,cs),
(20,700,l),
(20,671,l),
(43,669,ls),
(90,665,o),
(114,640,o),
(114,595,cs),
(114,105,ls),
(114,60,o),
(90,35,o),
(43,31,cs),
(20,29,l),
(20,0,l),
(358,0,ls),
(521,0,o),
(621,80,o),
(621,193,cs)
);
},
{
closed = 1;
nodes = (
(184,41,l),
(184,61,l),
(220,61,l),
(220,351,l),
(344,351,ls),
(447,351,o),
(510,292,o),
(510,197,cs),
(510,98,o),
(447,41,o),
(339,41,cs)
);
},
{
closed = 1;
nodes = (
(184,639,l),
(184,659,l),
(319,659,ls),
(416,659,o),
(472,608,o),
(472,521,cs),
(472,438,o),
(415,386,o),
(326,386,cs),
(220,386,l),
(220,639,l)
);
}
);
width = 660;
}
);
note = B;
unicode = 66;
},
{
glyphname = C;
kernLeft = C;
kernRight = C;
layers = (
{
hints = (
{
horizontal = 1;
place = (-10, 54);
place = (-10, 54);
type = Stem;
},
{
horizontal = 1;
place = (663, 47);
place = (663, 47);
type = Stem;
},
{
place = (32, 117);
place = (32, 117);
type = Stem;
},
{
place = (574, 45);
place = (574, 45);
type = Stem;
}
);
layerId = m01;
shapes = (
{
closed = 1;
nodes = (
(486,-10,o),
(587,70,o),
(626,201,c),
(622,203,l),
(557,92,o),
(484,44,o),
(381,44,cs),
(247,44,o),
(149,164,o),
(149,354,cs),
(149,544,o),
(239,663,o),
(366,663,cs),
(454,663,o),
(522,611,o),
(565,508,cs),
(585,462,l),
(619,462,l),
(619,707,l),
(542,664,l),
(551,656,o),
(566,640,o),
(574,629,c),
(574,594,l),
(524,671,o),
(454,710,o),
(364,710,cs),
(240,710,o),
(134,641,o),
(76,528,cs),
(47,471,o),
(32,409,o),
(32,340,cs),
(32,208,o),
(93,96,o),
(194,36,cs),
(244,5,o),
(300,-10,o),
(362,-10,cs)
);
}
);
width = 665;
}
);
note = C;
unicode = 67;
},
{
glyphname = D;
kernRight = D;
layers = (
{
hints = (
{
horizontal = 1;
place = (0, 30);
place = (0, 30);
type = Stem;
},
{
horizontal = 1;
place = (659, 41);
place = (659, 41);
type = Stem;
},
{
place = (114, 106);
place = (114, 106);
type = Stem;
},
{
place = (581, 117);
place = (581, 117);
type = Stem;
},
{
horizontal = 1;
place = (0, 41);
place = (0, 41);
type = Stem;
},
{
horizontal = 1;
place = (670, 30);
place = (670, 30);
type = Stem;
},
{
place = (114, 70);
place = (114, 70);
type = Stem;
}
);
layerId = m01;
shapes = (
{
closed = 1;
nodes = (
(20,29,l),
(20,0,l),
(317,0,ls),
(458,0,o),
(580,67,o),
(648,175,cs),
(681,229,o),
(698,289,o),
(698,355,cs),
(698,486,o),
(629,596,o),
(514,656,cs),
(456,685,o),
(391,700,o),
(319,700,cs),
(20,700,l),
(20,671,l),
(43,669,ls),
(90,665,o),
(114,640,o),
(114,595,cs),
(114,105,ls),
(114,60,o),
(90,35,o),
(43,31,cs)
);
},
{
closed = 1;
nodes = (
(184,41,l),
(184,61,l),
(220,61,l),
(220,639,l),
(184,639,l),
(184,659,l),
(314,659,ls),
(473,659,o),
(581,534,o),
(581,351,cs),
(581,161,o),
(475,41,o),
(305,41,cs)
);
}
);
width = 729;
}
);
note = D;
unicode = 68;
},
{
glyphname = E;
kernRight = E;
layers = (
{
hints = (
{
horizontal = 1;
place = (0, 41);
place = (0, 41);
type = Stem;
},
{
horizontal = 1;
place = (340, 35);
place = (340, 35);
type = Stem;
},
{
horizontal = 1;
place = (659, 41);
place = (659, 41);
type = Stem;
},
{
place = (114, 70);
place = (114, 70);
type = Stem;
},
{
place = (420, 33);
place = (420, 33);
type = Stem;
},
{
place = (114, 106);
place = (114, 106);
type = Stem;
},
{
horizontal = 1;
place = (0, 30);
place = (0, 30);
type = Stem;
},
{
horizontal = 1;
place = (670, 30);
place = (670, 30);
type = Stem;
}
);
layerId = m01;
shapes = (
{
closed = 1;
nodes = (
(184,61,l),
(220,61,l),
(220,340,l),
(325,340,ls),
(376,340,o),
(399,319,o),
(412,260,cs),
(420,226,l),
(453,226,l),
(453,490,l),
(420,490,l),
(412,456,ls),
(399,396,o),
(376,375,o),
(325,375,cs),
(220,375,l),
(220,639,l),
(184,639,l),
(184,659,l),
(402,659,ls),
(479,659,o),
(523,622,o),
(547,535,cs),
(569,456,l),
(601,456,l),
(589,700,l),
(20,700,l),
(20,671,l),
(43,669,ls),
(90,665,o),
(114,640,o),
(114,595,cs),
(114,105,ls),
(114,60,o),
(90,35,o),
(43,31,cs),
(20,29,l),
(20,0,l),
(587,0,l),
(619,249,l),
(586,249,l),
(568,184,ls),
(541,85,o),
(490,41,o),
(409,41,cs),
(184,41,l)
);
}
);
width = 660;
}
);
note = E;
unicode = 69;
},
{
glyphname = F;
kernRight = F;
layers = (
{
hints = (
{
horizontal = 1;
place = (0, 30);
place = (0, 30);
type = Stem;
},
{
horizontal = 1;
place = (334, 35);
place = (334, 35);
type = Stem;
},
{
horizontal = 1;
place = (659, 41);
place = (659, 41);
type = Stem;
},
{
place = (114, 106);
place = (114, 106);
type = Stem;
},
{
place = (425, 33);
place = (425, 33);
type = Stem;
},
{
place = (114, 70);
place = (114, 70);
type = Stem;
},
{
horizontal = 1;
place = (670, 30);
place = (670, 30);
type = Stem;
}
);
layerId = m01;
shapes = (
{
closed = 1;
nodes = (
(220,314,l),
(184,314,l),
(184,334,l),
(330,334,ls),
(381,334,o),
(404,313,o),
(417,254,cs),
(425,220,l),
(458,220,l),
(458,484,l),
(425,484,l),
(417,450,ls),
(404,390,o),
(381,369,o),
(330,369,cs),
(220,369,l),
(220,639,l),
(184,639,l),
(184,659,l),
(402,659,ls),
(479,659,o),
(523,622,o),
(547,535,cs),
(569,456,l),
(601,456,l),
(589,700,l),
(20,700,l),
(20,671,l),
(43,669,ls),
(90,665,o),
(114,640,o),
(114,595,cs),
(114,105,ls),
(114,60,o),
(90,35,o),
(43,31,cs),
(20,29,l),
(20,0,l),
(314,0,l),
(314,29,l),
(291,31,ls),
(244,35,o),
(220,60,o),
(220,105,cs)
);
}
);
width = 645;
}
);
note = F;
unicode = 70;
},
{
glyphname = G;
kernLeft = C;
kernRight = G;
layers = (
{
hints = (
{
horizontal = 1;
place = (-9, 53);
place = (-9, 53);
type = Stem;
},
{
horizontal = 1;
place = (307, 30);
place = (307, 30);
type = Stem;
},
{
horizontal = 1;
place = (663, 47);
place = (663, 47);
type = Stem;
},
{
place = (32, 117);
place = (32, 117);
type = Stem;
},
{
place = (589, 45);
place = (589, 45);
type = Stem;
},
{
place = (551, 99);
place = (551, 99);
type = Stem;
},
{
place = (589, 61);
place = (589, 61);
type = Stem;
}
);
layerId = m01;
shapes = (
{
closed = 1;
nodes = (
(448,-9,o),
(520,13,o),
(579,56,c),
(650,-11,l),
(650,232,ls),
(650,277,o),
(672,302,o),
(716,306,cs),
(739,308,l),
(739,337,l),
(452,337,l),
(452,308,l),
(475,306,ls),
(526,302,o),
(551,277,o),
(551,232,cs),
(551,118,l),
(589,144,l),
(589,119,l),
(521,67,o),
(462,44,o),
(395,44,cs),
(248,44,o),
(149,171,o),
(149,355,cs),
(149,544,o),
(241,663,o),
(371,663,cs),
(467,663,o),
(538,611,o),
(581,508,cs),
(600,463,l),
(634,463,l),
(634,708,l),
(558,665,l),
(567,656,o),
(588,635,o),
(589,630,c),
(589,595,l),
(541,671,o),
(466,710,o),
(373,710,cs),
(245,710,o),
(136,641,o),
(77,529,cs),
(47,473,o),
(32,410,o),
(32,341,cs),
(32,209,o),
(93,97,o),
(194,37,cs),
(244,6,o),
(300,-9,o),
(363,-9,cs)
);
}
);
width = 755;
}
);
note = G;
unicode = 71;
},
{
glyphname = H;
kernRight = H;
layers = (
{
hints = (
{
horizontal = 1;
place = (0, 30);
place = (0, 30);
type = Stem;
},
{
horizontal = 1;
place = (340, 35);
place = (340, 35);
type = Stem;
},
{
horizontal = 1;
place = (670, 30);
place = (670, 30);
type = Stem;
},
{
place = (114, 70);
place = (114, 70);
type = Stem;
},
{
place = (585, 70);
place = (585, 70);
type = Stem;
},
{
place = (114, 106);
place = (114, 106);
type = Stem;
},
{
place = (549, 106);
place = (549, 106);
type = Stem;
}
);
layerId = m01;
shapes = (
{
closed = 1;
nodes = (
(184,320,l),
(184,340,l),
(585,340,l),
(585,320,l),
(549,320,l),
(549,105,ls),
(549,60,o),
(525,35,o),
(478,31,cs),
(455,29,l),
(455,0,l),
(749,0,l),
(749,29,l),
(726,31,ls),
(679,35,o),
(655,60,o),
(655,105,cs),
(655,595,ls),
(655,640,o),
(679,665,o),
(726,669,cs),
(749,671,l),
(749,700,l),
(455,700,l),
(455,671,l),
(478,669,ls),
(525,665,o),
(549,640,o),
(549,595,cs),
(549,375,l),
(220,375,l),
(220,595,ls),
(220,640,o),
(244,665,o),
(291,669,cs),
(314,671,l),
(314,700,l),
(20,700,l),
(20,671,l),
(43,669,ls),
(90,665,o),
(114,640,o),
(114,595,cs),
(114,105,ls),
(114,60,o),
(90,35,o),
(43,31,cs),
(20,29,l),
(20,0,l),
(314,0,l),
(314,29,l),
(291,31,ls),
(244,35,o),
(220,60,o),
(220,105,cs),
(220,320,l)
);
}
);
width = 769;
}
);
note = H;
unicode = 72;
},
{
glyphname = I;
kernRight = H;
layers = (
{
hints = (
{
horizontal = 1;
place = (0, 30);
place = (0, 30);
type = Stem;
},
{
horizontal = 1;
place = (670, 30);
place = (670, 30);
type = Stem;
},
{
place = (114, 106);
place = (114, 106);
type = Stem;
}
);
layerId = m01;
shapes = (
{
closed = 1;
nodes = (
(220,595,ls),
(220,640,o),
(244,665,o),
(291,669,cs),
(314,671,l),
(314,700,l),
(20,700,l),
(20,671,l),
(43,669,ls),
(90,665,o),
(114,640,o),
(114,595,cs),
(114,105,ls),
(114,60,o),
(90,35,o),
(43,31,cs),
(20,29,l),
(20,0,l),
(314,0,l),
(314,29,l),
(291,31,ls),
(244,35,o),
(220,60,o),
(220,105,cs)
);
}
);
width = 334;
}
);
note = I;
unicode = 73;
},
{
glyphname = J;
kernLeft = J;
kernRight = J;
layers = (
{
hints = (
{
horizontal = 1;
place = (-11, 43);
place = (-11, 43);
type = Stem;
},
{
horizontal = 1;
place = (114, 78);
place = (114, 78);
type = Stem;
},
{
horizontal = 1;
place = (670, 30);
place = (670, 30);
type = Stem;
},
{
place = (21, 86);
place = (21, 86);
type = Stem;
},
{
place = (348, 106);
place = (348, 106);
type = Stem;
},
{
place = (21, 109);
place = (21, 109);
type = Stem;
}
);
layerId = m01;
shapes = (
{
closed = 1;
nodes = (
(454,595,ls),
(454,640,o),
(478,665,o),
(525,669,cs),
(548,671,l),
(548,700,l),
(254,700,l),
(254,671,l),
(277,669,ls),
(324,665,o),
(348,640,o),
(348,595,cs),
(348,183,ls),
(348,88,o),
(296,32,o),
(211,32,cs),
(150,32,o),
(108,65,o),
(107,114,c),
(128,114,l),
(129,122,o),
(130,128,o),
(130,132,cs),
(130,169,o),
(109,192,o),
(74,192,cs),
(45,192,o),
(21,168,o),
(21,137,cs),
(21,60,o),
(104,-11,o),
(218,-11,cs),
(351,-11,o),
(454,78,o),
(454,214,cs)
);
}
);
width = 568;
}
);
note = J;
unicode = 74;
},
{
glyphname = K;
kernRight = K;
layers = (
{
hints = (
{
horizontal = 1;
place = (0, 30);
place = (0, 30);
type = Stem;
},
{
horizontal = 1;
place = (670, 30);
place = (670, 30);
type = Stem;
},
{
place = (111, 106);
place = (111, 106);
type = Stem;
},
{
horizontal = 1;
place = (0, 27);
place = (0, 27);
type = Stem;
},
{
horizontal = 1;
place = (673, 27);
place = (673, 27);
type = Stem;
},
{
place = (111, 78);
place = (111, 78);
type = Stem;
}
);
layerId = m01;
shapes = (
{
closed = 1;
nodes = (
(17,29,l),
(17,0,l),
(311,0,l),
(311,29,l),
(288,31,ls),
(241,35,o),
(217,60,o),
(217,105,cs),
(217,259,l),
(311,356,l),
(556,0,l),
(719,0,l),
(719,27,l),
(679,38,o),
(650,60,o),
(619,103,cs),
(383,431,l),
(535,587,ls),
(574,626,o),
(636,660,o),
(689,673,c),
(689,700,l),
(454,700,l),
(454,671,l),
(476,669,ls),
(497,668,o),
(510,656,o),
(510,639,cs),
(510,624,o),
(501,607,o),
(483,588,cs),
(189,283,l),
(189,308,l),
(217,338,l),
(217,595,ls),
(217,640,o),
(241,665,o),
(288,669,cs),
(311,671,l),
(311,700,l),
(17,700,l),
(17,671,l),
(40,669,ls),
(87,665,o),
(111,640,o),
(111,595,cs),
(111,105,ls),
(111,60,o),
(87,35,o),
(40,31,cs)
);
}
);
width = 728;
}
);
note = K;
unicode = 75;
},
{
glyphname = L;
kernRight = L;
layers = (
{
hints = (
{
horizontal = 1;
place = (0, 41);
place = (0, 41);
type = Stem;
},
{
horizontal = 1;
place = (670, 30);
place = (670, 30);
type = Stem;
},
{
place = (114, 106);
place = (114, 106);
type = Stem;
},
{
place = (114, 70);
place = (114, 70);
type = Stem;
},
{
horizontal = 1;
place = (0, 30);
place = (0, 30);
type = Stem;
}
);
layerId = m01;
shapes = (
{
closed = 1;
nodes = (
(20,0,l),
(587,0,l),
(619,249,l),
(586,249,l),
(569,188,ls),
(541,87,o),
(490,41,o),
(409,41,cs),
(184,41,l),
(184,61,l),
(220,61,l),
(220,595,ls),
(220,640,o),
(244,665,o),
(291,669,cs),
(314,671,l),
(314,700,l),
(20,700,l),
(20,671,l),
(43,669,ls),
(90,665,o),
(114,640,o),
(114,595,cs),
(114,105,ls),
(114,60,o),
(90,35,o),
(43,31,cs),
(20,29,l)
);
}
);
width = 645;
}
);
note = L;
unicode = 76;
},
{
glyphname = M;
kernRight = H;
layers = (
{
hints = (
{
horizontal = 1;
place = (0, 30.5);
place = (0, 30.5);
type = Stem;
},
{
horizontal = 1;
place = (669.5, 30.5);
place = (669.5, 30.5);
type = Stem;
},
{
place = (114, 53);
place = (114, 53);
type = Stem;
},
{
place = (697, 105);
place = (697, 105);
type = Stem;
},
{
horizontal = 1;
place = (0, 30);
place = (0, 30);
type = Stem;
},
{
horizontal = 1;
place = (601, 99);
place = (601, 99);
type = Stem;
},
{
horizontal = 1;
place = (670, 30);
place = (670, 30);
type = Stem;
}
);
layerId = m01;
shapes = (
{
closed = 1;
nodes = (
(20,700,l),
(20,671,l),
(43,668,ls),
(91,661,o),
(114,635,o),
(114,584,cs),
(114,116,ls),
(114,65,o),
(91,39,o),
(43,32,cs),
(20,29,l),
(20,0,l),
(262,0,l),
(262,29,l),
(239,32,ls),
(191,38,o),
(167,66,o),
(167,116,cs),
(167,613,l),
(431,-31,l),
(433,-31,l),
(692,601,l),
(713,601,l),
(697,562,l),
(697,105,ls),
(697,60,o),
(673,35,o),
(626,31,cs),
(603,29,l),
(603,0,l),
(896,0,l),
(896,29,l),
(873,31,ls),
(826,35,o),
(802,60,o),
(802,105,cs),
(802,595,ls),
(802,640,o),
(826,665,o),
(873,669,cs),
(896,671,l),
(896,700,l),
(679,700,l),
(449,126,l),
(437,150,l),
(452,188,l),
(243,700,l)
);
}
);
width = 916;
}
);
note = M;
unicode = 77;
},
{
glyphname = N;
kernRight = N;
layers = (
{
hints = (
{
horizontal = 1;
place = (0, 30.5);
place = (0, 30.5);
type = Stem;
},
{
horizontal = 1;
place = (669.5, 30.5);
place = (669.5, 30.5);
type = Stem;
},
{
place = (114, 53);
place = (114, 53);
type = Stem;
},
{
place = (597, 53);
place = (597, 53);
type = Stem;
}
);
layerId = m01;
shapes = (
{
closed = 1;
nodes = (
(650,-10,l),
(650,584,ls),
(650,635,o),
(673,661,o),
(721,668,cs),
(744,671,l),
(744,700,l),
(502,700,l),
(502,671,l),
(525,668,ls),
(573,662,o),
(597,634,o),
(597,584,cs),
(597,189,l),
(578,211,l),
(578,248,l),
(196,700,l),
(34,700,l),
(114,618,l),
(114,116,ls),
(114,65,o),
(91,39,o),
(43,32,cs),
(20,29,l),
(20,0,l),
(262,0,l),
(262,29,l),
(239,32,ls),
(191,38,o),
(167,66,o),
(167,116,cs),
(167,570,l)
);
}
);
width = 759;
}
);
note = N;
unicode = 78;
},
{
glyphname = O;
kernLeft = C;
kernRight = D;
layers = (
{
hints = (
{
horizontal = 1;
place = (-11, 43);
place = (-11, 43);
type = Stem;
},
{
horizontal = 1;
place = (670, 42);
place = (670, 42);
type = Stem;
},
{
place = (32, 114);
place = (32, 114);
type = Stem;
},
{
place = (582, 118);
place = (582, 118);
type = Stem;
}
);
layerId = m01;
shapes = (
{
closed = 1;
nodes = (
(487,-11,o),
(595,57,o),
(655,169,cs),
(685,225,o),
(700,287,o),
(700,355,cs),
(700,491,o),
(636,605,o),
(535,666,cs),
(484,697,o),
(429,712,o),
(368,712,cs),
(245,712,o),
(137,644,o),
(77,533,cs),
(47,477,o),
(32,415,o),
(32,347,cs),
(32,211,o),
(96,96,o),
(197,35,cs),
(248,4,o),
(303,-11,o),
(364,-11,cs)
);
},
{
closed = 1;
nodes = (
(146,556,o),
(237,670,o),
(354,670,cs),
(442,670,o),
(513,614,o),
(553,511,cs),
(572,460,o),
(582,400,o),
(582,331,cs),
(582,146,o),
(491,32,o),
(374,32,cs),
(286,32,o),
(215,88,o),
(176,191,cs),
(156,242,o),
(146,302,o),
(146,371,cs)
);
}
);
width = 731;
}
);
note = O;
unicode = 79;
},
{
glyphname = P;
kernRight = P;
layers = (
{
hints = (
{
horizontal = 1;
place = (0, 30);
place = (0, 30);
type = Stem;
},
{
horizontal = 1;
place = (323, 35);
place = (323, 35);
type = Stem;
},
{
horizontal = 1;
place = (659, 41);
place = (659, 41);
type = Stem;
},
{
place = (114, 106);
place = (114, 106);
type = Stem;
},
{
place = (476, 111);
place = (476, 111);
type = Stem;
},
{
place = (114, 70);
place = (114, 70);
type = Stem;
},
{
horizontal = 1;
place = (670, 30);
place = (670, 30);
type = Stem;
}
);
layerId = m01;
shapes = (
{
closed = 1;
nodes = (
(220,303,l),
(184,303,l),
(184,323,l),
(345,323,ls),
(492,323,o),
(587,407,o),
(587,517,cs),
(587,623,o),
(493,700,o),
(344,700,cs),
(20,700,l),
(20,671,l),
(43,669,ls),
(90,665,o),
(114,640,o),
(114,595,cs),
(114,105,ls),
(114,60,o),
(90,35,o),
(43,31,cs),
(20,29,l),
(20,0,l),
(314,0,l),
(314,29,l),
(291,31,ls),
(244,35,o),
(220,60,o),
(220,105,cs)
);
},
{
closed = 1;
nodes = (
(184,639,l),
(184,659,l),
(333,659,ls),
(422,659,o),
(476,604,o),
(476,513,cs),
(476,420,o),
(420,358,o),
(333,358,cs),
(220,358,l),
(220,639,l)
);
}
);
width = 617;
}
);
note = P;
unicode = 80;
},
{
glyphname = Q;
kernLeft = C;
kernRight = D;
layers = (
{
hints = (
{
horizontal = 1;
place = (-158, 53);
place = (-158, 53);
type = Stem;
},
{
horizontal = 1;
place = (155, 48);
place = (155, 48);
type = Stem;
},
{
horizontal = 1;
place = (670, 42);
place = (670, 42);
type = Stem;
},
{
place = (32, 115);
place = (32, 115);
type = Stem;
},
{
place = (583, 117);
place = (583, 117);
type = Stem;
}
);
layerId = m01;
shapes = (
{
closed = 1;
nodes = (
(680,-82,l),
(659,-102,o),
(646,-105,o),
(625,-105,cs),
(605,-105,o),
(587,-92,o),
(572,-66,cs),
(517,28,l),
(628,87,o),
(700,211,o),
(700,355,cs),
(700,491,o),
(636,605,o),
(535,666,cs),
(484,697,o),
(429,712,o),
(368,712,cs),
(245,712,o),
(137,644,o),
(77,533,cs),
(47,477,o),
(32,415,o),
(32,347,cs),
(32,211,o),
(96,96,o),
(197,35,cs),
(248,4,o),
(303,-11,o),
(364,-11,cs),
(372,-11,o),
(385,-10,o),
(402,-9,c),
(382,32,l),
(333,31,o),
(285,48,o),
(248,83,c),
(249,124,o),
(269,155,o),
(301,155,cs),
(326,155,o),
(345,141,o),
(361,110,cs),
(463,-87,ls),
(490,-138,o),
(519,-158,o),
(570,-158,cs),
(619,-158,o),
(655,-135,o),
(683,-84,c)
);
},
{
closed = 1;
nodes = (
(147,498,o),
(188,590,o),
(252,636,cs),
(283,659,o),
(318,670,o),
(355,670,cs),
(488,670,o),
(583,541,o),
(583,329,cs),
(583,212,o),
(547,122,o),
(490,73,c),
(458,127,ls),
(430,175,o),
(397,202,o),
(337,203,cs),
(277,203,o),
(230,166,o),
(221,111,c),
(174,171,o),
(147,262,o),
(147,371,cs)
);
}
);
width = 731;
}
);
note = Q;
unicode = 81;
},
{
glyphname = R;
kernRight = R;
layers = (
{
hints = (
{
horizontal = 1;
place = (0, 30);
place = (0, 30);
type = Stem;
},
{
horizontal = 1;
place = (338, 35);
place = (338, 35);
type = Stem;
},
{
horizontal = 1;
place = (659, 41);
place = (659, 41);
type = Stem;
},
{
place = (114, 106);
place = (114, 106);
type = Stem;
},
{
place = (476, 111);
place = (476, 111);
type = Stem;
},
{
horizontal = 1;
place = (0, 29);
place = (0, 29);
type = Stem;
},
{
place = (114, 70);
place = (114, 70);
type = Stem;
},
{
horizontal = 1;
place = (670, 30);
place = (670, 30);
type = Stem;
}
);
layerId = m01;
shapes = (
{
closed = 1;
nodes = (
(220,318,l),
(184,318,l),
(184,338,l),
(316,338,ls),
(365,338,o),
(392,317,o),
(412,264,cs),
(511,0,l),
(687,0,l),
(687,28,l),
(674,30,ls),
(634,37,o),
(610,51,o),
(597,84,cs),
(524,258,ls),
(504,306,o),
(476,335,o),
(428,352,c),
(519,370,o),
(587,448,o),
(587,527,cs),
(587,627,o),
(495,700,o),
(349,700,cs),
(20,700,l),
(20,671,l),
(43,669,ls),
(90,665,o),
(114,640,o),
(114,595,cs),
(114,105,ls),
(114,60,o),
(90,35,o),
(43,31,cs),
(20,29,l),
(20,0,l),
(314,0,l),
(314,29,l),
(291,31,ls),
(244,35,o),
(220,60,o),
(220,105,cs)
);
},
{
closed = 1;
nodes = (
(184,639,l),
(184,659,l),
(333,659,ls),
(422,659,o),
(476,605,o),
(476,517,cs),
(476,432,o),
(418,373,o),
(333,373,cs),
(220,373,l),
(220,639,l)
);
}
);
width = 693;
}
);
note = R;
unicode = 82;
},
{
glyphname = S;
kernLeft = S;
kernRight = S;
layers = (
{
hints = (
{
horizontal = 1;
place = (-11, 45);
place = (-11, 45);
type = Stem;
},
{
horizontal = 1;
place = (665, 45);
place = (665, 45);
type = Stem;
},
{
place = (31.5, 44);
place = (31.5, 44);
type = Stem;
},
{
place = (431.5, 42);
place = (431.5, 42);
type = Stem;
},
{
place = (35, 86);
place = (35, 86);
type = Stem;
},
{
place = (428, 92);
place = (428, 92);
type = Stem;
}
);
layerId = m01;
shapes = (
{
closed = 1;
nodes = (
(428,-11,o),
(520,76,o),
(520,198,cs),
(520,279,o),
(475,341,o),
(394,373,cs),
(210,445,ls),
(153,468,o),
(121,508,o),
(121,557,cs),
(121,622,o),
(166,665,o),
(237,665,cs),
(321,665,o),
(378,619,o),
(422,516,cs),
(440,474,l),
(475,474,l),
(472,708,l),
(400,667,l),
(408,659,o),
(423,642,o),
(431,630,c),
(432,593,l),
(389,668,o),
(321,710,o),
(240,710,cs),
(118,710,o),
(35,630,o),
(35,514,cs),
(35,439,o),
(76,383,o),
(155,351,cs),
(326,283,ls),
(391,258,o),
(428,214,o),
(428,159,cs),
(428,83,o),
(372,34,o),
(283,34,cs),
(198,34,o),
(134,82,o),
(91,178,cs),
(65,235,l),
(30,235,l),
(33,-9,l),
(107,35,l),
(90,50,o),
(79,59,o),
(76,64,c),
(75,98,l),
(131,25,o),
(200,-11,o),
(281,-11,cs)
);
}
);
width = 545;
}
);
note = S;
unicode = 83;
},
{
glyphname = T;
kernLeft = T;
kernRight = T;
layers = (
{
hints = (
{
horizontal = 1;
place = (0, 30);
place = (0, 30);
type = Stem;
},
{
horizontal = 1;
place = (659, 41);
place = (659, 41);
type = Stem;
},
{
place = (277, 106);
place = (277, 106);
type = Stem;
},
{
place = (277, 70);
place = (277, 70);
type = Stem;
}
);
layerId = m01;
shapes = (
{
closed = 1;
nodes = (
(629,700,l),
(30,700,l),
(18,480,l),
(51,480,l),
(67,536,ls),
(92,623,o),
(136,659,o),
(215,659,cs),
(277,659,l),
(277,105,ls),
(277,60,o),
(253,35,o),
(206,31,cs),
(183,29,l),
(183,0,l),
(477,0,l),
(477,29,l),
(454,31,ls),
(407,35,o),
(383,60,o),
(383,105,cs),
(383,639,l),
(347,639,l),
(347,659,l),
(444,659,ls),
(523,659,o),
(567,623,o),
(592,536,cs),
(608,480,l),
(641,480,l)
);
}
);
width = 659;
}
);
note = T;
unicode = 84;
},
{
glyphname = U;
kernLeft = U;
kernRight = J;
layers = (
{
hints = (
{
horizontal = 1;
place = (-11, 62);
place = (-11, 62);
type = Stem;
},
{
horizontal = 1;
place = (670, 30);
place = (670, 30);
type = Stem;
},
{
place = (114, 105);
place = (114, 105);
type = Stem;
},
{
place = (596, 53);
place = (596, 53);
type = Stem;
},
{
horizontal = 1;
place = (669.5, 30.5);
place = (669.5, 30.5);
type = Stem;
}
);
layerId = m01;
shapes = (
{
closed = 1;
nodes = (
(542,-11,o),
(649,103,o),
(649,283,cs),
(649,584,ls),
(649,635,o),
(672,661,o),
(720,668,cs),
(743,671,l),
(743,700,l),
(501,700,l),
(501,671,l),
(524,668,ls),
(572,662,o),
(596,634,o),
(596,584,cs),
(596,296,ls),
(596,145,o),
(520,51,o),
(399,51,cs),
(290,51,o),
(219,129,o),
(219,250,cs),
(219,595,ls),
(219,640,o),
(243,665,o),
(290,669,cs),
(313,671,l),
(313,700,l),
(20,700,l),
(20,671,l),
(43,669,ls),
(90,665,o),
(114,640,o),
(114,595,cs),
(114,230,ls),
(114,82,o),
(214,-11,o),
(372,-11,cs)
);
}
);
width = 763;
}
);
note = U;
unicode = 85;
},
{
glyphname = V;
kernLeft = V;
kernRight = V;
layers = (
{
hints = (
{
horizontal = 1;
place = (670, 30);
place = (670, 30);
type = Stem;
},
{
place = (6, 709);
place = (6, 709);
type = Stem;
},
{
horizontal = 1;
place = (673, 27);
place = (673, 27);
type = Stem;
},
{
place = (511, 204);
place = (511, 204);
type = Stem;
},
{
place = (581, 134);
place = (581, 134);
type = Stem;
}
);
layerId = m01;
shapes = (
{
closed = 1;
nodes = (
(378,177,l),
(201,598,ls),
(197,609,o),
(195,619,o),
(195,627,cs),
(195,651,o),
(211,666,o),
(240,669,cs),
(257,671,l),
(257,700,l),
(6,700,l),
(6,673,l),
(47,664,o),
(70,644,o),
(90,597,cs),
(359,-33,l),
(361,-33,l),
(628,589,ls),
(648,635,o),
(677,663,o),
(715,673,c),
(715,700,l),
(511,700,l),
(511,671,l),
(528,669,ls),
(563,665,o),
(581,648,o),
(581,619,cs),
(581,604,o),
(577,587,o),
(568,568,cs),
(375,119,l),
(364,144,l)
);
}
);
width = 721;
}
);
note = V;
unicode = 86;
},
{
glyphname = W;
kernLeft = V;
kernRight = V;
layers = (
{
hints = (
{
horizontal = 1;
place = (670, 30);
place = (670, 30);
type = Stem;
},
{
place = (10, 1001);
place = (10, 1001);
type = Stem;
},
{
horizontal = 1;
place = (673, 27);
place = (673, 27);
type = Stem;
},
{
place = (806, 205);
place = (806, 205);
type = Stem;
},
{
place = (875, 136);
place = (875, 136);
type = Stem;
}
);
layerId = m01;
shapes = (
{
closed = 1;
nodes = (
(688,160,l),
(701,195,l),
(550,598,ls),
(546,609,o),
(544,619,o),
(544,627,cs),
(544,651,o),
(559,665,o),
(589,669,cs),
(606,671,l),
(606,700,l),
(357,700,l),
(357,673,l),
(401,664,o),
(423,642,o),
(442,597,cs),
(498,462,l),
(363,124,l),
(352,149,l),
(364,185,l),
(203,598,ls),
(199,609,o),
(197,619,o),
(197,627,cs),
(197,651,o),
(212,665,o),
(242,669,cs),
(259,671,l),
(259,700,l),
(10,700,l),
(10,673,l),
(54,662,o),
(78,642,o),
(95,597,cs),
(347,-36,l),
(349,-36,l),
(522,402,l),
(684,-36,l),
(686,-36,l),
(926,589,ls),
(942,633,o),
(972,662,o),
(1011,673,c),
(1011,700,l),
(806,700,l),
(806,671,l),
(823,669,ls),
(859,665,o),
(875,650,o),
(875,619,cs),
(875,606,o),
(871,589,o),
(864,568,cs),
(701,133,l)
);
}
);
width = 1021;
}
);
note = W;
unicode = 87;
},
{
glyphname = X;
kernLeft = X;
kernRight = K;
layers = (
{
hints = (
{
horizontal = 1;
place = (0, 30);
place = (0, 30);
type = Stem;
},
{
horizontal = 1;
place = (670, 30);
place = (670, 30);
type = Stem;
},
{
place = (9, 212);
place = (9, 212);
type = Stem;
},
{
horizontal = 1;
place = (0, 29);
place = (0, 29);
type = Stem;
},
{
horizontal = 1;
place = (671, 29);
place = (671, 29);
type = Stem;
},
{
place = (452, 212);
place = (452, 212);
type = Stem;
}
);
layerId = m01;
shapes = (
{
closed = 1;
nodes = (
(221,0,l),
(221,29,l),
(200,31,ls),
(176,32,o),
(163,45,o),
(163,62,cs),
(163,75,o),
(169,89,o),
(181,105,cs),
(358,337,l),
(371,317,l),
(349,288,l),
(467,105,ls),
(477,90,o),
(482,77,o),
(482,64,cs),
(482,45,o),
(469,32,o),
(445,31,cs),
(424,29,l),
(424,0,l),
(701,0,l),
(701,29,l),
(652,36,o),
(623,57,o),
(591,105,cs),
(399,399,l),
(548,595,ls),
(583,639,o),
(615,662,o),
(664,671,c),
(664,700,l),
(452,700,l),
(452,671,l),
(473,669,ls),
(498,668,o),
(511,655,o),
(511,639,cs),
(511,626,o),
(505,612,o),
(492,595,cs),
(349,411,l),
(336,429,l),
(358,458,l),
(270,595,ls),
(260,611,o),
(255,625,o),
(255,637,cs),
(255,656,o),
(267,667,o),
(292,669,cs),
(313,671,l),
(313,700,l),
(41,700,l),
(41,671,l),
(89,662,o),
(117,640,o),
(146,595,cs),
(306,346,l),
(126,105,ls),
(93,62,o),
(61,40,o),
(9,29,c),
(9,0,l)
);
}
);
width = 720;
}
);
note = X;
unicode = 88;
},
{
glyphname = Y;
kernLeft = Y;
kernRight = Y;
layers = (
{
hints = (
{
horizontal = 1;
place = (0, 30);
place = (0, 30);
type = Stem;
},
{
horizontal = 1;
place = (669.5, 30.5);
place = (669.5, 30.5);
type = Stem;
},
{
place = (314, 103);
place = (314, 103);
type = Stem;
},
{
place = (558, 137);
place = (558, 137);
type = Stem;
},
{
horizontal = 1;
place = (673, 27);
place = (673, 27);
type = Stem;
},
{
horizontal = 1;
place = (670, 30);
place = (670, 30);
type = Stem;
},
{
place = (486, 209);
place = (486, 209);
type = Stem;
}
);
layerId = m01;
shapes = (
{
closed = 1;
nodes = (
(369,312,l),
(356,327,l),
(376,357,l),
(223,588,ls),
(213,604,o),
(208,618,o),
(208,630,cs),
(208,651,o),
(222,665,o),
(247,668,cs),
(272,671,l),
(272,700,l),
(21,700,l),
(21,673,l),
(49,668,o),
(71,649,o),
(95,613,cs),
(314,285,l),
(314,105,ls),
(314,60,o),
(290,35,o),
(243,31,cs),
(220,29,l),
(220,0,l),
(511,0,l),
(511,29,l),
(488,31,ls),
(441,35,o),
(417,60,o),
(417,105,cs),
(417,313,l),
(610,599,ls),
(639,643,o),
(664,665,o),
(695,673,c),
(695,700,l),
(486,700,l),
(486,671,l),
(503,669,ls),
(540,665,o),
(558,650,o),
(558,623,cs),
(558,606,o),
(551,587,o),
(536,566,cs)
);
}
);
width = 716;
}
);
note = Y;
unicode = 89;
},
{
glyphname = Z;
kernLeft = Z;
kernRight = Z;
layers = (
{
hints = (
{
horizontal = 1;
place = (0, 41);
place = (0, 41);
type = Stem;
},
{
horizontal = 1;
place = (659, 41);
place = (659, 41);
type = Stem;
},
{
place = (13, 580);
place = (13, 580);
type = Stem;
}
);
layerId = m01;
shapes = (
{
closed = 1;
nodes = (
(454,640,l),
(420,640,l),
(13,0,l),
(561,0,l),
(593,249,l),
(560,249,l),
(542,184,ls),
(515,85,o),
(464,41,o),
(383,41,cs),
(120,41,l),
(132,60,l),
(165,60,l),
(573,700,l),
(56,700,l),
(44,456,l),
(76,456,l),
(98,535,ls),
(122,622,o),
(166,659,o),
(243,659,cs),
(466,659,l)
);
}
);
width = 610;
}
);
note = Z;
unicode = 90;
},
{
glyphname = bracketleft;
layers = (
{
hints = (
{
horizontal = 1;
place = (-210, 35);
place = (-210, 35);
type = Stem;
},
{
horizontal = 1;
place = (700, 35);
place = (700, 35);
type = Stem;
},
{
place = (75, 68);
place = (75, 68);
type = Stem;
},
{
place = (75, 100);
place = (75, 100);
type = Stem;
}
);
layerId = m01;
shapes = (
{
closed = 1;
nodes = (
(143,-157,l),
(175,-157,l),
(175,682,l),
(143,682,l),
(143,700,l),
(333,700,l),
(333,735,l),
(75,735,l),
(75,-210,l),
(333,-210,l),
(333,-175,l),
(143,-175,l)
);
}
);
width = 363;
}
);
note = bracketleft;
unicode = 91;
},
{
glyphname = backslash;
kernLeft = asterisk;
kernRight = backslash;
layers = (
{
hints = (
{
horizontal = 1;
place = (-231, 931);
place = (-231, 931);
type = Stem;
},
{
place = (17, 435);
place = (17, 435);
type = Stem;
}
);
layerId = m01;
shapes = (
{
closed = 1;
nodes = (
(53,700,l),
(17,700,l),
(416,-231,l),
(452,-231,l)
);
}
);
width = 370;
}
);
note = backslash;
unicode = 92;
},
{
glyphname = bracketright;
layers = (
{
hints = (
{
horizontal = 1;
place = (-210, 35);
place = (-210, 35);
type = Stem;
},
{
horizontal = 1;
place = (700, 35);
place = (700, 35);
type = Stem;
},
{
place = (220, 68);
place = (220, 68);
type = Stem;
},
{
place = (188, 100);
place = (188, 100);
type = Stem;
}
);
layerId = m01;
shapes = (
{
closed = 1;
nodes = (
(220,682,l),
(188,682,l),
(188,-157,l),
(220,-157,l),
(220,-175,l),
(30,-175,l),
(30,-210,l),
(288,-210,l),
(288,735,l),
(30,735,l),
(30,700,l),
(220,700,l)
);
}
);
width = 363;
}
);
note = bracketright;
unicode = 93;
},
{
glyphname = asciicircum;
layers = (
{
hints = (
{
horizontal = 1;
place = (354, 346);
place = (354, 346);
type = Stem;
},
{
place = (39, 492);
place = (39, 492);
type = Stem;
}
);
layerId = m01;
shapes = (
{
closed = 1;
nodes = (
(303,700,l),
(267,700,l),
(39,354,l),
(90,354,l),
(285,646,l),
(480,354,l),
(531,354,l)
);
}
);
width = 570;
}
);
note = asciicircum;
unicode = 94;
},
{
glyphname = underscore;
layers = (
{
hints = (
{
horizontal = 1;
place = (-155, 40);
place = (-155, 40);
type = Stem;
},
{
place = (-1, 448);
place = (-1, 448);
type = Stem;
}
);
layerId = m01;
shapes = (
{
closed = 1;
nodes = (
(447,-115,l),
(-1,-115,l),
(-1,-155,l),
(447,-155,l)
);
}
);
width = 446;
}
);
note = underscore;
unicode = 95;
},
{
glyphname = quoteleft;
kernLeft = quotedbl;
kernRight = quotedbl;
layers = (
{
hints = (
{
horizontal = 1;
place = (451, 88);
place = (451, 88);
type = Stem;
},
{
place = (56, 41);
place = (56, 41);
type = Stem;
},
{
place = (113, 72);
place = (113, 72);
type = Stem;
},
{
horizontal = 1;
place = (451, 116);
place = (451, 116);
type = Stem;
}
);
layerId = m01;
shapes = (
{
closed = 1;
nodes = (
(197,707,l),
(112,678,o),
(56,610,o),
(56,535,cs),
(56,484,o),
(83,451,o),
(124,451,cs),
(159,451,o),
(185,476,o),
(185,511,cs),
(185,542,o),
(161,567,o),
(132,567,cs),
(124,567,o),
(117,566,o),
(113,563,c),
(113,539,l),
(97,539,l),
(97,558,ls),
(97,614,o),
(137,672,o),
(201,701,c)
);
}
);
width = 238;
}
);
note = quoteleft;
unicode = 8216;
},
{
glyphname = a;
kernLeft = a;
kernRight = a;
layers = (
{
hints = (
{
horizontal = 1;
place = (-10, 53);
place = (-10, 53);
type = Stem;
},
{
horizontal = 1;
place = (310, 78);
place = (310, 78);
type = Stem;
},
{
horizontal = 1;
place = (441, 39);
place = (441, 39);
type = Stem;
},
{
place = (34, 91);
place = (34, 91);
type = Stem;
},
{
place = (340, 66);
place = (340, 66);
type = Stem;
},
{
horizontal = 1;
place = (-6, 54);
place = (-6, 54);
type = Stem;
},
{
place = (53, 99);
place = (53, 99);
type = Stem;
},
{
place = (315, 91);
place = (315, 91);
type = Stem;
},
{
place = (53, 67);
place = (53, 67);
type = Stem;
}
);
layerId = m01;
shapes = (
{
closed = 1;
nodes = (
(340,95,l),
(317,59,l),
(318,18,o),
(345,-6,o),
(390,-6,cs),
(429,-6,o),
(473,26,o),
(490,67,c),
(488,68,l),
(472,53,o),
(458,48,o),
(438,48,cs),
(419,48,o),
(406,61,o),
(406,82,cs),
(406,336,ls),
(406,429,o),
(344,480,o),
(231,480,cs),
(133,480,o),
(53,422,o),
(53,362,cs),
(53,333,o),
(75,310,o),
(100,310,cs),
(132,310,o),
(152,330,o),
(152,370,cs),
(152,378,o),
(152,384,o),
(151,388,c),
(120,388,l),
(125,419,o),
(170,441,o),
(222,441,cs),
(278,441,o),
(315,401,o),
(315,338,cs),
(315,292,l),
(161,240,ls),
(66,208,o),
(34,174,o),
(34,109,cs),
(34,34,o),
(84,-10,o),
(167,-10,cs),
(228,-10,o),
(271,18,o),
(330,107,cs),
(340,122,l)
);
},
{
closed = 1;
nodes = (
(125,174,o),
(148,201,o),
(212,224,cs),
(315,260,l),
(315,126,l),
(287,77,o),
(242,43,o),
(201,43,cs),
(156,43,o),
(125,75,o),
(125,122,cs)
);
}
);
width = 501;
}
);
note = a;
unicode = 97;
},
{
glyphname = b;
kernLeft = b;
kernRight = b;
layers = (
{
hints = (
{
horizontal = 1;
place = (-10, 40);
place = (-10, 40);
type = Stem;
},
{
horizontal = 1;
place = (417, 63);
place = (417, 63);
type = Stem;
},
{
place = (79, 92);
place = (79, 92);
type = Stem;
},
{
place = (417, 100);
place = (417, 100);
type = Stem;
},
{
place = (79, 61);
place = (79, 61);
type = Stem;
}
);
layerId = m01;
shapes = (
{
closed = 1;
nodes = (
(421,-10,o),
(517,108,o),
(517,254,cs),
(517,385,o),
(436,480,o),
(323,480,cs),
(260,480,o),
(209,447,o),
(160,372,cs),
(140,342,l),
(140,373,l),
(171,419,l),
(171,725,l),
(-3,683,l),
(33,668,ls),
(69,653,o),
(79,641,o),
(79,614,cs),
(79,-11,l),
(154,25,l),
(189,2,o),
(229,-10,o),
(274,-10,cs)
);
},
{
closed = 1;
nodes = (
(171,348,l),
(196,387,o),
(241,417,o),
(280,417,cs),
(361,417,o),
(417,340,o),
(417,231,cs),
(417,111,o),
(359,30,o),
(272,30,cs),
(239,30,o),
(200,45,o),
(171,68,c)
);
}
);
width = 550;
}
);
note = b;
unicode = 98;
},
{
glyphname = c;
kernLeft = c;
kernRight = c;
layers = (
{
hints = (
{
horizontal = 1;
place = (-10, 63);
place = (-10, 63);
type = Stem;
},
{
horizontal = 1;
place = (311, 74);
place = (311, 74);
type = Stem;
},
{
horizontal = 1;
place = (440, 41);
place = (440, 41);
type = Stem;
},
{
place = (30, 98);
place = (30, 98);
type = Stem;
},
{
place = (343, 80);
place = (343, 80);
type = Stem;
},
{
place = (320, 103);
place = (320, 103);
type = Stem;
}
);
layerId = m01;
shapes = (
{
closed = 1;
nodes = (
(417,135,l),
(378,75,o),
(340,53,o),
(273,53,cs),
(192,53,o),
(128,133,o),
(128,255,cs),
(128,371,o),
(176,440,o),
(255,440,cs),
(304,440,o),
(339,418,o),
(343,385,c),
(322,385,l),
(321,376,o),
(320,369,o),
(320,365,cs),
(320,330,o),
(340,311,o),
(373,311,cs),
(401,311,o),
(423,334,o),
(423,363,cs),
(423,424,o),
(354,481,o),
(259,481,cs),
(130,481,o),
(30,371,o),
(30,228,cs),
(30,83,o),
(125,-10,o),
(250,-10,cs),
(330,-10,o),
(398,47,o),
(419,134,c)
);
}
);
width = 442;
}
);
note = c;
unicode = 99;
},
{
glyphname = d;
kernLeft = c;
kernRight = d;
layers = (
{
hints = (
{
horizontal = 1;
place = (-10, 63);
place = (-10, 63);
type = Stem;
},
{
horizontal = 1;
place = (440, 40);
place = (440, 40);
type = Stem;
},
{
place = (33, 100);
place = (33, 100);
type = Stem;
},
{
place = (379, 92);
place = (379, 92);
type = Stem;
},
{
place = (410, 61);
place = (410, 61);
type = Stem;
}
);
layerId = m01;
shapes = (
{
closed = 1;
nodes = (
(289,-10,o),
(344,28,o),
(393,104,cs),
(410,130,l),
(410,100,l),
(379,52,l),
(379,-6,l),
(554,18,l),
(516,35,ls),
(483,50,o),
(471,65,o),
(471,98,cs),
(471,725,l),
(297,683,l),
(333,668,ls),
(369,653,o),
(379,641,o),
(379,614,cs),
(379,459,l),
(351,473,o),
(317,480,o),
(276,480,cs),
(129,480,o),
(33,362,o),
(33,216,cs),
(33,85,o),
(114,-10,o),
(227,-10,cs)
);
},
{
closed = 1;
nodes = (
(133,359,o),
(191,440,o),
(278,440,cs),
(313,440,o),
(352,422,o),
(379,398,c),
(379,122,l),
(355,83,o),
(309,53,o),
(270,53,cs),
(189,53,o),
(133,130,o),
(133,239,cs)
);
}
);
width = 570;
}
);
note = d;
unicode = 100;
},
{
glyphname = e;
kernLeft = c;
kernRight = e;
layers = (
{
hints = (
{
horizontal = 1;
place = (-10, 62);
place = (-10, 62);
type = Stem;
},
{
horizontal = 1;
place = (266, 35);
place = (266, 35);
type = Stem;
},
{
horizontal = 1;
place = (440, 40);
place = (440, 40);
type = Stem;
},
{
place = (30, 65);
place = (30, 65);
type = Stem;
},
{
place = (340, 98);
place = (340, 98);
type = Stem;
},
{
place = (30, 97);
place = (30, 97);
type = Stem;
},
{
place = (30, 99);
place = (30, 99);
type = Stem;
}
);
layerId = m01;
shapes = (
{
closed = 1;
nodes = (
(95,266,l),
(438,266,l),
(442,393,o),
(364,480,o),
(248,480,cs),
(135,480,o),
(30,375,o),
(30,229,cs),
(30,82,o),
(126,-10,o),
(260,-10,cs),
(344,-10,o),
(412,47,o),
(429,134,c),
(427,135,l),
(396,80,o),
(347,52,o),
(278,52,cs),
(191,52,o),
(129,133,o),
(127,247,c),
(95,247,l)
);
},
{
closed = 1;
nodes = (
(129,301,l),
(138,390,o),
(178,440,o),
(241,440,cs),
(298,440,o),
(340,382,o),
(340,301,c)
);
}
);
width = 473;
}
);
note = e;
unicode = 101;
},
{
glyphname = f;
kernLeft = f;
kernRight = f;
layers = (
{
hints = (
{
horizontal = 1;
place = (0, 27);
place = (0, 27);
type = Stem;
},
{
horizontal = 1;
place = (430, 40);
place = (430, 40);
type = Stem;
},
{
horizontal = 1;
place = (685, 33);
place = (685, 33);
type = Stem;
},
{
place = (94, 92);
place = (94, 92);
type = Stem;
},
{
place = (94, 58);
place = (94, 58);
type = Stem;
},
{
horizontal = 1;
place = (582, 70);
place = (582, 70);
type = Stem;
},
{
place = (338, 78);
place = (338, 78);
type = Stem;
},
{
place = (317, 99);
place = (317, 99);
type = Stem;
}
);
layerId = m01;
shapes = (
{
closed = 1;
nodes = (
(94,430,l),
(94,95,ls),
(94,54,o),
(75,32,o),
(36,28,cs),
(15,26,l),
(15,0,l),
(262,0,l),
(262,26,l),
(239,28,ls),
(204,31,o),
(186,54,o),
(186,95,cs),
(186,411,l),
(152,411,l),
(152,430,l),
(314,430,l),
(314,470,l),
(186,470,l),
(186,571,ls),
(186,644,o),
(221,685,o),
(282,685,cs),
(318,685,o),
(338,673,o),
(338,652,c),
(318,652,l),
(317,649,o),
(317,644,o),
(317,637,cs),
(317,605,o),
(337,582,o),
(368,582,cs),
(396,582,o),
(416,604,o),
(416,633,cs),
(416,681,o),
(360,718,o),
(289,718,cs),
(173,718,o),
(94,630,o),
(94,500,cs),
(94,470,l),
(16,470,l),
(16,430,l)
);
}
);
width = 330;
}
);
note = f;
unicode = 102;
},
{
glyphname = g;
kernLeft = g;
kernRight = g;
layers = (
{
hints = (
{
horizontal = 1;
place = (-242, 40);
place = (-242, 40);
type = Stem;
},
{
horizontal = 1;
place = (-61.49, 93);
place = (-61.49, 93);
type = Stem;
},
{
horizontal = 1;
place = (130, 37);
place = (130, 37);
type = Stem;
},
{
horizontal = 1;
place = (441, 38);
place = (441, 38);
type = Stem;
},
{
place = (-4, 76);
place = (-4, 76);
type = Stem;
},
{
place = (401, 76);
place = (401, 76);
type = Stem;
},
{
horizontal = 1;
place = (481, 37);
place = (481, 37);
type = Stem;
},
{
place = (38, 72);
place = (38, 72);
type = Stem;
},
{
place = (325, 96);
place = (325, 96);
type = Stem;
},
{
place = (36, 96);
place = (36, 96);
type = Stem;
},
{
place = (438, 76);
place = (438, 76);
type = Stem;
},
{
horizontal = 1;
place = (411, 54);
place = (411, 54);
type = Stem;
},
{
place = (423, 91);
place = (423, 91);
type = Stem;
}
);
layerId = m01;
shapes = (
{
closed = 1;
nodes = (
(374,-242,o),
(477,-180,o),
(477,-81,cs),
(477,-12,o),
(430,22,o),
(323,27,cs),
(178,36,ls),
(133,39,o),
(110,52,o),
(110,76,cs),
(110,97,o),
(135,123,o),
(170,136,c),
(188,132,o),
(208,130,o),
(229,130,cs),
(343,130,o),
(421,213,o),
(421,308,cs),
(421,360,o),
(399,406,o),
(359,437,c),
(388,469,o),
(409,481,o),
(438,481,c),
(438,465,l),
(425,465,l),
(424,460,o),
(423,456,o),
(423,453,cs),
(423,430,o),
(443,411,o),
(468,411,cs),
(493,411,o),
(514,432,o),
(514,459,cs),
(514,492,o),
(487,518,o),
(448,518,cs),
(407,518,o),
(369,496,o),
(336,452,c),
(304,470,o),
(268,479,o),
(229,479,cs),
(119,479,o),
(36,402,o),
(36,302,cs),
(36,242,o),
(65,191,o),
(114,160,c),
(143,171,l),
(162,161,l),
(87,134,o),
(38,86,o),
(38,37,cs),
(38,8,o),
(51,-13,o),
(77,-28,c),
(112,-13,l),
(136,-20,l),
(116,-29,ls),
(69,-50,o),
(38,-67,o),
(21,-82,cs),
(4,-97,o),
(-4,-114,o),
(-4,-133,cs),
(-4,-204,o),
(71,-242,o),
(210,-242,cs)
);
},
{
closed = 1;
nodes = (
(72,-94,o),
(91,-70,o),
(130,-49,c),
(141,-52,o),
(154,-54,o),
(169,-55,cs),
(348,-68,ls),
(383,-70,o),
(401,-85,o),
(401,-114,cs),
(401,-169,o),
(338,-202,o),
(231,-202,cs),
(131,-202,o),
(72,-172,o),
(72,-121,cs)
);
},
{
closed = 1;
nodes = (
(132,389,o),
(168,441,o),
(225,441,cs),
(286,441,o),
(325,387,o),
(325,300,cs),
(325,220,o),
(287,167,o),
(230,167,cs),
(170,167,o),
(132,221,o),
(132,308,cs)
);
}
);
width = 485;
}
);
note = g;
unicode = 103;
},
{
glyphname = h;
kernLeft = h;
kernRight = a;
layers = (
{
hints = (
{
horizontal = 1;
place = (0, 27);
place = (0, 27);
type = Stem;
},
{
horizontal = 1;
place = (418, 63);
place = (418, 63);
type = Stem;
},
{
place = (99, 61);
place = (99, 61);
type = Stem;
},
{
place = (394, 92);
place = (394, 92);
type = Stem;
},
{
place = (99, 92);
place = (99, 92);
type = Stem;
}
);
layerId = m01;
shapes = (
{
closed = 1;
nodes = (
(160,348,l),
(160,379,l),
(191,421,l),
(191,725,l),
(17,683,l),
(53,668,ls),
(89,655,o),
(99,642,o),
(99,613,cs),
(99,95,ls),
(99,54,o),
(80,32,o),
(41,28,cs),
(20,26,l),
(20,0,l),
(262,0,l),
(262,26,l),
(244,28,ls),
(209,32,o),
(191,54,o),
(191,95,cs),
(191,354,l),
(222,394,o),
(263,418,o),
(304,418,cs),
(361,418,o),
(394,384,o),
(394,325,cs),
(394,95,ls),
(394,54,o),
(376,32,o),
(341,28,cs),
(323,26,l),
(323,0,l),
(565,0,l),
(565,26,l),
(544,28,ls),
(505,32,o),
(486,54,o),
(486,95,cs),
(486,332,ls),
(486,425,o),
(435,481,o),
(348,481,cs),
(288,481,o),
(228,443,o),
(180,375,cs)
);
}
);
width = 581;
}
);
note = h;
unicode = 104;
},
{
glyphname = i;
kernLeft = i;
kernRight = d;
layers = (
{
hints = (
{
horizontal = 1;
place = (0, 27);
place = (0, 27);
type = Stem;
},
{
horizontal = 1;
place = (575, 99);
place = (575, 99);
type = Stem;
},
{
place = (99, 98);
place = (99, 98);
type = Stem;
},
{
place = (103, 92);
place = (103, 92);
type = Stem;
}
);
layerId = m01;
shapes = (
{
closed = 1;
nodes = (
(99,674,l),
(99,575,l),
(197,575,l),
(197,674,l)
);
},
{
closed = 1;
nodes = (
(21,435,l),
(57,418,ls),
(96,399,o),
(103,391,o),
(103,364,cs),
(103,95,ls),
(103,54,o),
(84,32,o),
(45,28,cs),
(24,26,l),
(24,0,l),
(274,0,l),
(274,26,l),
(253,28,ls),
(214,32,o),
(195,54,o),
(195,95,cs),
(195,480,l)
);
}
);
width = 294;
}
);
note = i;
unicode = 105;
},
{
glyphname = j;
kernLeft = i;
kernRight = j;
layers = (
{
hints = (
{
horizontal = 1;
place = (-236, 30);
place = (-236, 30);
type = Stem;
},
{
horizontal = 1;
place = (585, 99);
place = (585, 99);
type = Stem;
},
{
place = (-76, 91);
place = (-76, 91);
type = Stem;
},
{
place = (91, 98);
place = (91, 98);
type = Stem;
},
{
place = (95, 92);
place = (95, 92);
type = Stem;
},
{
horizontal = 1;
place = (-176, 66);
place = (-176, 66);
type = Stem;
}
);
layerId = m01;
shapes = (
{
closed = 1;
nodes = (
(91,684,l),
(91,585,l),
(189,585,l),
(189,684,l)
);
},
{
closed = 1;
nodes = (
(-76,-201,o),
(-22,-236,o),
(43,-236,cs),
(128,-236,o),
(187,-184,o),
(187,-105,cs),
(187,480,l),
(13,435,l),
(49,418,ls),
(88,399,o),
(95,391,o),
(95,364,cs),
(95,-141,ls),
(95,-184,o),
(77,-206,o),
(42,-206,cs),
(11,-206,o),
(-4,-196,o),
(-4,-176,c),
(15,-176,l),
(19,-133,o),
(1,-110,o),
(-32,-110,cs),
(-56,-110,o),
(-76,-131,o),
(-76,-158,cs)
);
}
);
width = 266;
}
);
note = j;
unicode = 106;
},
{
glyphname = k;
kernLeft = h;
kernRight = k;
layers = (
{
hints = (
{
horizontal = 1;
place = (0, 27);
place = (0, 27);
type = Stem;
},
{
horizontal = 1;
place = (443, 27);
place = (443, 27);
type = Stem;
},
{
place = (99, 92);
place = (99, 92);
type = Stem;
},
{
horizontal = 1;
place = (0, 24);
place = (0, 24);
type = Stem;
},
{
horizontal = 1;
place = (446, 24);
place = (446, 24);
type = Stem;
},
{
place = (99, 65);
place = (99, 65);
type = Stem;
}
);
layerId = m01;
shapes = (
{
closed = 1;
nodes = (
(250,239,l),
(410,0,l),
(555,0,l),
(555,24,l),
(515,33,o),
(489,51,o),
(461,92,cs),
(315,302,l),
(386,371,ls),
(419,404,o),
(474,434,o),
(525,446,c),
(525,470,l),
(318,470,l),
(318,444,l),
(338,442,ls),
(359,440,o),
(369,432,o),
(369,417,cs),
(369,404,o),
(361,390,o),
(344,374,cs),
(164,199,l),
(164,223,l),
(191,251,l),
(191,725,l),
(17,683,l),
(53,668,ls),
(89,653,o),
(99,641,o),
(99,614,cs),
(99,95,ls),
(99,54,o),
(80,32,o),
(41,28,cs),
(20,26,l),
(20,0,l),
(270,0,l),
(270,26,l),
(249,28,ls),
(210,32,o),
(191,54,o),
(191,95,cs),
(191,181,l)
);
}
);
width = 560;
}
);
note = k;
unicode = 107;
},
{
glyphname = l;
kernLeft = h;
kernRight = d;
layers = (
{
hints = (
{
horizontal = 1;
place = (0, 27);
place = (0, 27);
type = Stem;
},
{
place = (99, 92);
place = (99, 92);
type = Stem;
}
);
layerId = m01;
shapes = (
{
closed = 1;
nodes = (
(99,95,ls),
(99,54,o),
(80,32,o),
(41,28,cs),
(20,26,l),
(20,0,l),
(270,0,l),
(270,26,l),
(249,28,ls),
(210,32,o),
(191,54,o),
(191,95,cs),
(191,725,l),
(17,683,l),
(53,668,ls),
(89,653,o),
(99,641,o),
(99,614,cs)
);
}
);
width = 290;
}
);
note = l;
unicode = 108;
},
{
glyphname = m;
kernLeft = m;
kernRight = a;
layers = (
{
hints = (
{
horizontal = 1;
place = (0, 27);
place = (0, 27);
type = Stem;
},
{
horizontal = 1;
place = (418, 63);
place = (418, 63);
type = Stem;
},
{
place = (103, 92);
place = (103, 92);
type = Stem;
},
{
place = (394, 92);
place = (394, 92);
type = Stem;
},
{
place = (685, 92);
place = (685, 92);
type = Stem;
},
{
place = (103, 61);
place = (103, 61);
type = Stem;
},
{
place = (394, 57);
place = (394, 57);
type = Stem;
}
);
layerId = m01;
shapes = (
{
closed = 1;
nodes = (
(24,26,l),
(24,0,l),
(266,0,l),
(266,26,l),
(248,28,ls),
(213,32,o),
(195,54,o),
(195,95,cs),
(195,353,l),
(223,394,o),
(265,418,o),
(306,418,cs),
(362,418,o),
(394,384,o),
(394,325,cs),
(394,95,ls),
(394,54,o),
(376,32,o),
(341,28,cs),
(323,26,l),
(323,0,l),
(565,0,l),
(565,26,l),
(544,28,ls),
(505,32,o),
(486,54,o),
(486,95,cs),
(486,327,ls),
(486,338,o),
(486,344,o),
(485,347,c),
(516,392,o),
(557,418,o),
(597,418,cs),
(653,418,o),
(685,384,o),
(685,325,cs),
(685,95,ls),
(685,54,o),
(667,32,o),
(632,28,cs),
(614,26,l),
(614,0,l),
(856,0,l),
(856,26,l),
(835,28,ls),
(796,32,o),
(777,54,o),
(777,95,cs),
(777,332,ls),
(777,427,o),
(726,481,o),
(641,481,cs),
(578,481,o),
(514,440,o),
(469,371,cs),
(451,344,l),
(451,375,l),
(470,404,l),
(453,453,o),
(409,481,o),
(350,481,cs),
(289,481,o),
(232,443,o),
(181,372,cs),
(164,348,l),
(164,379,l),
(195,422,l),
(195,480,l),
(21,435,l),
(57,418,ls),
(96,399,o),
(103,391,o),
(103,364,cs),
(103,95,ls),
(103,54,o),
(84,32,o),
(45,28,cs)
);
}
);
width = 872;
}
);
note = m;
unicode = 109;
},
{
glyphname = n;
kernLeft = m;
kernRight = a;
layers = (
{
hints = (
{
horizontal = 1;
place = (0, 27);
place = (0, 27);
type = Stem;
},
{
horizontal = 1;
place = (418, 63);
place = (418, 63);
type = Stem;
},
{
place = (103, 92);
place = (103, 92);
type = Stem;
},
{
place = (398, 92);
place = (398, 92);
type = Stem;
},
{
place = (103, 61);
place = (103, 61);
type = Stem;
}
);
layerId = m01;
shapes = (
{
closed = 1;
nodes = (
(103,95,ls),
(103,54,o),
(84,32,o),
(45,28,cs),
(24,26,l),
(24,0,l),
(266,0,l),
(266,26,l),
(248,28,ls),
(213,32,o),
(195,54,o),
(195,95,cs),
(195,354,l),
(226,394,o),
(267,418,o),
(308,418,cs),
(365,418,o),
(398,384,o),
(398,325,cs),
(398,95,ls),
(398,54,o),
(380,32,o),
(345,28,cs),
(327,26,l),
(327,0,l),
(569,0,l),
(569,26,l),
(548,28,ls),
(509,32,o),
(490,54,o),
(490,95,cs),
(490,332,ls),
(490,425,o),
(439,481,o),
(352,481,cs),
(292,481,o),
(232,443,o),
(184,375,cs),
(164,348,l),
(164,379,l),
(195,421,l),
(195,480,l),
(21,435,l),
(57,418,ls),
(96,399,o),
(103,391,o),
(103,364,cs)
);
}
);
width = 585;
}
);
note = n;
unicode = 110;
},
{
glyphname = o;
kernLeft = c;
kernRight = b;
layers = (
{
hints = (
{
horizontal = 1;
place = (-11, 42);
place = (-11, 42);
type = Stem;
},
{
horizontal = 1;
place = (439, 42);
place = (439, 42);
type = Stem;
},
{
place = (30, 100);
place = (30, 100);
type = Stem;
},
{
place = (386, 100);
place = (386, 100);
type = Stem;
}
);
layerId = m01;
shapes = (
{
closed = 1;
nodes = (
(128,481,o),
(30,373,o),
(30,232,cs),
(30,92,o),
(126,-11,o),
(258,-11,cs),
(381,-11,o),
(486,90,o),
(486,238,cs),
(486,378,o),
(390,481,o),
(258,481,cs)
);
},
{
closed = 1;
nodes = (
(130,367,o),
(176,439,o),
(252,439,cs),
(333,439,o),
(386,353,o),
(386,220,cs),
(386,103,o),
(339,31,o),
(262,31,cs),
(182,31,o),
(130,117,o),
(130,250,cs)
);
}
);
width = 516;
}
);
note = o;
unicode = 111;
},
{
glyphname = p;
kernLeft = p;
kernRight = b;
layers = (
{
hints = (
{
horizontal = 1;
place = (-230, 27);
place = (-230, 27);
type = Stem;
},
{
horizontal = 1;
place = (-9, 40);
place = (-9, 40);
type = Stem;
},
{
horizontal = 1;
place = (418, 63);
place = (418, 63);
type = Stem;
},
{
place = (99, 92);
place = (99, 92);
type = Stem;
},
{
place = (437, 100);
place = (437, 100);
type = Stem;
},
{
place = (99, 61);
place = (99, 61);
type = Stem;
}
);
layerId = m01;
shapes = (
{
closed = 1;
nodes = (
(270,-230,l),
(270,-204,l),
(249,-202,ls),
(210,-198,o),
(191,-176,o),
(191,-135,cs),
(191,12,l),
(219,-2,o),
(253,-9,o),
(294,-9,cs),
(441,-9,o),
(537,109,o),
(537,255,cs),
(537,386,o),
(456,481,o),
(343,481,cs),
(282,481,o),
(229,445,o),
(178,369,cs),
(160,342,l),
(160,375,l),
(191,418,l),
(191,480,l),
(17,435,l),
(53,418,ls),
(92,399,o),
(99,391,o),
(99,364,cs),
(99,-135,ls),
(99,-176,o),
(80,-198,o),
(41,-202,cs),
(20,-204,l),
(20,-230,l)
);
},
{
closed = 1;
nodes = (
(191,348,l),
(218,391,o),
(259,418,o),
(300,418,cs),
(381,418,o),
(437,341,o),
(437,232,cs),
(437,112,o),
(379,31,o),
(292,31,cs),
(257,31,o),
(218,49,o),
(191,73,c)
);
}
);
width = 567;
}
);
note = p;
unicode = 112;
},
{
glyphname = q;
kernLeft = c;
kernRight = q;
layers = (
{
hints = (
{
horizontal = 1;
place = (-230, 27);
place = (-230, 27);
type = Stem;
},
{
horizontal = 1;
place = (-10, 63);
place = (-10, 63);
type = Stem;
},
{
horizontal = 1;
place = (440, 40);
place = (440, 40);
type = Stem;
},
{
place = (33, 100);
place = (33, 100);
type = Stem;
},
{
place = (410, 61);
place = (410, 61);
type = Stem;
},
{
place = (379, 92);
place = (379, 92);
type = Stem;
}
);
layerId = m01;
shapes = (
{
closed = 1;
nodes = (
(410,127,l),
(410,96,l),
(379,48,l),
(379,-135,ls),
(379,-176,o),
(360,-198,o),
(321,-202,cs),
(300,-204,l),
(300,-230,l),
(550,-230,l),
(550,-204,l),
(529,-202,ls),
(490,-198,o),
(471,-176,o),
(471,-135,cs),
(471,485,l),
(393,447,l),
(360,469,o),
(321,480,o),
(276,480,cs),
(129,480,o),
(33,362,o),
(33,216,cs),
(33,85,o),
(114,-10,o),
(227,-10,cs),
(288,-10,o),
(343,26,o),
(390,97,cs)
);
},
{
closed = 1;
nodes = (
(133,359,o),
(191,440,o),
(278,440,cs),
(311,440,o),
(350,425,o),
(379,402,c),
(379,123,l),
(355,83,o),
(309,53,o),
(270,53,cs),
(189,53,o),
(133,130,o),
(133,239,cs)
);
}
);
width = 550;
}
);
note = q;
unicode = 113;
},
{
glyphname = r;
kernLeft = m;
kernRight = r;
layers = (
{
hints = (
{
horizontal = 1;
place = (0, 27);
place = (0, 27);
type = Stem;
},
{
horizontal = 1;
place = (442, 41);
place = (442, 41);
type = Stem;
},
{
place = (103, 92);
place = (103, 92);
type = Stem;
},
{
place = (333, 88);
place = (333, 88);
type = Stem;
},
{
horizontal = 1;
place = (350, 75);
place = (350, 75);
type = Stem;
},
{
place = (310, 111);
place = (310, 111);
type = Stem;
},
{
place = (103, 67);
place = (103, 67);
type = Stem;
}
);
layerId = m01;
shapes = (
{
closed = 1;
nodes = (
(103,95,ls),
(103,54,o),
(84,32,o),
(45,28,cs),
(24,26,l),
(24,0,l),
(274,0,l),
(274,26,l),
(250,28,ls),
(213,31,o),
(195,53,o),
(195,95,cs),
(195,315,l),
(216,380,o),
(276,445,o),
(333,442,c),
(333,425,l),
(319,425,l),
(315,422,o),
(310,412,o),
(310,404,cs),
(310,373,o),
(337,350,o),
(365,350,cs),
(396,350,o),
(421,374,o),
(421,411,cs),
(421,450,o),
(390,483,o),
(341,483,cs),
(274,483,o),
(206,414,o),
(170,313,c),
(170,355,l),
(177,370,o),
(187,393,o),
(195,406,c),
(195,480,l),
(21,435,l),
(57,418,ls),
(96,399,o),
(103,391,o),
(103,364,cs)
);
}
);
width = 433;
}
);
note = r;
unicode = 114;
},
{
glyphname = s;
kernLeft = s;
kernRight = s;
layers = (
{
hints = (
{
horizontal = 1;
place = (-8, 43);
place = (-8, 43);
type = Stem;
},
{
horizontal = 1;
place = (437, 41);
place = (437, 41);
type = Stem;
},
{
place = (38, 76);
place = (38, 76);
type = Stem;
},
{
place = (322, 36);
place = (322, 36);
type = Stem;
},
{
place = (31.5, 40.5);
place = (31.5, 40.5);
type = Stem;
},
{
place = (306, 77);
place = (306, 77);
type = Stem;
}
);
layerId = m01;
shapes = (
{
closed = 1;
nodes = (
(237,437,o),
(282,402,o),
(310,339,cs),
(325,306,l),
(359,306,l),
(357,483,l),
(292,458,l),
(303,450,o),
(313,441,o),
(322,430,c),
(322,401,l),
(283,452,o),
(240,478,o),
(181,478,cs),
(98,478,o),
(38,423,o),
(38,339,cs),
(38,282,o),
(73,239,o),
(137,215,cs),
(237,177,ls),
(282,160,o),
(306,138,o),
(306,106,cs),
(306,62,o),
(272,35,o),
(217,35,cs),
(158,35,o),
(113,69,o),
(82,132,cs),
(64,169,l),
(30,169,l),
(33,-14,l),
(99,18,l),
(91,25,o),
(82,34,o),
(72,45,c),
(72,73,l),
(115,20,o),
(161,-8,o),
(224,-8,cs),
(315,-8,o),
(383,54,o),
(383,137,cs),
(383,192,o),
(351,231,o),
(288,256,cs),
(172,302,ls),
(133,318,o),
(114,342,o),
(114,373,cs),
(114,412,o),
(143,437,o),
(184,437,cs)
);
}
);
width = 409;
}
);
note = s;
unicode = 115;
},
{
glyphname = t;
kernLeft = t;
kernRight = t;
layers = (
{
hints = (
{
horizontal = 1;
place = (-8, 65);
place = (-8, 65);
type = Stem;
},
{
horizontal = 1;
place = (430, 40);
place = (430, 40);
type = Stem;
},
{
place = (82, 92);
place = (82, 92);
type = Stem;
},
{
place = (82, 58);
place = (82, 58);
type = Stem;
}
);
layerId = m01;
shapes = (
{
closed = 1;
nodes = (
(174,411,l),
(140,411,l),
(140,430,l),
(306,430,l),
(306,470,l),
(174,470,l),
(174,637,l),
(137,558,o),
(62,471,o),
(-1,430,c),
(82,430,l),
(82,91,ls),
(82,32,o),
(124,-8,o),
(181,-8,cs),
(250,-8,o),
(293,35,o),
(311,121,c),
(308,122,l),
(289,78,o),
(263,57,o),
(226,57,cs),
(195,57,o),
(174,76,o),
(174,107,cs)
);
}
);
width = 328;
}
);
note = t;
unicode = 116;
},
{
glyphname = u;
kernLeft = u;
kernRight = a;
layers = (
{
hints = (
{
horizontal = 1;
place = (-10, 63);
place = (-10, 63);
type = Stem;
},
{
place = (95, 92);
place = (95, 92);
type = Stem;
},
{
place = (390, 92);
place = (390, 92);
type = Stem;
},
{
place = (421, 61);
place = (421, 61);
type = Stem;
}
);
layerId = m01;
shapes = (
{
closed = 1;
nodes = (
(187,480,l),
(13,435,l),
(49,418,ls),
(88,399,o),
(95,391,o),
(95,364,cs),
(95,139,ls),
(95,47,o),
(145,-10,o),
(233,-10,cs),
(296,-10,o),
(353,26,o),
(402,97,cs),
(421,124,l),
(421,93,l),
(390,50,l),
(390,-6,l),
(565,18,l),
(527,35,ls),
(494,50,o),
(482,65,o),
(482,98,cs),
(482,480,l),
(308,435,l),
(344,418,ls),
(383,399,o),
(390,391,o),
(390,364,cs),
(390,118,l),
(365,81,o),
(324,53,o),
(277,53,cs),
(217,53,o),
(187,90,o),
(187,146,cs)
);
}
);
width = 581;
}
);
note = u;
unicode = 117;
},
{
glyphname = v;
kernLeft = v;
kernRight = v;
layers = (
{
hints = (
{
horizontal = 1;
place = (443, 27);
place = (443, 27);
type = Stem;
},
{
place = (418, 125);
place = (418, 125);
type = Stem;
},
{
horizontal = 1;
place = (445, 25);
place = (445, 25);
type = Stem;
},
{
place = (354, 189);
place = (354, 189);
type = Stem;
}
);
layerId = m01;
shapes = (
{
closed = 1;
nodes = (
(284,89,l),
(274,110,l),
(289,142,l),
(184,377,ls),
(180,387,o),
(178,396,o),
(178,403,cs),
(178,425,o),
(192,438,o),
(220,442,cs),
(235,444,l),
(235,470,l),
(7,470,l),
(7,445,l),
(43,437,o),
(64,419,o),
(84,376,cs),
(273,-29,l),
(275,-29,l),
(463,368,ls),
(483,411,o),
(510,436,o),
(543,445,c),
(543,470,l),
(354,470,l),
(354,444,l),
(369,442,ls),
(402,437,o),
(418,422,o),
(418,395,cs),
(418,382,o),
(414,367,o),
(406,349,cs)
);
}
);
width = 548;
}
);
note = v;
unicode = 118;
},
{
glyphname = w;
kernLeft = v;
kernRight = v;
layers = (
{
hints = (
{
horizontal = 1;
place = (442, 28);
place = (442, 28);
type = Stem;
},
{
place = (10, 761);
place = (10, 761);
type = Stem;
},
{
horizontal = 1;
place = (445, 25);
place = (445, 25);
type = Stem;
},
{
place = (585, 186);
place = (585, 186);
type = Stem;
},
{
place = (649, 122);
place = (649, 122);
type = Stem;
}
);
layerId = m01;
shapes = (
{
closed = 1;
nodes = (
(262,119,l),
(277,154,l),
(186,376,ls),
(182,386,o),
(180,395,o),
(180,403,cs),
(180,424,o),
(192,437,o),
(216,441,cs),
(232,443,l),
(232,470,l),
(10,470,l),
(10,445,l),
(49,436,o),
(70,418,o),
(87,375,cs),
(260,-28,l),
(262,-28,l),
(391,274,l),
(521,-28,l),
(523,-28,l),
(691,368,ls),
(708,408,o),
(736,436,o),
(771,445,c),
(771,470,l),
(585,470,l),
(585,443,l),
(601,441,ls),
(633,437,o),
(649,422,o),
(649,396,cs),
(649,384,o),
(645,368,o),
(637,349,cs),
(532,100,l),
(521,122,l),
(536,157,l),
(447,376,ls),
(443,386,o),
(441,395,o),
(441,403,cs),
(441,423,o),
(454,437,o),
(478,441,cs),
(493,443,l),
(493,470,l),
(282,470,l),
(282,445,l),
(313,438,o),
(330,420,o),
(349,375,cs),
(370,328,l),
(273,96,l)
);
}
);
width = 782;
}
);
note = w;
unicode = 119;
},
{
glyphname = x;
kernLeft = x;
kernRight = k;
layers = (
{
hints = (
{
horizontal = 1;
place = (0, 27);
place = (0, 27);
type = Stem;
},
{
horizontal = 1;
place = (442, 28);
place = (442, 28);
type = Stem;
},
{
place = (12, 508);
place = (12, 508);
type = Stem;
},
{
horizontal = 1;
place = (443, 27);
place = (443, 27);
type = Stem;
},
{
place = (12, 184);
place = (12, 184);
type = Stem;
},
{
place = (12, 132);
place = (12, 132);
type = Stem;
},
{
place = (334, 175);
place = (334, 175);
type = Stem;
}
);
layerId = m01;
shapes = (
{
closed = 1;
nodes = (
(270,310,l),
(209,385,ls),
(201,395,o),
(197,405,o),
(197,414,cs),
(197,429,o),
(207,440,o),
(226,441,cs),
(241,443,l),
(241,470,l),
(24,470,l),
(24,443,l),
(59,431,o),
(76,417,o),
(109,373,cs),
(224,223,l),
(112,95,ls),
(68,46,o),
(49,31,o),
(12,27,c),
(12,0,l),
(196,0,l),
(196,27,l),
(178,28,ls),
(155,29,o),
(144,39,o),
(144,54,cs),
(144,65,o),
(149,77,o),
(160,88,cs),
(272,216,l),
(285,201,l),
(262,174,l),
(328,84,ls),
(335,75,o),
(338,66,o),
(338,57,cs),
(338,41,o),
(325,29,o),
(301,28,cs),
(284,27,l),
(284,0,l),
(520,0,l),
(520,27,l),
(483,32,o),
(468,45,o),
(431,96,cs),
(307,264,l),
(410,373,ls),
(457,422,o),
(473,435,o),
(509,443,c),
(509,470,l),
(334,470,l),
(334,443,l),
(352,441,ls),
(372,440,o),
(383,428,o),
(383,415,cs),
(383,404,o),
(377,392,o),
(366,381,cs),
(259,270,l),
(246,284,l)
);
}
);
width = 531;
}
);
note = x;
unicode = 120;
},
{
glyphname = y;
kernLeft = v;
kernRight = v;
layers = (
{
hints = (
{
horizontal = 1;
place = (-233, 39);
place = (-233, 39);
type = Stem;
},
{
horizontal = 1;
place = (443, 27);
place = (443, 27);
type = Stem;
},
{
place = (-13, 80);
place = (-13, 80);
type = Stem;
},
{
place = (347, 189);
place = (347, 189);
type = Stem;
},
{
horizontal = 1;
place = (-179, 69);
place = (-179, 69);
type = Stem;
},
{
place = (-13, 100);
place = (-13, 100);
type = Stem;
},
{
horizontal = 1;
place = (445, 25);
place = (445, 25);
type = Stem;
},
{
place = (412, 124);
place = (412, 124);
type = Stem;
}
);
layerId = m01;
shapes = (
{
closed = 1;
nodes = (
(236,6,l),
(201,-67,ls),
(158,-158,o),
(124,-194,o),
(80,-194,cs),
(67,-194,l),
(67,-179,l),
(79,-179,l),
(83,-178,o),
(87,-167,o),
(87,-159,cs),
(87,-132,o),
(64,-110,o),
(37,-110,cs),
(8,-110,o),
(-13,-132,o),
(-13,-163,cs),
(-13,-204,o),
(21,-233,o),
(68,-233,cs),
(133,-233,o),
(183,-195,o),
(222,-115,cs),
(456,368,ls),
(477,411,o),
(503,436,o),
(536,445,c),
(536,470,l),
(347,470,l),
(347,444,l),
(362,442,ls),
(395,437,o),
(412,421,o),
(412,395,cs),
(412,382,o),
(408,366,o),
(399,349,cs),
(272,82,l),
(261,103,l),
(276,136,l),
(182,377,ls),
(179,384,o),
(177,393,o),
(177,403,cs),
(177,425,o),
(191,438,o),
(218,442,cs),
(233,444,l),
(233,470,l),
(5,470,l),
(5,445,l),
(44,436,o),
(65,417,o),
(82,376,cs)
);
}
);
width = 541;
}
);
note = y;
unicode = 121;
},
{
glyphname = z;
kernLeft = z;
kernRight = z;
layers = (
{
hints = (
{
horizontal = 1;
place = (0, 38);
place = (0, 38);
type = Stem;
},
{
horizontal = 1;
place = (432, 38);
place = (432, 38);
type = Stem;
},
{
place = (39, 27);
place = (39, 27);
type = Stem;
}
);
layerId = m01;
shapes = (
{
closed = 1;
nodes = (
(326,414,l),
(296,414,l),
(15,0,l),
(419,0,l),
(439,189,l),
(408,189,l),
(397,149,ls),
(376,74,o),
(331,38,o),
(256,38,cs),
(118,38,l),
(130,56,l),
(160,56,l),
(441,470,l),
(42,470,l),
(36,286,l),
(66,286,l),
(81,338,ls),
(100,403,o),
(141,432,o),
(214,432,cs),
(338,432,l)
);
}
);
width = 459;
}
);
note = z;
unicode = 122;
},
{
glyphname = braceleft;
layers = (
{
hints = (
{
horizontal = 1;
place = (-216, 23);
place = (-216, 23);
type = Stem;
},
{
horizontal = 1;
place = (261, 12);
place = (261, 12);
type = Stem;
},
{
horizontal = 1;
place = (727, 23);
place = (727, 23);
type = Stem;
},
{
place = (172, 100);
place = (172, 100);
type = Stem;
},
{
place = (123, 101);
place = (123, 101);
type = Stem;
},
{
place = (172, 99);
place = (172, 99);
type = Stem;
}
);
layerId = m01;
shapes = (
{
closed = 1;
nodes = (
(30,261,l),
(187,266,o),
(272,334,o),
(272,430,cs),
(272,454,o),
(267,477,o),
(258,500,cs),
(248,525,ls),
(232,566,o),
(224,601,o),
(224,629,cs),
(224,693,o),
(267,724,o),
(358,727,c),
(355,750,l),
(206,750,o),
(123,693,o),
(123,589,cs),
(123,556,o),
(131,520,o),
(146,483,cs),
(154,463,ls),
(166,432,o),
(172,406,o),
(172,386,cs),
(172,329,o),
(130,293,o),
(30,273,c)
);
},
{
closed = 1;
nodes = (
(87,248,l),
(147,223,o),
(172,192,o),
(172,149,cs),
(172,128,o),
(166,102,o),
(154,71,cs),
(146,51,ls),
(131,14,o),
(123,-22,o),
(123,-55,cs),
(123,-159,o),
(206,-216,o),
(355,-216,c),
(358,-193,l),
(267,-190,o),
(224,-159,o),
(224,-95,cs),
(224,-67,o),
(232,-32,o),
(248,9,cs),
(255,27,ls),
(266,54,o),
(271,81,o),
(271,106,cs),
(271,175,o),
(229,229,o),
(140,256,c)
);
}
);
width = 383;
}
);
note = braceleft;
unicode = 123;
},
{
glyphname = bar;
layers = (
{
hints = (
{
horizontal = 1;
place = (-231, 931);
place = (-231, 931);
type = Stem;
},
{
place = (162, 46);
place = (162, 46);
type = Stem;
}
);
layerId = m01;
shapes = (
{
closed = 1;
nodes = (
(208,-231,l),
(208,700,l),
(162,700,l),
(162,-231,l)
);
}
);
width = 370;
}
);
note = bar;
unicode = 124;
},
{
glyphname = braceright;
layers = (
{
hints = (
{
horizontal = 1;
place = (-216, 23);
place = (-216, 23);
type = Stem;
},
{
horizontal = 1;
place = (261, 12);
place = (261, 12);
type = Stem;
},
{
horizontal = 1;
place = (727, 23);
place = (727, 23);
type = Stem;
},
{
place = (111, 100);
place = (111, 100);
type = Stem;
},
{
place = (159, 101);
place = (159, 101);
type = Stem;
},
{
place = (112, 99);
place = (112, 99);
type = Stem;
}
);
layerId = m01;
shapes = (
{
closed = 1;
nodes = (
(353,273,l),
(196,268,o),
(111,200,o),
(111,104,cs),
(111,80,o),
(116,57,o),
(125,34,cs),
(135,9,ls),
(151,-32,o),
(159,-67,o),
(159,-95,cs),
(159,-159,o),
(116,-190,o),
(25,-193,c),
(28,-216,l),
(177,-216,o),
(260,-159,o),
(260,-55,cs),
(260,-22,o),
(252,14,o),
(237,51,cs),
(229,71,ls),
(217,102,o),
(211,128,o),
(211,148,cs),
(211,205,o),
(253,241,o),
(353,261,c)
);
},
{
closed = 1;
nodes = (
(25,727,l),
(116,724,o),
(159,693,o),
(159,629,cs),
(159,601,o),
(151,566,o),
(135,525,cs),
(128,507,ls),
(117,480,o),
(112,453,o),
(112,428,cs),
(112,359,o),
(154,305,o),
(243,278,c),
(296,286,l),
(236,311,o),
(211,342,o),
(211,385,cs),
(211,406,o),
(217,432,o),
(229,463,cs),
(237,483,ls),
(252,520,o),
(260,556,o),
(260,589,cs),
(260,693,o),
(177,750,o),
(28,750,c)
);
}
);
width = 383;
}
);
note = braceright;
unicode = 125;
},
{
glyphname = asciitilde;
layers = (
{
hints = (
{
horizontal = 1;
place = (245, 80);
place = (245, 80);
type = Stem;
},
{
place = (30, 490);
place = (30, 490);
type = Stem;
},
{
horizontal = 1;
place = (310, 80);
place = (310, 80);
type = Stem;
}
);
layerId = m01;
shapes = (
{
closed = 1;
nodes = (
(516,389,l),
(483,340,o),
(459,325,o),
(424,325,cs),
(396,325,o),
(364,334,o),
(307,354,cs),
(236,378,o),
(197,390,o),
(154,390,cs),
(97,390,o),
(61,346,o),
(30,245,c),
(34,245,l),
(67,294,o),
(91,310,o),
(126,310,cs),
(158,310,o),
(194,299,o),
(254,279,cs),
(318,256,o),
(357,245,o),
(396,245,cs),
(453,245,o),
(489,289,o),
(520,389,c)
);
}
);
width = 550;
}
);
note = asciitilde;
unicode = 126;
},
{
glyphname = exclamdown;
layers = (
{
hints = (
{
horizontal = 1;
place = (587, 113);
place = (587, 113);
type = Stem;
},
{
place = (64, 112);
place = (64, 112);
type = Stem;
}
);
layerId = m01;
shapes = (
{
closed = 1;
nodes = (
(64,587,l),
(176,587,l),
(176,700,l),
(64,700,l)
);
},
{
closed = 1;
nodes = (
(67,59,ls),
(62,18,o),
(88,-12,o),
(120,-12,cs),
(152,-12,o),
(178,18,o),
(173,59,cs),
(121,513,l),
(119,513,l)
);
}
);
width = 240;
}
);
note = exclamdown;
unicode = 161;
},
{
glyphname = cent;
layers = (
{
hints = (
{
horizontal = 1;
place = (-10, 63);
place = (-10, 63);
type = Stem;
},
{
horizontal = 1;
place = (311, 74);
place = (311, 74);
type = Stem;
},
{
horizontal = 1;
place = (440, 41);
place = (440, 41);
type = Stem;
},
{
place = (30, 98);
place = (30, 98);
type = Stem;
},
{
place = (320, 103);
place = (320, 103);
type = Stem;
},
{
place = (343, 80);
place = (343, 80);
type = Stem;
}
);
layerId = m01;
shapes = (
{
closed = 1;
nodes = (
(101,-100,l),
(139,-100,l),
(306,430,l),
(327,421,o),
(342,405,o),
(343,385,c),
(322,385,l),
(321,376,o),
(320,369,o),
(320,365,cs),
(320,330,o),
(340,311,o),
(373,311,cs),
(401,311,o),
(423,334,o),
(423,363,cs),
(423,412,o),
(382,454,o),
(319,473,c),
(347,560,l),
(311,560,l),
(285,479,l),
(274,480,o),
(266,481,o),
(259,481,cs),
(130,481,o),
(30,371,o),
(30,228,cs),
(30,135,o),
(71,59,o),
(139,19,c)
);
},
{
closed = 1;
nodes = (
(128,371,o),
(176,440,o),
(255,440,cs),
(263,440,o),
(269,440,o),
(273,439,c),
(169,111,l),
(142,149,o),
(128,197,o),
(128,255,cs)
);
},
{
closed = 1;
nodes = (
(191,-2,l),
(207,-7,o),
(227,-10,o),
(250,-10,cs),
(330,-10,o),
(398,47,o),
(419,134,c),
(417,135,l),
(380,76,o),
(337,53,o),
(277,53,cs),
(254,53,o),
(233,58,o),
(214,68,c)
);
}
);
width = 442;
}
);
note = cent;
unicode = 162;
},
{
glyphname = sterling;
layers = (
{
hints = (
{
horizontal = 1;
place = (-11, 34);
place = (-11, 34);
type = Stem;
},
{
horizontal = 1;
place = (112, 33);
place = (112, 33);
type = Stem;
},
{
horizontal = 1;
place = (344, 42);
place = (344, 42);
type = Stem;
},
{
horizontal = 1;
place = (668, 37);
place = (668, 37);
type = Stem;
},
{
place = (25, 33);
place = (25, 33);
type = Stem;
},
{
place = (212, 76);
place = (212, 76);
type = Stem;
},
{
place = (389, 110);
place = (389, 110);
type = Stem;
},
{
horizontal = 1;
place = (-11, 92);
place = (-11, 92);
type = Stem;
},
{
horizontal = 1;
place = (523, 79);
place = (523, 79);
type = Stem;
},
{
place = (123, 99);
place = (123, 99);
type = Stem;
},
{
place = (418, 81);
place = (418, 81);
type = Stem;
}
);
layerId = m01;
shapes = (
{
closed = 1;
nodes = (
(212,318,l),
(173,318,l),
(198,239,ls),
(207,206,o),
(212,176,o),
(212,150,cs),
(212,141,o),
(212,134,o),
(211,129,c),
(178,140,o),
(148,145,o),
(122,145,cs),
(65,145,o),
(25,112,o),
(25,65,cs),
(25,20,o),
(60,-11,o),
(109,-11,cs),
(154,-11,o),
(198,13,o),
(230,52,c),
(290,11,o),
(327,-11,o),
(371,-11,cs),
(447,-11,o),
(498,52,o),
(517,164,c),
(511,165,l),
(490,112,o),
(448,81,o),
(395,81,cs),
(368,81,o),
(333,88,o),
(289,103,c),
(286,94,o),
(281,86,o),
(276,77,c),
(254,89,l),
(277,131,o),
(288,177,o),
(288,228,cs),
(288,258,o),
(284,286,o),
(277,311,cs),
(268,344,l),
(414,344,l),
(414,386,l),
(257,386,l),
(233,474,ls),
(226,499,o),
(222,524,o),
(222,549,cs),
(222,624,o),
(262,668,o),
(331,668,cs),
(380,668,o),
(418,639,o),
(418,602,c),
(390,602,l),
(389,599,o),
(389,594,o),
(389,587,cs),
(389,548,o),
(412,523,o),
(447,523,cs),
(476,523,o),
(499,549,o),
(499,584,cs),
(499,650,o),
(431,705,o),
(331,705,cs),
(206,705,o),
(123,633,o),
(123,518,cs),
(123,488,o),
(128,457,o),
(139,425,cs),
(152,386,l),
(48,386,l),
(48,344,l),
(203,344,l)
);
},
{
closed = 1;
nodes = (
(58,92,o),
(80,112,o),
(109,112,cs),
(134,112,o),
(161,99,o),
(196,76,c),
(179,43,o),
(148,23,o),
(111,23,cs),
(79,23,o),
(58,40,o),
(58,67,cs)
);
}
);
width = 540;
}
);
note = sterling;
unicode = 163;
},
{
glyphname = fraction;
layers = (
{
hints = (
{
horizontal = 1;
place = (0, 700);
place = (0, 700);
type = Stem;
},
{
place = (39, 496);
place = (39, 496);
type = Stem;
}
);
layerId = m01;
shapes = (
{
closed = 1;
nodes = (
(85,0,l),
(535,700,l),
(489,700,l),
(39,0,l)
);
}
);
width = 574;
}
);
note = fraction;
unicode = 8260;
},
{
glyphname = yen;
layers = (
{
hints = (
{
horizontal = 1;
place = (0, 30);
place = (0, 30);
type = Stem;
},
{
horizontal = 1;
place = (178, 42);
place = (178, 42);
type = Stem;
},
{
horizontal = 1;
place = (669.5, 30.5);
place = (669.5, 30.5);
type = Stem;
},
{
place = (314, 103);
place = (314, 103);
type = Stem;
},
{
horizontal = 1;
place = (246, 42);
place = (246, 42);
type = Stem;
},
{
horizontal = 1;
place = (673, 27);
place = (673, 27);
type = Stem;
},
{
place = (558, 137);
place = (558, 137);
type = Stem;
},
{
horizontal = 1;
place = (670, 30);
place = (670, 30);
type = Stem;
},
{
place = (486, 209);
place = (486, 209);
type = Stem;
},
{
place = (354, 63);
place = (354, 63);
type = Stem;
},
{
horizontal = 1;
place = (0, 152);
place = (0, 152);
type = Stem;
}
);
layerId = m01;
shapes = (
{
closed = 1;
nodes = (
(511,0,l),
(511,29,l),
(488,31,ls),
(441,35,o),
(417,60,o),
(417,105,cs),
(417,178,l),
(584,178,l),
(584,220,l),
(417,220,l),
(417,246,l),
(584,246,l),
(584,288,l),
(417,288,l),
(417,311,l),
(610,599,ls),
(639,643,o),
(664,665,o),
(695,673,c),
(695,700,l),
(486,700,l),
(486,671,l),
(503,669,ls),
(540,665,o),
(558,650,o),
(558,623,cs),
(558,606,o),
(551,587,o),
(536,566,cs),
(387,340,l),
(223,588,ls),
(213,604,o),
(208,618,o),
(208,630,cs),
(208,651,o),
(222,665,o),
(247,668,cs),
(272,671,l),
(272,700,l),
(21,700,l),
(21,673,l),
(49,668,o),
(71,649,o),
(95,613,cs),
(313,288,l),
(147,288,l),
(147,246,l),
(314,246,l),
(314,220,l),
(147,220,l),
(147,178,l),
(354,178,l),
(354,152,l),
(314,152,l),
(314,105,ls),
(314,60,o),
(290,35,o),
(243,31,cs),
(220,29,l),
(220,0,l)
);
}
);
width = 716;
}
);
note = yen;
unicode = 165;
},
{
glyphname = quotesingle;
kernLeft = quotedbl;
kernRight = quotedbl;
layers = (
{
hints = (
{
horizontal = 1;
place = (452, 259);
place = (452, 259);
type = Stem;
},
{
place = (65, 110);
place = (65, 110);
type = Stem;
}
);
layerId = m01;
shapes = (
{
closed = 1;
nodes = (
(120,452,l),
(171,621,ls),
(174,629,o),
(175,638,o),
(175,648,cs),
(175,684,o),
(153,711,o),
(121,711,cs),
(88,711,o),
(65,684,o),
(65,648,cs),
(65,638,o),
(66,629,o),
(69,621,cs)
);
}
);
width = 240;
}
);
note = quotesingle;
unicode = 39;
},
{
glyphname = quotedblleft;
kernLeft = quotedbl;
kernRight = quotedbl;
layers = (
{
hints = (
{
horizontal = 1;
place = (451, 88);
place = (451, 88);
type = Stem;
},
{
place = (56, 41);
place = (56, 41);
type = Stem;
},
{
place = (214, 41);
place = (214, 41);
type = Stem;
},
{
place = (113, 72);
place = (113, 72);
type = Stem;
},
{
horizontal = 1;
place = (451, 116);
place = (451, 116);
type = Stem;
},
{
place = (271, 72);
place = (271, 72);
type = Stem;
}
);
layerId = m01;
shapes = (
{
closed = 1;
nodes = (
(197,707,l),
(112,678,o),
(56,610,o),
(56,535,cs),
(56,484,o),
(83,451,o),
(124,451,cs),
(159,451,o),
(185,476,o),
(185,511,cs),
(185,542,o),
(161,567,o),
(132,567,cs),
(124,567,o),
(117,566,o),
(113,563,c),
(113,539,l),
(97,539,l),
(97,558,ls),
(97,614,o),
(137,672,o),
(201,701,c)
);
},
{
closed = 1;
nodes = (
(214,484,o),
(241,451,o),
(282,451,cs),
(317,451,o),
(343,476,o),
(343,511,cs),
(343,542,o),
(319,567,o),
(290,567,cs),
(282,567,o),
(275,566,o),
(271,563,c),
(271,539,l),
(255,539,l),
(255,558,ls),
(255,614,o),
(295,672,o),
(359,701,c),
(355,707,l),
(270,678,o),
(214,610,o),
(214,535,cs)
);
}
);
width = 396;
}
);
note = quotedblleft;
unicode = 8220;
},
{
glyphname = guillemotleft;
layers = (
{
hints = (
{
horizontal = 1;
place = (-10, 490);
place = (-10, 490);
type = Stem;
},
{
place = (60, 446);
place = (60, 446);
type = Stem;
}
);
layerId = m01;
shapes = (
{
closed = 1;
nodes = (
(306,-10,l),
(306,-4,l),
(174,235,l),
(306,474,l),
(306,480,l),
(60,235,l)
);
},
{
closed = 1;
nodes = (
(260,235,l),
(506,-10,l),
(506,-4,l),
(374,235,l),
(506,474,l),
(506,480,l)
);
}
);
width = 580;
}
);
note = guillemotleft;
unicode = 171;
},
{
glyphname = guilsinglleft;
layers = (
{
hints = (
{
horizontal = 1;
place = (-10, 490);
place = (-10, 490);
type = Stem;
},
{
place = (60, 246);
place = (60, 246);
type = Stem;
}
);
layerId = m01;
shapes = (
{
closed = 1;
nodes = (
(306,-10,l),
(306,-4,l),
(174,235,l),
(306,474,l),
(306,480,l),
(60,235,l)
);
}
);
width = 380;
}
);
note = guilsinglleft;
unicode = 8249;
},
{
glyphname = guilsinglright;
layers = (
{
hints = (
{
horizontal = 1;
place = (-10, 490);
place = (-10, 490);
type = Stem;
},
{
place = (74, 246);
place = (74, 246);
type = Stem;
}
);
layerId = m01;
shapes = (
{
closed = 1;
nodes = (
(74,480,l),
(74,474,l),
(206,235,l),
(74,-4,l),
(74,-10,l),
(320,235,l)
);
}
);
width = 380;
}
);
note = guilsinglright;
unicode = 8250;
},
{
glyphname = fi;
kernLeft = f;
kernRight = d;
layers = (
{
hints = (
{
horizontal = 1;
place = (0, 27);
place = (0, 27);
type = Stem;
},
{
horizontal = 1;
place = (430, 40);
place = (430, 40);
type = Stem;
},
{
horizontal = 1;
place = (685, 33);
place = (685, 33);
type = Stem;
},
{
place = (94, 92);
place = (94, 92);
type = Stem;
},
{
place = (433, 92);
place = (433, 92);
type = Stem;
},
{
place = (94, 58);
place = (94, 58);
type = Stem;
},
{
horizontal = 1;
place = (582, 70);
place = (582, 70);
type = Stem;
},
{
place = (338, 78);
place = (338, 78);
type = Stem;
},
{
place = (317, 99);
place = (317, 99);
type = Stem;
},
{
horizontal = 1;
place = (575, 99);
place = (575, 99);
type = Stem;
},
{
place = (429, 98);
place = (429, 98);
type = Stem;
}
);
layerId = m01;
shapes = (
{
closed = 1;
nodes = (
(94,430,l),
(94,95,ls),
(94,54,o),
(75,32,o),
(36,28,cs),
(15,26,l),
(15,0,l),
(262,0,l),
(262,26,l),
(239,28,ls),
(204,31,o),
(186,54,o),
(186,95,cs),
(186,411,l),
(152,411,l),
(152,430,l),
(314,430,l),
(314,470,l),
(186,470,l),
(186,571,ls),
(186,644,o),
(221,685,o),
(282,685,cs),
(318,685,o),
(338,673,o),
(338,652,c),
(318,652,l),
(317,649,o),
(317,644,o),
(317,637,cs),
(317,605,o),
(337,582,o),
(368,582,cs),
(396,582,o),
(416,604,o),
(416,633,cs),
(416,681,o),
(360,718,o),
(289,718,cs),
(173,718,o),
(94,630,o),
(94,500,cs),
(94,470,l),
(16,470,l),
(16,430,l)
);
},
{
closed = 1;
nodes = (
(351,435,l),
(387,418,ls),
(426,399,o),
(433,391,o),
(433,364,cs),
(433,95,ls),
(433,54,o),
(414,32,o),
(375,28,cs),
(354,26,l),
(354,0,l),
(604,0,l),
(604,26,l),
(583,28,ls),
(544,32,o),
(525,54,o),
(525,95,cs),
(525,480,l)
);
},
{
closed = 1;
nodes = (
(429,575,l),
(527,575,l),
(527,674,l),
(429,674,l)
);
}
);
width = 624;
}
);
note = fi;
unicode = 64257;
},
{
glyphname = fl;
kernLeft = f;
kernRight = d;
layers = (
{
hints = (
{
horizontal = 1;
place = (0, 27);
place = (0, 27);
type = Stem;
},
{
horizontal = 1;
place = (430, 40);
place = (430, 40);
type = Stem;
},
{
horizontal = 1;
place = (685, 33);
place = (685, 33);
type = Stem;
},
{
place = (94, 92);
place = (94, 92);
type = Stem;
},
{
place = (429, 92);
place = (429, 92);
type = Stem;
},
{
place = (94, 58);
place = (94, 58);
type = Stem;
},
{
horizontal = 1;
place = (582, 70);
place = (582, 70);
type = Stem;
},
{
place = (338, 78);
place = (338, 78);
type = Stem;
},
{
place = (317, 99);
place = (317, 99);
type = Stem;
}
);
layerId = m01;
shapes = (
{
closed = 1;
nodes = (
(94,430,l),
(94,95,ls),
(94,54,o),
(75,32,o),
(36,28,cs),
(15,26,l),
(15,0,l),
(262,0,l),
(262,26,l),
(239,28,ls),
(204,31,o),
(186,54,o),
(186,95,cs),
(186,411,l),
(152,411,l),
(152,430,l),
(314,430,l),
(314,470,l),
(186,470,l),
(186,571,ls),
(186,644,o),
(221,685,o),
(282,685,cs),
(318,685,o),
(338,673,o),
(338,652,c),
(318,652,l),
(317,649,o),
(317,644,o),
(317,637,cs),
(317,605,o),
(337,582,o),
(368,582,cs),
(396,582,o),
(416,604,o),
(416,633,cs),
(416,640,o),
(415,646,o),
(413,652,c),
(425,643,o),
(429,631,o),
(429,614,cs),
(429,95,ls),
(429,54,o),
(410,32,o),
(371,28,cs),
(350,26,l),
(350,0,l),
(600,0,l),
(600,26,l),
(579,28,ls),
(540,32,o),
(521,54,o),
(521,95,cs),
(521,725,l),
(382,691,l),
(357,709,o),
(326,718,o),
(289,718,cs),
(173,718,o),
(94,630,o),
(94,500,cs),
(94,470,l),
(16,470,l),
(16,430,l)
);
}
);
width = 620;
}
);
note = fl;
unicode = 64258;
},
{
glyphname = endash;
kernLeft = plus;
kernRight = plus;
layers = (
{
hints = (
{
horizontal = 1;
place = (295, 40);
place = (295, 40);
type = Stem;
},
{
place = (35, 448);
place = (35, 448);
type = Stem;
}
);
layerId = m01;
shapes = (
{
closed = 1;
nodes = (
(483,335,l),
(35,335,l),
(35,295,l),
(483,295,l)
);
}
);
width = 518;
}
);
note = endash;
unicode = 8211;
},
{
glyphname = dagger;
layers = (
{
hints = (
{
horizontal = 1;
place = (477, 20);
place = (477, 20);
type = Stem;
},
{
place = (272, 26);
place = (272, 26);
type = Stem;
},
{
place = (72, 180);
place = (72, 180);
type = Stem;
},
{
place = (318, 180);
place = (318, 180);
type = Stem;
}
);
layerId = m01;
shapes = (
{
closed = 1;
nodes = (
(314,368,o),
(298,431,o),
(298,474,cs),
(298,500,ls),
(298,540,o),
(303,570,o),
(314,611,cs),
(319,636,o),
(322,652,o),
(322,658,cs),
(322,685,o),
(308,700,o),
(285,700,cs),
(262,700,o),
(248,685,o),
(248,658,cs),
(248,652,o),
(251,636,o),
(256,611,cs),
(267,570,o),
(272,540,o),
(272,500,cs),
(272,474,ls),
(272,431,o),
(256,368,o),
(233,320,c),
(257,185,o),
(273,2,o),
(282,-231,c),
(288,-231,l),
(297,2,o),
(313,185,o),
(337,320,c)
);
},
{
closed = 1;
nodes = (
(72,464,o),
(87,450,o),
(114,450,cs),
(122,450,o),
(137,453,o),
(160,459,cs),
(195,469,o),
(226,475,o),
(252,477,c),
(253,484,o),
(253,490,o),
(252,497,c),
(226,499,o),
(195,505,o),
(160,515,cs),
(137,521,o),
(122,524,o),
(114,524,cs),
(87,524,o),
(72,510,o),
(72,487,cs)
);
},
{
closed = 1;
nodes = (
(344,475,o),
(375,469,o),
(410,459,cs),
(433,453,o),
(448,450,o),
(456,450,cs),
(483,450,o),
(498,464,o),
(498,487,cs),
(498,510,o),
(483,524,o),
(456,524,cs),
(448,524,o),
(433,521,o),
(410,515,cs),
(375,505,o),
(344,499,o),
(318,497,c),
(317,490,o),
(317,484,o),
(318,477,c)
);
}
);
width = 570;
}
);
note = dagger;
unicode = 8224;
},
{
glyphname = daggerdbl;
layers = (
{
hints = (
{
horizontal = 1;
place = (-28, 20);
place = (-28, 20);
type = Stem;
},
{
horizontal = 1;
place = (477, 20);
place = (477, 20);
type = Stem;
},
{
place = (272, 26);
place = (272, 26);
type = Stem;
},
{
place = (72, 180);
place = (72, 180);
type = Stem;
},
{
place = (318, 180);
place = (318, 180);
type = Stem;
}
);
layerId = m01;
shapes = (
{
closed = 1;
nodes = (
(298,236,ls),
(298,289,o),
(316,333,o),
(347,365,c),
(319,392,o),
(298,434,o),
(298,474,cs),
(298,500,ls),
(298,540,o),
(303,570,o),
(314,611,cs),
(319,636,o),
(322,652,o),
(322,658,cs),
(322,685,o),
(308,700,o),
(285,700,cs),
(262,700,o),
(248,685,o),
(248,658,cs),
(248,652,o),
(251,636,o),
(256,611,cs),
(267,570,o),
(272,540,o),
(272,500,cs),
(272,474,ls),
(272,434,o),
(251,392,o),
(223,365,c),
(254,333,o),
(272,289,o),
(272,236,cs),
(272,233,ls),
(272,180,o),
(254,136,o),
(223,104,c),
(251,77,o),
(272,35,o),
(272,-5,cs),
(272,-31,ls),
(272,-71,o),
(267,-101,o),
(256,-142,cs),
(251,-167,o),
(248,-183,o),
(248,-189,cs),
(248,-216,o),
(262,-231,o),
(285,-231,cs),
(308,-231,o),
(322,-216,o),
(322,-189,cs),
(322,-183,o),
(319,-167,o),
(314,-142,cs),
(303,-101,o),
(298,-71,o),
(298,-31,cs),
(298,-5,ls),
(298,35,o),
(319,77,o),
(347,104,c),
(316,136,o),
(298,180,o),
(298,233,cs)
);
},
{
closed = 1;
nodes = (
(72,-41,o),
(87,-55,o),
(114,-55,cs),
(122,-55,o),
(137,-52,o),
(160,-46,cs),
(195,-36,o),
(226,-30,o),
(252,-28,c),
(253,-21,o),
(253,-15,o),
(252,-8,c),
(226,-6,o),
(195,0,o),
(160,10,cs),
(137,16,o),
(122,19,o),
(114,19,cs),
(87,19,o),
(72,5,o),
(72,-18,cs)
);
},
{
closed = 1;
nodes = (
(72,464,o),
(87,450,o),
(114,450,cs),
(122,450,o),
(137,453,o),
(160,459,cs),
(195,469,o),
(226,475,o),
(252,477,c),
(253,484,o),
(253,490,o),
(252,497,c),
(226,499,o),
(195,505,o),
(160,515,cs),
(137,521,o),
(122,524,o),
(114,524,cs),
(87,524,o),
(72,510,o),
(72,487,cs)
);
},
{
closed = 1;
nodes = (
(344,-30,o),
(375,-36,o),
(410,-46,cs),
(433,-52,o),
(448,-55,o),
(456,-55,cs),
(483,-55,o),
(498,-41,o),
(498,-18,cs),
(498,5,o),
(483,19,o),
(456,19,cs),
(448,19,o),
(433,16,o),
(410,10,cs),
(375,0,o),
(344,-6,o),
(318,-8,c),
(317,-15,o),
(317,-21,o),
(318,-28,c)
);
},
{
closed = 1;
nodes = (
(344,475,o),
(375,469,o),
(410,459,cs),
(433,453,o),
(448,450,o),
(456,450,cs),
(483,450,o),
(498,464,o),
(498,487,cs),
(498,510,o),
(483,524,o),
(456,524,cs),
(448,524,o),
(433,521,o),
(410,515,cs),
(375,505,o),
(344,499,o),
(318,497,c),
(317,490,o),
(317,484,o),
(318,477,c)
);
}
);
width = 570;
}
);
note = daggerdbl;
unicode = 8225;
},
{
glyphname = periodcentered;
layers = (
{
hints = (
{
horizontal = 1;
place = (294, 113);
place = (294, 113);
type = Stem;
},
{
place = (64, 112);
place = (64, 112);
type = Stem;
}
);
layerId = m01;
shapes = (
{
closed = 1;
nodes = (
(176,407,l),
(64,407,l),
(64,294,l),
(176,294,l)
);
}
);
width = 240;
}
);
note = periodcentered;
unicode = 183;
},
{
glyphname = paragraph;
layers = (
{
hints = (
{
horizontal = 1;
place = (659, 41);
place = (659, 41);
type = Stem;
},
{
place = (292, 61);
place = (292, 61);
type = Stem;
},
{
place = (432, 61);
place = (432, 61);
type = Stem;
},
{
horizontal = 1;
place = (670, 30);
place = (670, 30);
type = Stem;
}
);
layerId = m01;
shapes = (
{
closed = 1;
nodes = (
(310,659,l),
(432,659,l),
(432,-250,l),
(493,-250,l),
(493,595,ls),
(493,640,o),
(517,665,o),
(564,669,cs),
(587,671,l),
(587,700,l),
(293,700,ls),
(123,700,o),
(20,609,o),
(20,467,cs),
(20,321,o),
(126,223,o),
(292,223,c),
(292,-250,l),
(353,-250,l),
(353,624,l),
(310,624,l)
);
}
);
width = 617;
}
);
note = paragraph;
unicode = 182;
},
{
glyphname = bullet;
layers = (
{
hints = (
{
horizontal = 1;
place = (274, 152);
place = (274, 152);
type = Stem;
},
{
place = (64, 151);
place = (64, 151);
type = Stem;
}
);
layerId = m01;
shapes = (
{
closed = 1;
nodes = (
(215,426,l),
(64,426,l),
(64,274,l),
(215,274,l)
);
}
);
width = 279;
}
);
note = bullet;
unicode = 8226;
},
{
glyphname = quotesinglbase;
kernLeft = comma;
kernRight = comma;
layers = (
{
hints = (
{
horizontal = 1;
place = (27, 88);
place = (27, 88);
type = Stem;
},
{
place = (141, 41);
place = (141, 41);
type = Stem;
},
{
place = (53, 72);
place = (53, 72);
type = Stem;
},
{
horizontal = 1;
place = (-1, 116);
place = (-1, 116);
type = Stem;
}
);
layerId = m01;
shapes = (
{
closed = 1;
nodes = (
(41,-141,l),
(126,-112,o),
(182,-44,o),
(182,31,cs),
(182,82,o),
(155,115,o),
(114,115,cs),
(79,115,o),
(53,90,o),
(53,55,cs),
(53,24,o),
(77,-1,o),
(106,-1,cs),
(114,-1,o),
(121,0,o),
(125,3,c),
(125,27,l),
(141,27,l),
(141,8,ls),
(141,-48,o),
(101,-106,o),
(37,-135,c)
);
}
);
width = 238;
}
);
note = quotesinglbase;
unicode = 8218;
},
{
glyphname = quotedblbase;
kernLeft = comma;
kernRight = comma;
layers = (
{
hints = (
{
horizontal = 1;
place = (27, 88);
place = (27, 88);
type = Stem;
},
{
place = (141, 41);
place = (141, 41);
type = Stem;
},
{
place = (299, 41);
place = (299, 41);
type = Stem;
},
{
place = (211, 72);
place = (211, 72);
type = Stem;
},
{
horizontal = 1;
place = (-1, 116);
place = (-1, 116);
type = Stem;
},
{
place = (53, 72);
place = (53, 72);
type = Stem;
}
);
layerId = m01;
shapes = (
{
closed = 1;
nodes = (
(199,-141,l),
(284,-112,o),
(340,-44,o),
(340,31,cs),
(340,82,o),
(313,115,o),
(272,115,cs),
(237,115,o),
(211,90,o),
(211,55,cs),
(211,24,o),
(235,-1,o),
(264,-1,cs),
(272,-1,o),
(279,0,o),
(283,3,c),
(283,27,l),
(299,27,l),
(299,8,ls),
(299,-48,o),
(259,-106,o),
(195,-135,c)
);
},
{
closed = 1;
nodes = (
(41,-141,l),
(126,-112,o),
(182,-44,o),
(182,31,cs),
(182,82,o),
(155,115,o),
(114,115,cs),
(79,115,o),
(53,90,o),
(53,55,cs),
(53,24,o),
(77,-1,o),
(106,-1,cs),
(114,-1,o),
(121,0,o),
(125,3,c),
(125,27,l),
(141,27,l),
(141,8,ls),
(141,-48,o),
(101,-106,o),
(37,-135,c)
);
}
);
width = 396;
}
);
note = quotedblbase;
unicode = 8222;
},
{
glyphname = quotedblright;
kernLeft = quotedbl;
kernRight = quotedbl;
layers = (
{
hints = (
{
horizontal = 1;
place = (623, 88);
place = (623, 88);
type = Stem;
},
{
place = (141, 41);
place = (141, 41);
type = Stem;
},
{
place = (299, 41);
place = (299, 41);
type = Stem;
},
{
place = (211, 72);
place = (211, 72);
type = Stem;
},
{
horizontal = 1;
place = (595, 116);
place = (595, 116);
type = Stem;
},
{
place = (53, 72);
place = (53, 72);
type = Stem;
}
);
layerId = m01;
shapes = (
{
closed = 1;
nodes = (
(199,455,l),
(284,484,o),
(340,552,o),
(340,627,cs),
(340,678,o),
(313,711,o),
(272,711,cs),
(237,711,o),
(211,686,o),
(211,651,cs),
(211,620,o),
(235,595,o),
(264,595,cs),
(272,595,o),
(279,596,o),
(283,599,c),
(283,623,l),
(299,623,l),
(299,604,ls),
(299,548,o),
(259,490,o),
(195,461,c)
);
},
{
closed = 1;
nodes = (
(41,455,l),
(126,484,o),
(182,552,o),
(182,627,cs),
(182,678,o),
(155,711,o),
(114,711,cs),
(79,711,o),
(53,686,o),
(53,651,cs),
(53,620,o),
(77,595,o),
(106,595,cs),
(114,595,o),
(121,596,o),
(125,599,c),
(125,623,l),
(141,623,l),
(141,604,ls),
(141,548,o),
(101,490,o),
(37,461,c)
);
}
);
width = 396;
}
);
note = quotedblright;
unicode = 8221;
},
{
glyphname = guillemotright;
layers = (
{
hints = (
{
horizontal = 1;
place = (-10, 490);
place = (-10, 490);
type = Stem;
},
{
place = (74, 446);
place = (74, 446);
type = Stem;
}
);
layerId = m01;
shapes = (
{
closed = 1;
nodes = (
(274,480,l),
(274,474,l),
(406,235,l),
(274,-4,l),
(274,-10,l),
(520,235,l)
);
},
{
closed = 1;
nodes = (
(74,-10,l),
(320,235,l),
(74,480,l),
(74,474,l),
(206,235,l),
(74,-4,l)
);
}
);
width = 580;
}
);
note = guillemotright;
unicode = 187;
},
{
glyphname = ellipsis;
kernLeft = comma;
kernRight = comma;
layers = (
{
hints = (
{
horizontal = 1;
place = (0, 113);
place = (0, 113);
type = Stem;
},
{
place = (64, 112);
place = (64, 112);
type = Stem;
},
{
place = (304, 112);
place = (304, 112);
type = Stem;
},
{
place = (544, 112);
place = (544, 112);
type = Stem;
}
);
layerId = m01;
shapes = (
{
closed = 1;
nodes = (
(176,113,l),
(64,113,l),
(64,0,l),
(176,0,l)
);
},
{
closed = 1;
nodes = (
(304,0,l),
(416,0,l),
(416,113,l),
(304,113,l)
);
},
{
closed = 1;
nodes = (
(544,0,l),
(656,0,l),
(656,113,l),
(544,113,l)
);
}
);
width = 720;
}
);
note = ellipsis;
unicode = 8230;
},
{
glyphname = questiondown;
layers = (
{
hints = (
{
horizontal = 1;
place = (-10, 38);
place = (-10, 38);
type = Stem;
},
{
horizontal = 1;
place = (109, 72);
place = (109, 72);
type = Stem;
},
{
horizontal = 1;
place = (587, 113);
place = (587, 113);
type = Stem;
},
{
place = (19, 93);
place = (19, 93);
type = Stem;
},
{
place = (184, 112);
place = (184, 112);
type = Stem;
},
{
place = (352, 74);
place = (352, 74);
type = Stem;
},
{
place = (330, 96);
place = (330, 96);
type = Stem;
},
{
place = (235, 44);
place = (235, 44);
type = Stem;
}
);
layerId = m01;
shapes = (
{
closed = 1;
nodes = (
(184,587,l),
(296,587,l),
(296,700,l),
(184,700,l)
);
},
{
closed = 1;
nodes = (
(19,65,o),
(107,-10,o),
(237,-10,cs),
(338,-10,o),
(426,52,o),
(426,127,cs),
(426,156,o),
(404,181,o),
(377,181,cs),
(348,181,o),
(330,159,o),
(330,127,cs),
(330,123,o),
(331,117,o),
(332,109,c),
(352,109,l),
(349,58,o),
(308,28,o),
(243,28,cs),
(167,28,o),
(112,81,o),
(112,153,cs),
(112,206,o),
(134,252,o),
(178,290,cs),
(231,336,ls),
(264,365,o),
(279,393,o),
(279,426,cs),
(279,466,o),
(252,492,o),
(213,493,c),
(228,484,o),
(235,470,o),
(235,450,cs),
(235,425,o),
(222,398,o),
(198,382,cs),
(128,331,ls),
(51,275,o),
(19,224,o),
(19,157,cs)
);
}
);
width = 430;
}
);
note = questiondown;
unicode = 191;
},
{
glyphname = grave;
layers = (
{
hints = (
{
horizontal = 1;
place = (535, 185);
place = (535, 185);
type = Stem;
},
{
place = (116, 209);
place = (116, 209);
type = Stem;
}
);
layerId = m01;
shapes = (
{
closed = 1;
nodes = (
(321,535,l),
(325,535,l),
(232,671,ls),
(207,707,o),
(191,720,o),
(164,720,cs),
(135,720,o),
(116,700,o),
(116,676,cs),
(116,657,o),
(128,639,o),
(148,628,cs)
);
}
);
width = 500;
}
);
note = grave;
unicode = 96;
},
{
glyphname = acute;
layers = (
{
hints = (
{
horizontal = 1;
place = (535, 185);
place = (535, 185);
type = Stem;
},
{
place = (175, 209);
place = (175, 209);
type = Stem;
}
);
layerId = m01;
shapes = (
{
closed = 1;
nodes = (
(179,535,l),
(175,535,l),
(268,671,ls),
(293,707,o),
(309,720,o),
(336,720,cs),
(365,720,o),
(384,700,o),
(384,676,cs),
(384,657,o),
(372,639,o),
(352,628,cs)
);
}
);
width = 500;
}
);
note = acute;
unicode = 180;
},
{
glyphname = circumflex;
layers = (
{
hints = (
{
horizontal = 1;
place = (643, 42);
place = (643, 42);
type = Stem;
},
{
place = (91, 318);
place = (91, 318);
type = Stem;
}
);
layerId = m01;
shapes = (
{
closed = 1;
nodes = (
(91,535,l),
(95,535,l),
(261,643,l),
(297,643,l),
(247,608,l),
(405,535,l),
(409,535,l),
(305,685,l),
(195,685,l)
);
}
);
width = 500;
}
);
note = circumflex;
unicode = 710;
},
{
glyphname = tilde;
layers = (
{
hints = (
{
horizontal = 1;
place = (550, 80);
place = (550, 80);
type = Stem;
},
{
place = (69, 362);
place = (69, 362);
type = Stem;
},
{
horizontal = 1;
place = (615, 80);
place = (615, 80);
type = Stem;
}
);
layerId = m01;
shapes = (
{
closed = 1;
nodes = (
(427,694,l),
(399,647,o),
(374,630,o),
(349,630,cs),
(329,630,o),
(306,641,o),
(271,661,cs),
(232,684,o),
(207,695,o),
(183,695,cs),
(134,695,o),
(100,651,o),
(69,550,c),
(73,550,l),
(101,598,o),
(126,615,o),
(151,615,cs),
(172,615,o),
(194,604,o),
(233,583,cs),
(272,562,o),
(294,550,o),
(317,550,cs),
(366,550,o),
(400,593,o),
(431,694,c)
);
}
);
width = 500;
}
);
note = tilde;
unicode = 732;
},
{
glyphname = macron;
layers = (
{
hints = (
{
horizontal = 1;
place = (590, 60);
place = (590, 60);
type = Stem;
},
{
place = (97, 306);
place = (97, 306);
type = Stem;
}
);
layerId = m01;
shapes = (
{
closed = 1;
nodes = (
(403,650,l),
(97,650,l),
(97,590,l),
(403,590,l)
);
}
);
width = 500;
}
);
note = macron;
unicode = 175;
},
{
glyphname = breve;
layers = (
{
hints = (
{
horizontal = 1;
place = (545, 82);
place = (545, 82);
type = Stem;
},
{
place = (115, 270);
place = (115, 270);
type = Stem;
}
);
layerId = m01;
shapes = (
{
closed = 1;
nodes = (
(115,700,l),
(111,607,o),
(172,545,o),
(250,545,cs),
(328,545,o),
(389,607,o),
(385,700,c),
(381,700,l),
(365,657,o),
(318,627,o),
(250,627,cs),
(182,627,o),
(135,657,o),
(119,700,c)
);
}
);
width = 500;
}
);
note = breve;
unicode = 728;
},
{
glyphname = dotaccent;
layers = (
{
hints = (
{
horizontal = 1;
place = (575, 99);
place = (575, 99);
type = Stem;
},
{
place = (201, 98);
place = (201, 98);
type = Stem;
}
);
layerId = m01;
shapes = (
{
closed = 1;
nodes = (
(201,674,l),
(201,575,l),
(299,575,l),
(299,674,l)
);
}
);
width = 500;
}
);
note = dotaccent;
unicode = 729;
},
{
glyphname = dieresis;
layers = (
{
hints = (
{
horizontal = 1;
place = (575, 99);
place = (575, 99);
type = Stem;
},
{
place = (104, 98);
place = (104, 98);
type = Stem;
},
{
place = (298, 98);
place = (298, 98);
type = Stem;
}
);
layerId = m01;
shapes = (
{
closed = 1;
nodes = (
(104,674,l),
(104,575,l),
(202,575,l),
(202,674,l)
);
},
{
closed = 1;
nodes = (
(298,575,l),
(396,575,l),
(396,674,l),
(298,674,l)
);
}
);
width = 500;
}
);
note = dieresis;
unicode = 168;
},
{
glyphname = ring;
layers = (
{
hints = (
{
horizontal = 1;
place = (523, 35);
place = (523, 35);
type = Stem;
},
{
horizontal = 1;
place = (674, 36);
place = (674, 36);
type = Stem;
},
{
place = (151, 40);
place = (151, 40);
type = Stem;
},
{
place = (309, 40);
place = (309, 40);
type = Stem;
}
);
layerId = m01;
shapes = (
{
closed = 1;
nodes = (
(194,710,o),
(151,670,o),
(151,615,cs),
(151,564,o),
(194,523,o),
(250,523,cs),
(306,523,o),
(349,564,o),
(349,615,cs),
(349,670,o),
(306,710,o),
(250,710,cs)
);
},
{
closed = 1;
nodes = (
(191,650,o),
(213,674,o),
(250,674,cs),
(287,674,o),
(309,650,o),
(309,615,cs),
(309,583,o),
(286,558,o),
(250,558,cs),
(214,558,o),
(191,583,o),
(191,615,cs)
);
}
);
width = 500;
}
);
note = ring;
unicode = 730;
},
{
glyphname = cedilla;
layers = (
{
hints = (
{
horizontal = 1;
place = (-205, 19);
place = (-205, 19);
type = Stem;
},
{
place = (297, 75);
place = (297, 75);
type = Stem;
}
);
layerId = m01;
shapes = (
{
closed = 1;
nodes = (
(204,-185,l),
(204,-189,l),
(222,-200,o),
(243,-205,o),
(268,-205,cs),
(328,-205,o),
(372,-174,o),
(372,-131,cs),
(372,-104,o),
(359,-80,o),
(308,-51,cs),
(301,-47,l),
(284,-76,l),
(265,-65,l),
(313,18,l),
(280,18,l),
(220,-80,l),
(268,-109,ls),
(287,-121,o),
(297,-134,o),
(297,-148,cs),
(297,-171,o),
(270,-186,o),
(222,-186,cs)
);
}
);
width = 500;
}
);
note = cedilla;
unicode = 184;
},
{
glyphname = hungarumlaut;
layers = (
{
hints = (
{
horizontal = 1;
place = (535, 185);
place = (535, 185);
type = Stem;
},
{
place = (110, 348);
place = (110, 348);
type = Stem;
}
);
layerId = m01;
shapes = (
{
closed = 1;
nodes = (
(110,535,l),
(114,535,l),
(268,637,ls),
(287,649,o),
(298,667,o),
(298,683,cs),
(298,704,o),
(282,720,o),
(255,720,cs),
(228,720,o),
(210,706,o),
(189,670,cs)
);
},
{
closed = 1;
nodes = (
(270,535,l),
(274,535,l),
(428,637,ls),
(447,649,o),
(458,667,o),
(458,683,cs),
(458,704,o),
(442,720,o),
(415,720,cs),
(388,720,o),
(370,706,o),
(349,670,cs)
);
}
);
width = 500;
}
);
note = hungarumlaut;
unicode = 733;
},
{
glyphname = ogonek;
layers = (
{
hints = (
{
horizontal = 1;
place = (-211, 42);
place = (-211, 42);
type = Stem;
},
{
place = (152, 62);
place = (152, 62);
type = Stem;
}
);
layerId = m01;
shapes = (
{
closed = 1;
nodes = (
(320,-151,l),
(301,-163,o),
(288,-169,o),
(268,-169,cs),
(235,-169,o),
(214,-150,o),
(214,-121,cs),
(214,-84,o),
(245,-38,o),
(308,-6,cs),
(320,0,l),
(300,6,l),
(289,2,ls),
(204,-29,o),
(152,-87,o),
(152,-139,cs),
(152,-182,o),
(183,-211,o),
(232,-211,cs),
(272,-211,o),
(307,-191,o),
(323,-154,c)
);
}
);
width = 500;
}
);
note = ogonek;
unicode = 731;
},
{
glyphname = caron;
layers = (
{
hints = (
{
horizontal = 1;
place = (545, 42);
place = (545, 42);
type = Stem;
},
{
place = (91, 318);
place = (91, 318);
type = Stem;
}
);
layerId = m01;
shapes = (
{
closed = 1;
nodes = (
(409,695,l),
(405,695,l),
(239,587,l),
(203,587,l),
(253,622,l),
(95,695,l),
(91,695,l),
(195,545,l),
(305,545,l)
);
}
);
width = 500;
}
);
note = caron;
unicode = 711;
},
{
glyphname = emdash;
kernLeft = plus;
kernRight = plus;
layers = (
{
hints = (
{
horizontal = 1;
place = (295, 40);
place = (295, 40);
type = Stem;
},
{
place = (35, 598);
place = (35, 598);
type = Stem;
}
);
layerId = m01;
shapes = (
{
closed = 1;
nodes = (
(633,335,l),
(35,335,l),
(35,295,l),
(633,295,l)
);
}
);
width = 668;
}
);
note = emdash;
unicode = 8212;
},
{
glyphname = AE;
kernRight = E;
layers = (
{
hints = (
{
horizontal = 1;
place = (0, 41);
place = (0, 41);
type = Stem;
},
{
horizontal = 1;
place = (236, 35);
place = (236, 35);
type = Stem;
},
{
horizontal = 1;
place = (340, 35);
place = (340, 35);
type = Stem;
},
{
horizontal = 1;
place = (659, 41);
place = (659, 41);
type = Stem;
},
{
place = (518, 106);
place = (518, 106);
type = Stem;
},
{
place = (824, 33);
place = (824, 33);
type = Stem;
},
{
horizontal = 1;
place = (0, 30);
place = (0, 30);
type = Stem;
},
{
place = (518, 70);
place = (518, 70);
type = Stem;
},
{
horizontal = 1;
place = (670, 30);
place = (670, 30);
type = Stem;
},
{
horizontal = 1;
place = (642, 58);
place = (642, 58);
type = Stem;
}
);
layerId = m01;
shapes = (
{
closed = 1;
nodes = (
(170,159,ls),
(126,94,o),
(91,61,o),
(61,46,cs),
(46,39,o),
(27,32,o),
(6,27,c),
(6,0,l),
(234,0,l),
(234,29,l),
(217,31,ls),
(190,34,o),
(176,46,o),
(176,67,cs),
(176,83,o),
(185,105,o),
(202,132,cs),
(268,236,l),
(518,236,l),
(518,105,ls),
(518,60,o),
(494,35,o),
(447,31,cs),
(424,29,l),
(424,0,l),
(991,0,l),
(1023,249,l),
(990,249,l),
(972,184,ls),
(945,85,o),
(894,41,o),
(813,41,cs),
(588,41,l),
(588,61,l),
(624,61,l),
(624,340,l),
(729,340,ls),
(780,340,o),
(803,319,o),
(816,260,cs),
(824,226,l),
(857,226,l),
(857,490,l),
(824,490,l),
(816,456,ls),
(803,396,o),
(780,375,o),
(729,375,cs),
(624,375,l),
(624,659,l),
(806,659,ls),
(883,659,o),
(927,622,o),
(951,535,cs),
(973,456,l),
(1005,456,l),
(993,700,l),
(424,700,l),
(424,671,l),
(444,669,ls),
(466,667,o),
(477,658,o),
(477,642,cs),
(477,632,o),
(473,620,o),
(464,607,cs)
);
},
{
closed = 1;
nodes = (
(290,271,l),
(526,642,l),
(552,642,l),
(518,589,l),
(518,271,l)
);
}
);
width = 1095;
}
);
note = AE;
unicode = 198;
},
{
glyphname = Lslash;
layers = (
{
hints = (
{
horizontal = 1;
place = (0, 41);
place = (0, 41);
type = Stem;
},
{
horizontal = 1;
place = (670, 30);
place = (670, 30);
type = Stem;
},
{
place = (114, 106);
place = (114, 106);
type = Stem;
},
{
place = (159, 61);
place = (159, 61);
type = Stem;
},
{
horizontal = 1;
place = (0, 30);
place = (0, 30);
type = Stem;
},
{
place = (114, 70);
place = (114, 70);
type = Stem;
}
);
layerId = m01;
shapes = (
{
closed = 1;
nodes = (
(6,247,l),
(159,350,l),
(159,324,l),
(114,294,l),
(114,105,ls),
(114,60,o),
(90,35,o),
(43,31,cs),
(20,29,l),
(20,0,l),
(587,0,l),
(619,249,l),
(586,249,l),
(569,188,ls),
(541,87,o),
(490,41,o),
(409,41,cs),
(184,41,l),
(184,61,l),
(220,61,l),
(220,390,l),
(350,478,l),
(350,523,l),
(220,435,l),
(220,595,ls),
(220,640,o),
(244,665,o),
(291,669,cs),
(314,671,l),
(314,700,l),
(20,700,l),
(20,671,l),
(43,669,ls),
(90,665,o),
(114,640,o),
(114,595,cs),
(114,365,l),
(6,292,l)
);
}
);
width = 645;
}
);
note = Lslash;
unicode = 321;
},
{
glyphname = Oslash;
kernLeft = C;
kernRight = D;
layers = (
{
hints = (
{
horizontal = 1;
place = (-11, 43);
place = (-11, 43);
type = Stem;
},
{
horizontal = 1;
place = (670, 42);
place = (670, 42);
type = Stem;
},
{
place = (32, 114);
place = (32, 114);
type = Stem;
},
{
place = (582, 118);
place = (582, 118);
type = Stem;
}
);
layerId = m01;
shapes = (
{
closed = 1;
nodes = (
(137,148,l),
(-9,0,l),
(50,0,l),
(133,85,l),
(193,24,o),
(276,-11,o),
(364,-11,cs),
(487,-11,o),
(595,57,o),
(655,169,cs),
(685,224,o),
(700,286,o),
(700,354,cs),
(700,432,o),
(680,502,o),
(641,563,c),
(607,529,l),
(595,553,l),
(740,700,l),
(681,700,l),
(599,616,l),
(539,677,o),
(456,712,o),
(368,712,cs),
(245,712,o),
(137,644,o),
(77,533,cs),
(47,477,o),
(32,415,o),
(32,347,cs),
(32,269,o),
(52,199,o),
(91,138,c),
(125,172,l)
);
},
{
closed = 1;
nodes = (
(146,556,o),
(237,670,o),
(354,670,cs),
(429,670,o),
(493,628,o),
(534,552,c),
(177,188,l),
(156,240,o),
(146,301,o),
(146,371,cs)
);
},
{
closed = 1;
nodes = (
(553,511,l),
(572,457,o),
(582,397,o),
(582,331,cs),
(582,146,o),
(491,32,o),
(374,32,cs),
(299,32,o),
(236,73,o),
(195,148,c)
);
}
);
width = 731;
}
);
note = Oslash;
unicode = 216;
},
{
glyphname = OE;
kernLeft = C;
kernRight = E;
layers = (
{
hints = (
{
horizontal = 1;
place = (0, 41);
place = (0, 41);
type = Stem;
},
{
horizontal = 1;
place = (340, 35);
place = (340, 35);
type = Stem;
},
{
horizontal = 1;
place = (659, 41);
place = (659, 41);
type = Stem;
},
{
place = (32, 117);
place = (32, 117);
type = Stem;
},
{
place = (510, 106);
place = (510, 106);
type = Stem;
},
{
place = (816, 33);
place = (816, 33);
type = Stem;
},
{
place = (510, 70);
place = (510, 70);
type = Stem;
},
{
place = (546, 70);
place = (546, 70);
type = Stem;
}
);
layerId = m01;
shapes = (
{
closed = 1;
nodes = (
(983,0,l),
(1015,249,l),
(982,249,l),
(964,184,ls),
(937,85,o),
(886,41,o),
(805,41,cs),
(580,41,l),
(580,61,l),
(616,61,l),
(616,340,l),
(721,340,ls),
(772,340,o),
(795,319,o),
(808,260,cs),
(816,226,l),
(849,226,l),
(849,490,l),
(816,490,l),
(808,456,ls),
(795,396,o),
(772,375,o),
(721,375,cs),
(616,375,l),
(616,659,l),
(798,659,ls),
(875,659,o),
(919,622,o),
(943,535,cs),
(965,456,l),
(997,456,l),
(985,700,l),
(411,700,ls),
(267,700,o),
(146,637,o),
(81,532,cs),
(48,479,o),
(32,420,o),
(32,355,cs),
(32,223,o),
(104,110,o),
(220,47,cs),
(278,16,o),
(342,0,o),
(413,0,cs)
);
},
{
closed = 1;
nodes = (
(149,534,o),
(257,659,o),
(416,659,cs),
(546,659,l),
(546,639,l),
(510,639,l),
(510,41,l),
(425,41,ls),
(255,41,o),
(149,161,o),
(149,351,cs)
);
}
);
width = 1056;
}
);
note = OE;
unicode = 338;
},
{
glyphname = ae;
kernLeft = a;
kernRight = e;
layers = (
{
hints = (
{
horizontal = 1;
place = (-10, 62);
place = (-10, 62);
type = Stem;
},
{
horizontal = 1;
place = (266, 35);
place = (266, 35);
type = Stem;
},
{
horizontal = 1;
place = (441, 39);
place = (441, 39);
type = Stem;
},
{
place = (34, 91);
place = (34, 91);
type = Stem;
},
{
place = (315, 62);
place = (315, 62);
type = Stem;
},
{
place = (622, 98);
place = (622, 98);
type = Stem;
},
{
horizontal = 1;
place = (440, 40);
place = (440, 40);
type = Stem;
},
{
horizontal = 1;
place = (310, 78);
place = (310, 78);
type = Stem;
},
{
place = (53, 99);
place = (53, 99);
type = Stem;
},
{
place = (53, 67);
place = (53, 67);
type = Stem;
},
{
horizontal = 1;
place = (-10, 53);
place = (-10, 53);
type = Stem;
},
{
place = (315, 94);
place = (315, 94);
type = Stem;
},
{
place = (315, 96);
place = (315, 96);
type = Stem;
}
);
layerId = m01;
shapes = (
{
closed = 1;
nodes = (
(377,266,l),
(720,266,l),
(724,393,o),
(646,480,o),
(530,480,cs),
(474,480,o),
(421,454,o),
(381,411,c),
(358,457,o),
(308,480,o),
(231,480,cs),
(133,480,o),
(53,422,o),
(53,362,cs),
(53,333,o),
(75,310,o),
(100,310,cs),
(132,310,o),
(152,330,o),
(152,370,cs),
(152,378,o),
(152,384,o),
(151,388,c),
(120,388,l),
(125,419,o),
(170,441,o),
(222,441,cs),
(278,441,o),
(315,401,o),
(315,338,cs),
(315,292,l),
(161,240,ls),
(66,208,o),
(34,174,o),
(34,109,cs),
(34,34,o),
(84,-10,o),
(167,-10,cs),
(232,-10,o),
(283,23,o),
(339,110,c),
(375,33,o),
(449,-10,o),
(542,-10,cs),
(626,-10,o),
(694,47,o),
(711,134,c),
(709,135,l),
(678,80,o),
(629,52,o),
(560,52,cs),
(473,52,o),
(411,133,o),
(409,247,c),
(377,247,l)
);
},
{
closed = 1;
nodes = (
(125,174,o),
(148,201,o),
(212,224,cs),
(315,260,l),
(315,229,ls),
(315,199,o),
(319,171,o),
(326,145,c),
(293,80,o),
(246,43,o),
(201,43,cs),
(156,43,o),
(125,75,o),
(125,122,cs)
);
},
{
closed = 1;
nodes = (
(411,301,l),
(420,390,o),
(460,440,o),
(523,440,cs),
(580,440,o),
(622,382,o),
(622,301,c)
);
}
);
width = 755;
}
);
note = ae;
unicode = 230;
},
{
glyphname = dotlessi;
kernLeft = m;
kernRight = q;
layers = (
{
hints = (
{
horizontal = 1;
place = (0, 27);
place = (0, 27);
type = Stem;
},
{
place = (103, 92);
place = (103, 92);
type = Stem;
}
);
layerId = m01;
shapes = (
{
closed = 1;
nodes = (
(195,480,l),
(21,435,l),
(57,418,ls),
(96,399,o),
(103,391,o),
(103,364,cs),
(103,95,ls),
(103,54,o),
(84,32,o),
(45,28,cs),
(24,26,l),
(24,0,l),
(274,0,l),
(274,26,l),
(253,28,ls),
(214,32,o),
(195,54,o),
(195,95,cs)
);
}
);
width = 294;
}
);
note = dotlessi;
unicode = 305;
},
{
glyphname = lslash;
kernLeft = h;
layers = (
{
hints = (
{
horizontal = 1;
place = (0, 27);
place = (0, 27);
type = Stem;
},
{
place = (99, 92);
place = (99, 92);
type = Stem;
},
{
place = (136, 55);
place = (136, 55);
type = Stem;
}
);
layerId = m01;
shapes = (
{
closed = 1;
nodes = (
(270,0,l),
(270,26,l),
(249,28,ls),
(210,32,o),
(191,54,o),
(191,95,cs),
(191,382,l),
(321,469,l),
(321,514,l),
(191,427,l),
(191,725,l),
(17,683,l),
(53,668,ls),
(89,653,o),
(99,641,o),
(99,614,cs),
(99,365,l),
(-9,292,l),
(-9,247,l),
(136,345,l),
(136,320,l),
(99,295,l),
(99,95,ls),
(99,54,o),
(80,32,o),
(41,28,cs),
(20,26,l),
(20,0,l)
);
}
);
width = 290;
}
);
note = lslash;
unicode = 322;
},
{
glyphname = oslash;
kernLeft = c;
kernRight = b;
layers = (
{
hints = (
{
horizontal = 1;
place = (-11, 42);
place = (-11, 42);
type = Stem;
},
{
horizontal = 1;
place = (439, 42);
place = (439, 42);
type = Stem;
},
{
place = (30, 100);
place = (30, 100);
type = Stem;
},
{
place = (384, 102);
place = (384, 102);
type = Stem;
}
);
layerId = m01;
shapes = (
{
closed = 1;
nodes = (
(128,481,o),
(30,373,o),
(30,232,cs),
(30,180,o),
(42,134,o),
(67,95,c),
(95,123,l),
(98,117,o),
(102,112,o),
(105,107,c),
(0,0,l),
(56,0,l),
(104,49,l),
(144,10,o),
(198,-11,o),
(258,-11,cs),
(388,-11,o),
(486,97,o),
(486,238,cs),
(486,290,o),
(474,336,o),
(449,375,c),
(421,347,l),
(418,353,o),
(414,358,o),
(411,363,c),
(516,470,l),
(460,470,l),
(412,421,l),
(372,460,o),
(318,481,o),
(258,481,cs)
);
},
{
closed = 1;
nodes = (
(130,367,o),
(176,439,o),
(252,439,cs),
(297,439,o),
(332,413,o),
(355,366,c),
(143,147,l),
(134,176,o),
(130,210,o),
(130,250,cs)
);
},
{
closed = 1;
nodes = (
(371,323,l),
(380,294,o),
(384,260,o),
(384,220,cs),
(384,103,o),
(338,31,o),
(262,31,cs),
(217,31,o),
(182,57,o),
(159,104,c)
);
}
);
width = 516;
}
);
note = oslash;
unicode = 248;
},
{
glyphname = oe;
kernLeft = c;
kernRight = e;
layers = (
{
hints = (
{
horizontal = 1;
place = (-11, 42);
place = (-11, 42);
type = Stem;
},
{
horizontal = 1;
place = (266, 35);
place = (266, 35);
type = Stem;
},
{
horizontal = 1;
place = (439, 42);
place = (439, 42);
type = Stem;
},
{
place = (30, 100);
place = (30, 100);
type = Stem;
},
{
place = (386, 56);
place = (386, 56);
type = Stem;
},
{
place = (697, 88);
place = (697, 88);
type = Stem;
},
{
horizontal = 1;
place = (-10, 62);
place = (-10, 62);
type = Stem;
},
{
place = (386, 88);
place = (386, 88);
type = Stem;
},
{
horizontal = 1;
place = (440, 40);
place = (440, 40);
type = Stem;
},
{
place = (386, 100);
place = (386, 100);
type = Stem;
}
);
layerId = m01;
shapes = (
{
closed = 1;
nodes = (
(128,481,o),
(30,373,o),
(30,232,cs),
(30,92,o),
(126,-11,o),
(258,-11,cs),
(334,-11,o),
(393,28,o),
(430,93,c),
(462,26,o),
(522,-10,o),
(607,-10,cs),
(691,-10,o),
(759,47,o),
(776,134,c),
(774,135,l),
(743,80,o),
(694,52,o),
(625,52,cs),
(538,52,o),
(476,133,o),
(474,247,c),
(442,247,l),
(442,266,l),
(785,266,l),
(789,393,o),
(711,480,o),
(595,480,cs),
(524,480,o),
(467,440,o),
(434,373,c),
(399,441,o),
(339,481,o),
(258,481,cs)
);
},
{
closed = 1;
nodes = (
(130,367,o),
(176,439,o),
(252,439,cs),
(333,439,o),
(386,353,o),
(386,220,cs),
(386,103,o),
(339,31,o),
(262,31,cs),
(182,31,o),
(130,117,o),
(130,250,cs)
);
},
{
closed = 1;
nodes = (
(486,301,l),
(495,390,o),
(535,440,o),
(598,440,cs),
(655,440,o),
(697,382,o),
(697,301,c)
);
}
);
width = 829;
}
);
note = oe;
unicode = 339;
},
{
glyphname = germandbls;
kernLeft = f;
kernRight = s;
layers = (
{
hints = (
{
horizontal = 1;
place = (0, 27);
place = (0, 27);
type = Stem;
},
{
horizontal = 1;
place = (430, 40);
place = (430, 40);
type = Stem;
},
{
horizontal = 1;
place = (685, 33);
place = (685, 33);
type = Stem;
},
{
place = (94, 92);
place = (94, 92);
type = Stem;
},
{
place = (234, 103);
place = (234, 103);
type = Stem;
},
{
place = (396, 86);
place = (396, 86);
type = Stem;
},
{
place = (128, 58);
place = (128, 58);
type = Stem;
},
{
place = (286, 79);
place = (286, 79);
type = Stem;
},
{
horizontal = 1;
place = (-8, 43);
place = (-8, 43);
type = Stem;
},
{
horizontal = 1;
place = (101, 74);
place = (101, 74);
type = Stem;
},
{
place = (234, 73);
place = (234, 73);
type = Stem;
},
{
place = (496, 77);
place = (496, 77);
type = Stem;
}
);
layerId = m01;
shapes = (
{
closed = 1;
nodes = (
(460,514,o),
(482,545,o),
(482,594,cs),
(482,667,o),
(410,718,o),
(302,718,cs),
(173,718,o),
(94,636,o),
(94,500,cs),
(94,470,l),
(16,470,l),
(16,430,l),
(128,430,l),
(128,411,l),
(94,411,l),
(94,95,ls),
(94,54,o),
(75,32,o),
(36,28,cs),
(15,26,l),
(15,0,l),
(186,0,l),
(186,571,ls),
(186,648,o),
(221,685,o),
(296,685,cs),
(357,685,o),
(396,645,o),
(396,584,cs),
(396,535,o),
(377,498,o),
(336,454,cs),
(297,413,o),
(286,395,o),
(286,368,cs),
(286,337,o),
(301,314,o),
(332,289,cs),
(433,210,ls),
(474,177,o),
(496,150,o),
(496,117,cs),
(496,68,o),
(461,35,o),
(406,35,cs),
(350,35,o),
(312,60,o),
(307,101,c),
(335,101,l),
(336,110,o),
(337,117,o),
(337,121,cs),
(337,154,o),
(318,175,o),
(286,175,cs),
(255,175,o),
(234,152,o),
(234,116,cs),
(234,50,o),
(303,-8,o),
(399,-8,cs),
(500,-8,o),
(573,57,o),
(573,148,cs),
(573,204,o),
(542,249,o),
(482,294,cs),
(403,354,ls),
(388,365,o),
(378,374,o),
(373,380,cs),
(368,385,o),
(365,392,o),
(365,401,cs),
(365,408,o),
(367,415,o),
(372,422,cs),
(376,429,o),
(384,438,o),
(396,450,cs)
);
}
);
width = 599;
}
);
note = germandbls;
unicode = 223;
},
{
glyphname = uni00B9;
layers = (
{
hints = (
{
horizontal = 1;
place = (325, 20.5);
place = (325, 20.5);
type = Stem;
},
{
place = (71, 72);
place = (71, 72);
type = Stem;
}
);
layerId = m01;
shapes = (
{
closed = 1;
nodes = (
(143,708,l),
(22,677,l),
(43,667,ls),
(66,656,o),
(71,649,o),
(71,632,cs),
(71,380,ls),
(71,359,o),
(59,348,o),
(35,346,cs),
(20,345,l),
(20,325,l),
(194,325,l),
(194,345,l),
(178,346,ls),
(155,347,o),
(143,359,o),
(143,380,cs)
);
}
);
width = 214;
}
);
note = uni00B9;
unicode = 185;
},
{
glyphname = trademark;
layers = (
{
hints = (
{
horizontal = 1;
place = (330, 25);
place = (330, 25);
type = Stem;
},
{
horizontal = 1;
place = (670, 30);
place = (670, 30);
type = Stem;
},
{
place = (146, 66);
place = (146, 66);
type = Stem;
},
{
place = (418, 28);
place = (418, 28);
type = Stem;
},
{
place = (725, 66);
place = (725, 66);
type = Stem;
},
{
place = (146, 48);
place = (146, 48);
type = Stem;
},
{
horizontal = 1;
place = (578, 122);
place = (578, 122);
type = Stem;
},
{
horizontal = 1;
place = (647, 53);
place = (647, 53);
type = Stem;
},
{
horizontal = 1;
place = (675, 25);
place = (675, 25);
type = Stem;
}
);
layerId = m01;
shapes = (
{
closed = 1;
nodes = (
(342,700,l),
(15,700,l),
(9,578,l),
(31,578,l),
(40,608,ls),
(53,652,o),
(75,670,o),
(118,670,cs),
(146,670,l),
(146,395,ls),
(146,371,o),
(132,355,o),
(108,355,cs),
(97,355,l),
(97,330,l),
(262,330,l),
(262,355,l),
(250,355,ls),
(226,355,o),
(212,371,o),
(212,395,cs),
(212,647,l),
(194,647,l),
(194,670,l),
(241,670,ls),
(282,670,o),
(307,652,o),
(319,608,cs),
(327,578,l),
(348,578,l)
);
},
{
closed = 1;
nodes = (
(369,330,l),
(496,330,l),
(496,355,l),
(484,356,ls),
(459,357,o),
(446,373,o),
(446,400,cs),
(446,654,l),
(585,315,l),
(586,315,l),
(723,647,l),
(738,647,l),
(725,609,l),
(725,395,ls),
(725,368,o),
(713,355,o),
(689,355,cs),
(677,355,l),
(677,330,l),
(841,330,l),
(841,355,l),
(830,355,ls),
(805,355,o),
(791,371,o),
(791,395,cs),
(791,636,ls),
(791,660,o),
(805,675,o),
(830,675,cs),
(841,675,l),
(841,700,l),
(716,700,l),
(596,397,l),
(585,422,l),
(597,452,l),
(496,700,l),
(369,700,l),
(369,675,l),
(381,674,ls),
(406,672,o),
(418,657,o),
(418,630,cs),
(418,400,ls),
(418,373,o),
(406,358,o),
(381,356,cs),
(369,355,l)
);
}
);
width = 852;
}
);
note = trademark;
unicode = 8482;
},
{
glyphname = Eth;
kernRight = D;
layers = (
{
hints = (
{
horizontal = 1;
place = (0, 41);
place = (0, 41);
type = Stem;
},
{
horizontal = 1;
place = (340, 35);
place = (340, 35);
type = Stem;
},
{
horizontal = 1;
place = (659, 41);
place = (659, 41);
type = Stem;
},
{
place = (114, 106);
place = (114, 106);
type = Stem;
},
{
place = (581, 117);
place = (581, 117);
type = Stem;
},
{
horizontal = 1;
place = (670, 30);
place = (670, 30);
type = Stem;
},
{
place = (150, 70);
place = (150, 70);
type = Stem;
},
{
horizontal = 1;
place = (0, 30);
place = (0, 30);
type = Stem;
},
{
place = (114, 70);
place = (114, 70);
type = Stem;
}
);
layerId = m01;
shapes = (
{
closed = 1;
nodes = (
(698,486,o),
(629,596,o),
(514,656,cs),
(456,685,o),
(391,700,o),
(319,700,cs),
(20,700,l),
(20,671,l),
(43,669,ls),
(90,665,o),
(114,640,o),
(114,595,cs),
(114,375,l),
(20,375,l),
(20,340,l),
(150,340,l),
(150,320,l),
(114,320,l),
(114,105,ls),
(114,60,o),
(90,35,o),
(43,31,cs),
(20,29,l),
(20,0,l),
(317,0,ls),
(458,0,o),
(580,67,o),
(648,175,cs),
(681,229,o),
(698,289,o),
(698,355,cs)
);
},
{
closed = 1;
nodes = (
(184,41,l),
(184,61,l),
(220,61,l),
(220,340,l),
(314,340,l),
(314,375,l),
(220,375,l),
(220,639,l),
(184,639,l),
(184,659,l),
(314,659,ls),
(473,659,o),
(581,534,o),
(581,351,cs),
(581,161,o),
(475,41,o),
(305,41,cs)
);
}
);
width = 729;
}
);
note = Eth;
unicode = 208;
},
{
glyphname = onehalf;
layers = (
{
hints = (
{
horizontal = 1;
place = (0, 53);
place = (0, 53);
type = Stem;
},
{
horizontal = 1;
place = (325, 20.5);
place = (325, 20.5);
type = Stem;
},
{
place = (71, 72);
place = (71, 72);
type = Stem;
},
{
horizontal = 1;
place = (0, 36);
place = (0, 36);
type = Stem;
},
{
horizontal = 1;
place = (247, 51);
place = (247, 51);
type = Stem;
},
{
horizontal = 1;
place = (355, 25);
place = (355, 25);
type = Stem;
},
{
place = (352, 56);
place = (352, 56);
type = Stem;
},
{
place = (525, 77);
place = (525, 77);
type = Stem;
},
{
place = (352, 71);
place = (352, 71);
type = Stem;
}
);
layerId = m01;
shapes = (
{
closed = 1;
nodes = (
(143,708,l),
(22,677,l),
(43,667,ls),
(66,656,o),
(71,649,o),
(71,632,cs),
(71,380,ls),
(71,359,o),
(59,348,o),
(35,346,cs),
(20,345,l),
(20,325,l),
(194,325,l),
(194,345,l),
(178,346,ls),
(155,347,o),
(143,359,o),
(143,380,cs)
);
},
{
closed = 1;
nodes = (
(39,0,l),
(85,0,l),
(535,700,l),
(489,700,l)
);
},
{
closed = 1;
nodes = (
(346,0,l),
(595,0,l),
(612,112,l),
(593,112,l),
(584,91,ls),
(572,64,o),
(555,53,o),
(524,53,cs),
(436,53,l),
(419,36,l),
(402,36,l),
(541,175,ls),
(582,216,o),
(602,252,o),
(602,285,cs),
(602,338,o),
(553,380,o),
(476,380,cs),
(401,380,o),
(352,331,o),
(352,284,cs),
(352,263,o),
(367,247,o),
(387,247,cs),
(410,247,o),
(423,262,o),
(423,283,cs),
(423,286,o),
(422,291,o),
(421,298,c),
(408,298,l),
(411,333,o),
(430,355,o),
(465,355,cs),
(501,355,o),
(525,325,o),
(525,281,cs),
(525,240,o),
(510,204,o),
(463,147,cs)
);
}
);
width = 632;
}
);
note = onehalf;
unicode = 189;
},
{
glyphname = Thorn;
layers = (
{
hints = (
{
horizontal = 1;
place = (0, 30);
place = (0, 30);
type = Stem;
},
{
horizontal = 1;
place = (178, 35);
place = (178, 35);
type = Stem;
},
{
horizontal = 1;
place = (514, 41);
place = (514, 41);
type = Stem;
},
{
horizontal = 1;
place = (670, 30);
place = (670, 30);
type = Stem;
},
{
place = (114, 106);
place = (114, 106);
type = Stem;
},
{
place = (476, 111);
place = (476, 111);
type = Stem;
},
{
horizontal = 1;
place = (0, 158);
place = (0, 158);
type = Stem;
},
{
place = (114, 70);
place = (114, 70);
type = Stem;
}
);
layerId = m01;
shapes = (
{
closed = 1;
nodes = (
(220,555,l),
(220,595,ls),
(220,640,o),
(244,665,o),
(291,669,cs),
(314,671,l),
(314,700,l),
(20,700,l),
(20,671,l),
(43,669,ls),
(90,665,o),
(114,640,o),
(114,595,cs),
(114,105,ls),
(114,60,o),
(90,35,o),
(43,31,cs),
(20,29,l),
(20,0,l),
(314,0,l),
(314,29,l),
(291,31,ls),
(244,35,o),
(220,60,o),
(220,105,cs),
(220,158,l),
(184,158,l),
(184,178,l),
(345,178,ls),
(492,178,o),
(587,262,o),
(587,372,cs),
(587,478,o),
(493,555,o),
(344,555,cs)
);
},
{
closed = 1;
nodes = (
(184,494,l),
(184,514,l),
(333,514,ls),
(422,514,o),
(476,459,o),
(476,368,cs),
(476,275,o),
(420,213,o),
(333,213,cs),
(220,213,l),
(220,494,l)
);
}
);
width = 617;
}
);
note = Thorn;
unicode = 222;
},
{
glyphname = onequarter;
layers = (
{
hints = (
{
horizontal = 1;
place = (0, 20.5);
place = (0, 20.5);
type = Stem;
},
{
horizontal = 1;
place = (105, 48);
place = (105, 48);
type = Stem;
},
{
horizontal = 1;
place = (325, 20.5);
place = (325, 20.5);
type = Stem;
},
{
place = (71, 72);
place = (71, 72);
type = Stem;
},
{
place = (461, 67);
place = (461, 67);
type = Stem;
},
{
place = (461, 46);
place = (461, 46);
type = Stem;
},
{
place = (421, 90);
place = (421, 90);
type = Stem;
}
);
layerId = m01;
shapes = (
{
closed = 1;
nodes = (
(143,708,l),
(22,677,l),
(43,667,ls),
(66,656,o),
(71,649,o),
(71,632,cs),
(71,380,ls),
(71,359,o),
(59,348,o),
(35,346,cs),
(20,345,l),
(20,325,l),
(194,325,l),
(194,345,l),
(178,346,ls),
(155,347,o),
(143,359,o),
(143,380,cs)
);
},
{
closed = 1;
nodes = (
(39,0,l),
(85,0,l),
(535,700,l),
(489,700,l)
);
},
{
closed = 1;
nodes = (
(461,105,l),
(461,55,ls),
(461,34,o),
(450,23,o),
(428,21,cs),
(417,20,l),
(417,0,l),
(572,0,l),
(572,20,l),
(561,21,ls),
(539,23,o),
(528,34,o),
(528,55,cs),
(528,93,l),
(507,93,l),
(507,105,l),
(581,105,l),
(594,204,l),
(575,204,l),
(569,187,ls),
(562,169,o),
(549,158,o),
(528,154,c),
(528,255,l),
(461,219,l),
(461,153,l),
(347,153,l),
(385,193,o),
(421,235,o),
(455,278,cs),
(496,327,o),
(510,357,o),
(511,386,c),
(420,367,l),
(421,362,o),
(421,354,o),
(421,344,cs),
(421,315,o),
(412,285,o),
(393,256,cs),
(368,216,o),
(331,166,o),
(282,105,c)
);
}
);
width = 614;
}
);
note = onequarter;
unicode = 188;
},
{
glyphname = degree;
kernLeft = asterisk;
kernRight = asterisk;
layers = (
{
hints = (
{
horizontal = 1;
place = (394, 44);
place = (394, 44);
type = Stem;
},
{
horizontal = 1;
place = (666, 44);
place = (666, 44);
type = Stem;
},
{
place = (35, 52);
place = (35, 52);
type = Stem;
},
{
place = (302, 52);
place = (302, 52);
type = Stem;
}
);
layerId = m01;
shapes = (
{
closed = 1;
nodes = (
(283,394,o),
(354,463,o),
(354,552,cs),
(354,641,o),
(283,710,o),
(195,710,cs),
(111,710,o),
(35,646,o),
(35,552,cs),
(35,458,o),
(111,394,o),
(195,394,cs)
);
},
{
closed = 1;
nodes = (
(87,616,o),
(135,666,o),
(195,666,cs),
(254,666,o),
(302,616,o),
(302,552,cs),
(302,488,o),
(254,438,o),
(195,438,cs),
(135,438,o),
(87,488,o),
(87,552,cs)
);
}
);
width = 389;
}
);
note = degree;
unicode = 176;
},
{
glyphname = thorn;
kernLeft = h;
kernRight = b;
layers = (
{
hints = (
{
horizontal = 1;
place = (-230, 27);
place = (-230, 27);
type = Stem;
},
{
horizontal = 1;
place = (-9, 40);
place = (-9, 40);
type = Stem;
},
{
horizontal = 1;
place = (418, 63);
place = (418, 63);
type = Stem;
},
{
place = (79, 92);
place = (79, 92);
type = Stem;
},
{
place = (417, 100);
place = (417, 100);
type = Stem;
},
{
place = (79, 61);
place = (79, 61);
type = Stem;
}
);
layerId = m01;
shapes = (
{
closed = 1;
nodes = (
(250,-230,l),
(250,-204,l),
(229,-202,ls),
(190,-198,o),
(171,-176,o),
(171,-135,cs),
(171,12,l),
(199,-2,o),
(233,-9,o),
(274,-9,cs),
(421,-9,o),
(517,109,o),
(517,255,cs),
(517,386,o),
(436,481,o),
(323,481,cs),
(262,481,o),
(209,445,o),
(158,369,cs),
(140,342,l),
(140,375,l),
(171,418,l),
(171,725,l),
(-3,680,l),
(33,663,ls),
(72,644,o),
(79,636,o),
(79,609,cs),
(79,-135,ls),
(79,-176,o),
(60,-198,o),
(21,-202,cs),
(0,-204,l),
(0,-230,l)
);
},
{
closed = 1;
nodes = (
(171,348,l),
(198,391,o),
(239,418,o),
(280,418,cs),
(361,418,o),
(417,341,o),
(417,232,cs),
(417,112,o),
(359,31,o),
(272,31,cs),
(237,31,o),
(198,49,o),
(171,73,c)
);
}
);
width = 547;
}
);
note = thorn;
unicode = 254;
},
{
glyphname = threequarters;
layers = (
{
hints = (
{
horizontal = 1;
place = (0, 20.5);
place = (0, 20.5);
type = Stem;
},
{
horizontal = 1;
place = (105, 48);
place = (105, 48);
type = Stem;
},
{
horizontal = 1;
place = (319, 24);
place = (319, 24);
type = Stem;
},
{
horizontal = 1;
place = (508, 48);
place = (508, 48);
type = Stem;
},
{
horizontal = 1;
place = (647, 53);
place = (647, 53);
type = Stem;
},
{
place = (26, 64);
place = (26, 64);
type = Stem;
},
{
place = (209, 71);
place = (209, 71);
type = Stem;
},
{
place = (540, 67);
place = (540, 67);
type = Stem;
},
{
horizontal = 1;
place = (394, 47);
place = (394, 47);
type = Stem;
},
{
horizontal = 1;
place = (662, 38);
place = (662, 38);
type = Stem;
},
{
place = (26, 50);
place = (26, 50);
type = Stem;
},
{
place = (540, 46);
place = (540, 46);
type = Stem;
},
{
place = (500, 90);
place = (500, 90);
type = Stem;
}
);
layerId = m01;
shapes = (
{
closed = 1;
nodes = (
(280,505,o),
(232,556,o),
(161,556,c),
(280,700,l),
(48,700,l),
(35,600,l),
(53,600,l),
(61,618,ls),
(70,637,o),
(87,647,o),
(114,647,cs),
(186,647,l),
(200,662,l),
(217,662,l),
(85,507,l),
(90,508,o),
(98,508,o),
(107,508,cs),
(175,508,o),
(209,482,o),
(209,429,cs),
(209,382,o),
(180,343,o),
(136,343,cs),
(99,343,o),
(79,363,o),
(76,394,c),
(89,394,l),
(90,397,o),
(90,401,o),
(90,407,cs),
(90,427,o),
(78,441,o),
(58,441,cs),
(39,441,o),
(26,426,o),
(26,407,cs),
(26,355,o),
(78,319,o),
(142,319,cs),
(225,319,o),
(280,375,o),
(280,444,cs)
);
},
{
closed = 1;
nodes = (
(118,0,l),
(164,0,l),
(614,700,l),
(568,700,l)
);
},
{
closed = 1;
nodes = (
(540,105,l),
(540,55,ls),
(540,34,o),
(529,23,o),
(507,21,cs),
(496,20,l),
(496,0,l),
(651,0,l),
(651,20,l),
(640,21,ls),
(618,23,o),
(607,34,o),
(607,55,cs),
(607,93,l),
(586,93,l),
(586,105,l),
(660,105,l),
(673,204,l),
(654,204,l),
(648,187,ls),
(641,169,o),
(628,158,o),
(607,154,c),
(607,255,l),
(540,219,l),
(540,153,l),
(426,153,l),
(464,193,o),
(500,235,o),
(534,278,cs),
(575,327,o),
(589,357,o),
(590,386,c),
(499,367,l),
(500,362,o),
(500,354,o),
(500,344,cs),
(500,315,o),
(491,285,o),
(472,256,cs),
(447,216,o),
(410,166,o),
(361,105,c)
);
}
);
width = 693;
}
);
note = threequarters;
unicode = 190;
},
{
glyphname = uni00B2;
layers = (
{
hints = (
{
horizontal = 1;
place = (325, 36);
place = (325, 36);
type = Stem;
},
{
horizontal = 1;
place = (572, 51);
place = (572, 51);
type = Stem;
},
{
horizontal = 1;
place = (680, 25);
place = (680, 25);
type = Stem;
},
{
place = (16, 56);
place = (16, 56);
type = Stem;
},
{
place = (189, 77);
place = (189, 77);
type = Stem;
},
{
horizontal = 1;
place = (325, 53);
place = (325, 53);
type = Stem;
},
{
place = (16, 71);
place = (16, 71);
type = Stem;
}
);
layerId = m01;
shapes = (
{
closed = 1;
nodes = (
(83,361,l),
(66,361,l),
(205,500,ls),
(246,541,o),
(266,577,o),
(266,610,cs),
(266,663,o),
(217,705,o),
(140,705,cs),
(65,705,o),
(16,656,o),
(16,609,cs),
(16,588,o),
(31,572,o),
(51,572,cs),
(74,572,o),
(87,587,o),
(87,608,cs),
(87,611,o),
(86,616,o),
(85,623,c),
(72,623,l),
(75,658,o),
(94,680,o),
(129,680,cs),
(165,680,o),
(189,650,o),
(189,606,cs),
(189,565,o),
(174,529,o),
(127,472,cs),
(10,325,l),
(259,325,l),
(276,437,l),
(257,437,l),
(248,416,ls),
(236,389,o),
(219,378,o),
(188,378,cs),
(100,378,l)
);
}
);
width = 296;
}
);
note = uni00B2;
unicode = 178;
},
{
glyphname = registered;
kernLeft = asterisk;
kernRight = asterisk;
layers = (
{
hints = (
{
horizontal = 1;
place = (281, 27);
place = (281, 27);
type = Stem;
},
{
horizontal = 1;
place = (378, 19);
place = (378, 19);
type = Stem;
},
{
horizontal = 1;
place = (499, 20);
place = (499, 20);
type = Stem;
},
{
horizontal = 1;
place = (619, 21);
place = (619, 21);
type = Stem;
},
{
horizontal = 1;
place = (702, 28);
place = (702, 28);
type = Stem;
},
{
place = (52, 27);
place = (52, 27);
type = Stem;
},
{
place = (194, 49);
place = (194, 49);
type = Stem;
},
{
place = (328, 52);
place = (328, 52);
type = Stem;
},
{
place = (474, 27);
place = (474, 27);
type = Stem;
},
{
place = (194, 26);
place = (194, 26);
type = Stem;
},
{
horizontal = 1;
place = (378, 18);
place = (378, 18);
type = Stem;
},
{
horizontal = 1;
place = (510, 9);
place = (510, 9);
type = Stem;
},
{
horizontal = 1;
place = (620, 20);
place = (620, 20);
type = Stem;
}
);
layerId = m01;
shapes = (
{
closed = 1;
nodes = (
(402,281,o),
(501,380,o),
(501,505,cs),
(501,630,o),
(402,730,o),
(277,730,cs),
(152,730,o),
(52,630,o),
(52,505,cs),
(52,380,o),
(152,281,o),
(277,281,cs)
);
},
{
closed = 1;
nodes = (
(79,615,o),
(166,702,o),
(277,702,cs),
(387,702,o),
(474,615,o),
(474,505,cs),
(474,395,o),
(387,308,o),
(277,308,cs),
(166,308,o),
(79,395,o),
(79,505,cs)
);
},
{
closed = 1;
nodes = (
(159,378,l),
(279,378,l),
(279,397,l),
(270,397,ls),
(252,397,o),
(243,406,o),
(243,425,cs),
(243,482,l),
(220,482,l),
(220,499,l),
(269,499,ls),
(288,499,o),
(301,491,o),
(306,476,cs),
(342,378,l),
(417,378,l),
(417,395,l),
(411,397,ls),
(394,402,o),
(388,406,o),
(380,423,cs),
(357,474,ls),
(349,492,o),
(337,504,o),
(321,510,c),
(352,513,o),
(380,543,o),
(380,574,cs),
(380,613,o),
(344,640,o),
(292,640,cs),
(159,640,l),
(159,620,l),
(167,620,ls),
(183,620,o),
(194,608,o),
(194,592,cs),
(194,425,ls),
(194,408,o),
(184,397,o),
(167,397,cs),
(159,397,l)
);
},
{
closed = 1;
nodes = (
(220,602,l),
(220,619,l),
(275,619,ls),
(308,619,o),
(328,601,o),
(328,570,cs),
(328,539,o),
(307,519,o),
(275,519,cs),
(243,519,l),
(243,602,l)
);
}
);
width = 553;
}
);
note = registered;
unicode = 174;
},
{
glyphname = minus;
kernLeft = plus;
kernRight = plus;
layers = (
{
hints = (
{
horizontal = 1;
place = (295, 40);
place = (295, 40);
type = Stem;
},
{
place = (35, 448);
place = (35, 448);
type = Stem;
}
);
layerId = m01;
shapes = (
{
closed = 1;
nodes = (
(483,335,l),
(35,335,l),
(35,295,l),
(483,295,l)
);
}
);
width = 518;
}
);
note = minus;
unicode = 8722;
},
{
glyphname = eth;
kernLeft = c;
kernRight = b;
layers = (
{
hints = (
{
horizontal = 1;
place = (-11, 42);
place = (-11, 42);
type = Stem;
},
{
horizontal = 1;
place = (439, 42);
place = (439, 42);
type = Stem;
},
{
place = (30, 100);
place = (30, 100);
type = Stem;
},
{
place = (396, 90);
place = (396, 90);
type = Stem;
}
);
layerId = m01;
shapes = (
{
closed = 1;
nodes = (
(129,538,l),
(145,502,l),
(490,635,l),
(474,671,l),
(319,611,l),
(262,658,o),
(200,691,o),
(132,710,c),
(129,698,l),
(177,685,o),
(231,649,o),
(276,594,c)
);
},
{
closed = 1;
nodes = (
(30,92,o),
(126,-11,o),
(258,-11,cs),
(390,-11,o),
(486,101,o),
(486,277,cs),
(486,381,o),
(441,485,o),
(365,566,c),
(311,545,l),
(332,513,o),
(350,478,o),
(363,441,c),
(331,468,o),
(295,481,o),
(254,481,cs),
(128,481,o),
(30,371,o),
(30,232,cs)
);
},
{
closed = 1;
nodes = (
(130,371,o),
(177,439,o),
(265,439,cs),
(313,439,o),
(359,414,o),
(386,358,c),
(393,320,o),
(396,283,o),
(396,248,cs),
(396,113,o),
(345,31,o),
(262,31,cs),
(182,31,o),
(130,117,o),
(130,250,cs)
);
}
);
width = 516;
}
);
note = eth;
unicode = 240;
},
{
glyphname = multiply;
layers = (
{
hints = (
{
horizontal = 1;
place = (132, 366);
place = (132, 366);
type = Stem;
},
{
place = (76, 366);
place = (76, 366);
type = Stem;
}
);
layerId = m01;
shapes = (
{
closed = 1;
nodes = (
(230,315,l),
(76,161,l),
(105,132,l),
(259,286,l),
(413,132,l),
(442,161,l),
(288,315,l),
(442,469,l),
(413,498,l),
(259,344,l),
(105,498,l),
(76,469,l)
);
}
);
width = 518;
}
);
note = multiply;
unicode = 215;
},
{
glyphname = uni00B3;
layers = (
{
hints = (
{
horizontal = 1;
place = (319, 24);
place = (319, 24);
type = Stem;
},
{
horizontal = 1;
place = (508, 48);
place = (508, 48);
type = Stem;
},
{
horizontal = 1;
place = (647, 53);
place = (647, 53);
type = Stem;
},
{
place = (26, 64);
place = (26, 64);
type = Stem;
},
{
place = (209, 71);
place = (209, 71);
type = Stem;
},
{
horizontal = 1;
place = (394, 47);
place = (394, 47);
type = Stem;
},
{
horizontal = 1;
place = (662, 38);
place = (662, 38);
type = Stem;
},
{
place = (26, 50);
place = (26, 50);
type = Stem;
}
);
layerId = m01;
shapes = (
{
closed = 1;
nodes = (
(280,505,o),
(232,556,o),
(161,556,c),
(280,700,l),
(48,700,l),
(35,600,l),
(53,600,l),
(61,618,ls),
(70,637,o),
(87,647,o),
(114,647,cs),
(186,647,l),
(200,662,l),
(217,662,l),
(85,507,l),
(90,508,o),
(98,508,o),
(107,508,cs),
(175,508,o),
(209,482,o),
(209,429,cs),
(209,382,o),
(180,343,o),
(136,343,cs),
(99,343,o),
(79,363,o),
(76,394,c),
(89,394,l),
(90,397,o),
(90,401,o),
(90,407,cs),
(90,427,o),
(78,441,o),
(58,441,cs),
(39,441,o),
(26,426,o),
(26,407,cs),
(26,355,o),
(78,319,o),
(142,319,cs),
(225,319,o),
(280,375,o),
(280,444,cs)
);
}
);
width = 311;
}
);
note = uni00B3;
unicode = 179;
},
{
glyphname = copyright;
kernLeft = C;
kernRight = D;
layers = (
{
hints = (
{
horizontal = 1;
place = (-11, 33);
place = (-11, 33);
type = Stem;
},
{
horizontal = 1;
place = (147, 58);
place = (147, 58);
type = Stem;
},
{
horizontal = 1;
place = (406, 64);
place = (406, 64);
type = Stem;
},
{
horizontal = 1;
place = (517, 37);
place = (517, 37);
type = Stem;
},
{
horizontal = 1;
place = (678, 33);
place = (678, 33);
type = Stem;
},
{
place = (35, 33);
place = (35, 33);
type = Stem;
},
{
place = (215, 87);
place = (215, 87);
type = Stem;
},
{
place = (479, 70);
place = (479, 70);
type = Stem;
},
{
place = (724, 33);
place = (724, 33);
type = Stem;
},
{
place = (462, 87);
place = (462, 87);
type = Stem;
}
);
layerId = m01;
shapes = (
{
closed = 1;
nodes = (
(527,-11,o),
(644,58,o),
(709,169,cs),
(741,224,o),
(757,285,o),
(757,350,cs),
(757,479,o),
(687,597,o),
(576,662,cs),
(521,695,o),
(461,711,o),
(396,711,cs),
(265,711,o),
(148,641,o),
(84,530,cs),
(51,475,o),
(35,415,o),
(35,350,cs),
(35,219,o),
(104,102,o),
(215,38,cs),
(270,5,o),
(331,-11,o),
(396,-11,cs)
);
},
{
closed = 1;
nodes = (
(68,467,o),
(132,574,o),
(233,634,cs),
(283,663,o),
(337,678,o),
(396,678,cs),
(513,678,o),
(620,614,o),
(680,514,cs),
(709,463,o),
(724,409,o),
(724,350,cs),
(724,231,o),
(661,125,o),
(561,66,cs),
(510,37,o),
(455,22,o),
(396,22,cs),
(277,22,o),
(171,85,o),
(112,186,cs),
(83,236,o),
(68,291,o),
(68,350,cs)
);
},
{
closed = 1;
nodes = (
(215,228,o),
(291,147,o),
(401,147,cs),
(469,147,o),
(524,197,o),
(543,272,c),
(541,273,l),
(508,224,o),
(475,205,o),
(422,205,cs),
(356,205,o),
(302,270,o),
(302,367,cs),
(302,460,o),
(341,517,o),
(405,517,cs),
(448,517,o),
(478,499,o),
(479,470,c),
(462,470,l),
(457,429,o),
(474,406,o),
(505,406,cs),
(530,406,o),
(549,426,o),
(549,451,cs),
(549,505,o),
(490,554,o),
(408,554,cs),
(305,554,o),
(215,468,o),
(215,344,cs)
);
}
);
width = 792;
}
);
note = copyright;
unicode = 169;
},
{
glyphname = Aacute;
kernLeft = A;
kernRight = A;
layers = (
{
hints = (
{
horizontal = 1;
place = (0, 30);
place = (0, 30);
type = Stem;
},
{
horizontal = 1;
place = (236, 35);
place = (236, 35);
type = Stem;
},
{
place = (6, 709);
place = (6, 709);
type = Stem;
},
{
place = (6, 204);
place = (6, 204);
type = Stem;
},
{
place = (6, 134);
place = (6, 134);
type = Stem;
}
);
layerId = m01;
shapes = (
{
closed = 1;
nodes = (
(508,216,l),
(472,216,l),
(520,102,ls),
(525,92,o),
(527,82,o),
(527,73,cs),
(527,49,o),
(510,34,o),
(481,31,cs),
(464,29,l),
(464,0,l),
(715,0,l),
(715,27,l),
(672,36,o),
(651,58,o),
(631,103,cs),
(362,733,l),
(360,733,l),
(93,111,ls),
(74,66,o),
(45,38,o),
(6,27,c),
(6,0,l),
(210,0,l),
(210,29,l),
(193,31,ls),
(158,35,o),
(140,52,o),
(140,81,cs),
(140,95,o),
(144,112,o),
(153,132,cs),
(197,236,l),
(500,236,l)
);
},
{
closed = 1;
nodes = (
(212,271,l),
(331,556,l),
(450,271,l)
);
},
{
closed = 1;
nodes = (
(285,765,l),
(378,901,ls),
(403,937,o),
(419,950,o),
(446,950,cs),
(475,950,o),
(494,930,o),
(494,906,cs),
(494,887,o),
(482,869,o),
(462,858,cs),
(289,765,l)
);
}
);
width = 721;
}
);
note = Aacute;
unicode = 193;
},
{
glyphname = Acircumflex;
kernLeft = A;
kernRight = A;
layers = (
{
hints = (
{
horizontal = 1;
place = (0, 30);
place = (0, 30);
type = Stem;
},
{
horizontal = 1;
place = (236, 35);
place = (236, 35);
type = Stem;
},
{
horizontal = 1;
place = (873, 42);
place = (873, 42);
type = Stem;
},
{
place = (6, 709);
place = (6, 709);
type = Stem;
},
{
place = (6, 204);
place = (6, 204);
type = Stem;
},
{
place = (6, 134);
place = (6, 134);
type = Stem;
}
);
layerId = m01;
shapes = (
{
closed = 1;
nodes = (
(508,216,l),
(472,216,l),
(520,102,ls),
(525,92,o),
(527,82,o),
(527,73,cs),
(527,49,o),
(510,34,o),
(481,31,cs),
(464,29,l),
(464,0,l),
(715,0,l),
(715,27,l),
(672,36,o),
(651,58,o),
(631,103,cs),
(362,733,l),
(360,733,l),
(93,111,ls),
(74,66,o),
(45,38,o),
(6,27,c),
(6,0,l),
(210,0,l),
(210,29,l),
(193,31,ls),
(158,35,o),
(140,52,o),
(140,81,cs),
(140,95,o),
(144,112,o),
(153,132,cs),
(197,236,l),
(500,236,l)
);
},
{
closed = 1;
nodes = (
(201,765,l),
(205,765,l),
(371,873,l),
(407,873,l),
(357,838,l),
(515,765,l),
(519,765,l),
(415,915,l),
(305,915,l)
);
},
{
closed = 1;
nodes = (
(212,271,l),
(331,556,l),
(450,271,l)
);
}
);
width = 721;
}
);
note = Acircumflex;
unicode = 194;
},
{
glyphname = Adieresis;
kernLeft = A;
kernRight = A;
layers = (
{
hints = (
{
horizontal = 1;
place = (0, 30);
place = (0, 30);
type = Stem;
},
{
horizontal = 1;
place = (236, 35);
place = (236, 35);
type = Stem;
},
{
horizontal = 1;
place = (805, 99);
place = (805, 99);
type = Stem;
},
{
place = (214, 98);
place = (214, 98);
type = Stem;
},
{
place = (408, 98);
place = (408, 98);
type = Stem;
},
{
place = (6, 204);
place = (6, 204);
type = Stem;
},
{
place = (6, 134);
place = (6, 134);
type = Stem;
}
);
layerId = m01;
shapes = (
{
closed = 1;
nodes = (
(508,216,l),
(472,216,l),
(520,102,ls),
(525,92,o),
(527,82,o),
(527,73,cs),
(527,49,o),
(510,34,o),
(481,31,cs),
(464,29,l),
(464,0,l),
(715,0,l),
(715,27,l),
(672,36,o),
(651,58,o),
(631,103,cs),
(362,733,l),
(360,733,l),
(93,111,ls),
(74,66,o),
(45,38,o),
(6,27,c),
(6,0,l),
(210,0,l),
(210,29,l),
(193,31,ls),
(158,35,o),
(140,52,o),
(140,81,cs),
(140,95,o),
(144,112,o),
(153,132,cs),
(197,236,l),
(500,236,l)
);
},
{
closed = 1;
nodes = (
(212,271,l),
(331,556,l),
(450,271,l)
);
},
{
closed = 1;
nodes = (
(214,805,l),
(312,805,l),
(312,904,l),
(214,904,l)
);
},
{
closed = 1;
nodes = (
(408,805,l),
(506,805,l),
(506,904,l),
(408,904,l)
);
}
);
width = 721;
}
);
note = Adieresis;
unicode = 196;
},
{
glyphname = Agrave;
kernLeft = A;
kernRight = A;
layers = (
{
hints = (
{
horizontal = 1;
place = (0, 30);
place = (0, 30);
type = Stem;
},
{
horizontal = 1;
place = (236, 35);
place = (236, 35);
type = Stem;
},
{
place = (6, 709);
place = (6, 709);
type = Stem;
},
{
place = (6, 204);
place = (6, 204);
type = Stem;
},
{
place = (6, 134);
place = (6, 134);
type = Stem;
}
);
layerId = m01;
shapes = (
{
closed = 1;
nodes = (
(508,216,l),
(472,216,l),
(520,102,ls),
(525,92,o),
(527,82,o),
(527,73,cs),
(527,49,o),
(510,34,o),
(481,31,cs),
(464,29,l),
(464,0,l),
(715,0,l),
(715,27,l),
(672,36,o),
(651,58,o),
(631,103,cs),
(362,733,l),
(360,733,l),
(93,111,ls),
(74,66,o),
(45,38,o),
(6,27,c),
(6,0,l),
(210,0,l),
(210,29,l),
(193,31,ls),
(158,35,o),
(140,52,o),
(140,81,cs),
(140,95,o),
(144,112,o),
(153,132,cs),
(197,236,l),
(500,236,l)
);
},
{
closed = 1;
nodes = (
(212,271,l),
(331,556,l),
(450,271,l)
);
},
{
closed = 1;
nodes = (
(226,887,o),
(238,869,o),
(258,858,cs),
(431,765,l),
(435,765,l),
(342,901,ls),
(317,937,o),
(301,950,o),
(274,950,cs),
(245,950,o),
(226,930,o),
(226,906,cs)
);
}
);
width = 721;
}
);
note = Agrave;
unicode = 192;
},
{
glyphname = Aring;
kernLeft = A;
kernRight = A;
layers = (
{
hints = (
{
horizontal = 1;
place = (0, 30);
place = (0, 30);
type = Stem;
},
{
horizontal = 1;
place = (236, 35);
place = (236, 35);
type = Stem;
},
{
horizontal = 1;
place = (753, 35);
place = (753, 35);
type = Stem;
},
{
horizontal = 1;
place = (904, 36);
place = (904, 36);
type = Stem;
},
{
place = (6, 204);
place = (6, 204);
type = Stem;
},
{
place = (261, 40);
place = (261, 40);
type = Stem;
},
{
place = (419, 40);
place = (419, 40);
type = Stem;
},
{
place = (6, 134);
place = (6, 134);
type = Stem;
}
);
layerId = m01;
shapes = (
{
closed = 1;
nodes = (
(508,216,l),
(472,216,l),
(520,102,ls),
(525,92,o),
(527,82,o),
(527,73,cs),
(527,49,o),
(510,34,o),
(481,31,cs),
(464,29,l),
(464,0,l),
(715,0,l),
(715,27,l),
(672,36,o),
(651,58,o),
(631,103,cs),
(362,733,l),
(360,733,l),
(93,111,ls),
(74,66,o),
(45,38,o),
(6,27,c),
(6,0,l),
(210,0,l),
(210,29,l),
(193,31,ls),
(158,35,o),
(140,52,o),
(140,81,cs),
(140,95,o),
(144,112,o),
(153,132,cs),
(197,236,l),
(500,236,l)
);
},
{
closed = 1;
nodes = (
(212,271,l),
(331,556,l),
(450,271,l)
);
},
{
closed = 1;
nodes = (
(261,794,o),
(304,753,o),
(360,753,cs),
(416,753,o),
(459,794,o),
(459,845,cs),
(459,900,o),
(416,940,o),
(360,940,cs),
(304,940,o),
(261,900,o),
(261,845,cs)
);
},
{
closed = 1;
nodes = (
(301,880,o),
(323,904,o),
(360,904,cs),
(397,904,o),
(419,880,o),
(419,845,cs),
(419,813,o),
(396,788,o),
(360,788,cs),
(324,788,o),
(301,813,o),
(301,845,cs)
);
}
);
width = 721;
}
);
note = Aring;
unicode = 197;
},
{
glyphname = Atilde;
kernLeft = A;
kernRight = A;
layers = (
{
hints = (
{
horizontal = 1;
place = (0, 30);
place = (0, 30);
type = Stem;
},
{
horizontal = 1;
place = (236, 35);
place = (236, 35);
type = Stem;
},
{
place = (6, 709);
place = (6, 709);
type = Stem;
},
{
place = (6, 204);
place = (6, 204);
type = Stem;
},
{
horizontal = 1;
place = (845, 80);
place = (845, 80);
type = Stem;
},
{
place = (6, 134);
place = (6, 134);
type = Stem;
},
{
horizontal = 1;
place = (780, 80);
place = (780, 80);
type = Stem;
}
);
layerId = m01;
shapes = (
{
closed = 1;
nodes = (
(508,216,l),
(472,216,l),
(520,102,ls),
(525,92,o),
(527,82,o),
(527,73,cs),
(527,49,o),
(510,34,o),
(481,31,cs),
(464,29,l),
(464,0,l),
(715,0,l),
(715,27,l),
(672,36,o),
(651,58,o),
(631,103,cs),
(362,733,l),
(360,733,l),
(93,111,ls),
(74,66,o),
(45,38,o),
(6,27,c),
(6,0,l),
(210,0,l),
(210,29,l),
(193,31,ls),
(158,35,o),
(140,52,o),
(140,81,cs),
(140,95,o),
(144,112,o),
(153,132,cs),
(197,236,l),
(500,236,l)
);
},
{
closed = 1;
nodes = (
(183,780,l),
(211,828,o),
(236,845,o),
(261,845,cs),
(282,845,o),
(304,834,o),
(343,813,cs),
(382,792,o),
(404,780,o),
(427,780,cs),
(476,780,o),
(510,823,o),
(541,924,c),
(537,924,l),
(509,877,o),
(484,860,o),
(459,860,cs),
(439,860,o),
(416,871,o),
(381,891,cs),
(342,914,o),
(317,925,o),
(293,925,cs),
(244,925,o),
(210,881,o),
(179,780,c)
);
},
{
closed = 1;
nodes = (
(212,271,l),
(331,556,l),
(450,271,l)
);
}
);
width = 721;
}
);
note = Atilde;
unicode = 195;
},
{
glyphname = Ccedilla;
kernLeft = C;
kernRight = C;
layers = (
{
hints = (
{
horizontal = 1;
place = (-205, 19);
place = (-205, 19);
type = Stem;
},
{
horizontal = 1;
place = (-10, 54);
place = (-10, 54);
type = Stem;
},
{
horizontal = 1;
place = (663, 47);
place = (663, 47);
type = Stem;
},
{
place = (32, 117);
place = (32, 117);
type = Stem;
},
{
place = (364, 75);
place = (364, 75);
type = Stem;
},
{
place = (574, 45);
place = (574, 45);
type = Stem;
}
);
layerId = m01;
shapes = (
{
closed = 1;
nodes = (
(271,-185,l),
(271,-189,l),
(289,-200,o),
(310,-205,o),
(335,-205,cs),
(395,-205,o),
(439,-174,o),
(439,-131,cs),
(439,-104,o),
(426,-80,o),
(375,-51,cs),
(368,-47,l),
(351,-76,l),
(332,-65,l),
(364,-10,l),
(487,-10,o),
(587,72,o),
(626,201,c),
(622,203,l),
(557,92,o),
(484,44,o),
(381,44,cs),
(247,44,o),
(149,164,o),
(149,354,cs),
(149,544,o),
(239,663,o),
(366,663,cs),
(454,663,o),
(522,611,o),
(565,508,cs),
(585,462,l),
(619,462,l),
(619,707,l),
(542,664,l),
(551,656,o),
(566,640,o),
(574,629,c),
(574,594,l),
(524,671,o),
(454,710,o),
(364,710,cs),
(240,710,o),
(134,641,o),
(76,528,cs),
(47,471,o),
(32,409,o),
(32,340,cs),
(32,150,o),
(155,7,o),
(331,-9,c),
(287,-80,l),
(335,-109,ls),
(354,-121,o),
(364,-134,o),
(364,-148,cs),
(364,-171,o),
(337,-186,o),
(289,-186,cs)
);
}
);
width = 665;
}
);
note = Ccedilla;
unicode = 199;
},
{
glyphname = Eacute;
kernRight = E;
layers = (
{
hints = (
{
horizontal = 1;
place = (0, 41);
place = (0, 41);
type = Stem;
},
{
horizontal = 1;
place = (340, 35);
place = (340, 35);
type = Stem;
},
{
horizontal = 1;
place = (659, 41);
place = (659, 41);
type = Stem;
},
{
place = (114, 70);
place = (114, 70);
type = Stem;
},
{
place = (420, 33);
place = (420, 33);
type = Stem;
},
{
place = (114, 106);
place = (114, 106);
type = Stem;
},
{
horizontal = 1;
place = (0, 30);
place = (0, 30);
type = Stem;
},
{
horizontal = 1;
place = (670, 30);
place = (670, 30);
type = Stem;
}
);
layerId = m01;
shapes = (
{
closed = 1;
nodes = (
(184,61,l),
(220,61,l),
(220,340,l),
(325,340,ls),
(376,340,o),
(399,319,o),
(412,260,cs),
(420,226,l),
(453,226,l),
(453,490,l),
(420,490,l),
(412,456,ls),
(399,396,o),
(376,375,o),
(325,375,cs),
(220,375,l),
(220,639,l),
(184,639,l),
(184,659,l),
(402,659,ls),
(479,659,o),
(523,622,o),
(547,535,cs),
(569,456,l),
(601,456,l),
(589,700,l),
(20,700,l),
(20,671,l),
(43,669,ls),
(90,665,o),
(114,640,o),
(114,595,cs),
(114,105,ls),
(114,60,o),
(90,35,o),
(43,31,cs),
(20,29,l),
(20,0,l),
(587,0,l),
(619,249,l),
(586,249,l),
(568,184,ls),
(541,85,o),
(490,41,o),
(409,41,cs),
(184,41,l)
);
},
{
closed = 1;
nodes = (
(278,765,l),
(371,901,ls),
(396,937,o),
(412,950,o),
(439,950,cs),
(468,950,o),
(487,930,o),
(487,906,cs),
(487,887,o),
(475,869,o),
(455,858,cs),
(282,765,l)
);
}
);
width = 660;
}
);
note = Eacute;
unicode = 201;
},
{
glyphname = Ecircumflex;
kernRight = E;
layers = (
{
hints = (
{
horizontal = 1;
place = (0, 41);
place = (0, 41);
type = Stem;
},
{
horizontal = 1;
place = (340, 35);
place = (340, 35);
type = Stem;
},
{
horizontal = 1;
place = (659, 41);
place = (659, 41);
type = Stem;
},
{
horizontal = 1;
place = (873, 42);
place = (873, 42);
type = Stem;
},
{
place = (114, 70);
place = (114, 70);
type = Stem;
},
{
place = (420, 33);
place = (420, 33);
type = Stem;
},
{
place = (114, 106);
place = (114, 106);
type = Stem;
},
{
horizontal = 1;
place = (0, 30);
place = (0, 30);
type = Stem;
},
{
horizontal = 1;
place = (670, 30);
place = (670, 30);
type = Stem;
}
);
layerId = m01;
shapes = (
{
closed = 1;
nodes = (
(184,61,l),
(220,61,l),
(220,340,l),
(325,340,ls),
(376,340,o),
(399,319,o),
(412,260,cs),
(420,226,l),
(453,226,l),
(453,490,l),
(420,490,l),
(412,456,ls),
(399,396,o),
(376,375,o),
(325,375,cs),
(220,375,l),
(220,639,l),
(184,639,l),
(184,659,l),
(402,659,ls),
(479,659,o),
(523,622,o),
(547,535,cs),
(569,456,l),
(601,456,l),
(589,700,l),
(20,700,l),
(20,671,l),
(43,669,ls),
(90,665,o),
(114,640,o),
(114,595,cs),
(114,105,ls),
(114,60,o),
(90,35,o),
(43,31,cs),
(20,29,l),
(20,0,l),
(587,0,l),
(619,249,l),
(586,249,l),
(568,184,ls),
(541,85,o),
(490,41,o),
(409,41,cs),
(184,41,l)
);
},
{
closed = 1;
nodes = (
(194,765,l),
(198,765,l),
(364,873,l),
(400,873,l),
(350,838,l),
(508,765,l),
(512,765,l),
(408,915,l),
(298,915,l)
);
}
);
width = 660;
}
);
note = Ecircumflex;
unicode = 202;
},
{
glyphname = Edieresis;
kernRight = E;
layers = (
{
hints = (
{
horizontal = 1;
place = (0, 41);
place = (0, 41);
type = Stem;
},
{
horizontal = 1;
place = (340, 35);
place = (340, 35);
type = Stem;
},
{
horizontal = 1;
place = (659, 41);
place = (659, 41);
type = Stem;
},
{
horizontal = 1;
place = (805, 99);
place = (805, 99);
type = Stem;
},
{
place = (114, 70);
place = (114, 70);
type = Stem;
},
{
place = (401, 98);
place = (401, 98);
type = Stem;
},
{
place = (114, 106);
place = (114, 106);
type = Stem;
},
{
place = (420, 33);
place = (420, 33);
type = Stem;
},
{
horizontal = 1;
place = (0, 30);
place = (0, 30);
type = Stem;
},
{
horizontal = 1;
place = (670, 30);
place = (670, 30);
type = Stem;
},
{
place = (207, 98);
place = (207, 98);
type = Stem;
}
);
layerId = m01;
shapes = (
{
closed = 1;
nodes = (
(184,61,l),
(220,61,l),
(220,340,l),
(325,340,ls),
(376,340,o),
(399,319,o),
(412,260,cs),
(420,226,l),
(453,226,l),
(453,490,l),
(420,490,l),
(412,456,ls),
(399,396,o),
(376,375,o),
(325,375,cs),
(220,375,l),
(220,639,l),
(184,639,l),
(184,659,l),
(402,659,ls),
(479,659,o),
(523,622,o),
(547,535,cs),
(569,456,l),
(601,456,l),
(589,700,l),
(20,700,l),
(20,671,l),
(43,669,ls),
(90,665,o),
(114,640,o),
(114,595,cs),
(114,105,ls),
(114,60,o),
(90,35,o),
(43,31,cs),
(20,29,l),
(20,0,l),
(587,0,l),
(619,249,l),
(586,249,l),
(568,184,ls),
(541,85,o),
(490,41,o),
(409,41,cs),
(184,41,l)
);
},
{
closed = 1;
nodes = (
(207,805,l),
(305,805,l),
(305,904,l),
(207,904,l)
);
},
{
closed = 1;
nodes = (
(401,805,l),
(499,805,l),
(499,904,l),
(401,904,l)
);
}
);
width = 660;
}
);
note = Edieresis;
unicode = 203;
},
{
glyphname = Egrave;
kernRight = E;
layers = (
{
hints = (
{
horizontal = 1;
place = (0, 41);
place = (0, 41);
type = Stem;
},
{
horizontal = 1;
place = (340, 35);
place = (340, 35);
type = Stem;
},
{
horizontal = 1;
place = (659, 41);
place = (659, 41);
type = Stem;
},
{
place = (114, 70);
place = (114, 70);
type = Stem;
},
{
place = (420, 33);
place = (420, 33);
type = Stem;
},
{
place = (114, 106);
place = (114, 106);
type = Stem;
},
{
horizontal = 1;
place = (0, 30);
place = (0, 30);
type = Stem;
},
{
horizontal = 1;
place = (670, 30);
place = (670, 30);
type = Stem;
}
);
layerId = m01;
shapes = (
{
closed = 1;
nodes = (
(184,61,l),
(220,61,l),
(220,340,l),
(325,340,ls),
(376,340,o),
(399,319,o),
(412,260,cs),
(420,226,l),
(453,226,l),
(453,490,l),
(420,490,l),
(412,456,ls),
(399,396,o),
(376,375,o),
(325,375,cs),
(220,375,l),
(220,639,l),
(184,639,l),
(184,659,l),
(402,659,ls),
(479,659,o),
(523,622,o),
(547,535,cs),
(569,456,l),
(601,456,l),
(589,700,l),
(20,700,l),
(20,671,l),
(43,669,ls),
(90,665,o),
(114,640,o),
(114,595,cs),
(114,105,ls),
(114,60,o),
(90,35,o),
(43,31,cs),
(20,29,l),
(20,0,l),
(587,0,l),
(619,249,l),
(586,249,l),
(568,184,ls),
(541,85,o),
(490,41,o),
(409,41,cs),
(184,41,l)
);
},
{
closed = 1;
nodes = (
(219,887,o),
(231,869,o),
(251,858,cs),
(424,765,l),
(428,765,l),
(335,901,ls),
(310,937,o),
(294,950,o),
(267,950,cs),
(238,950,o),
(219,930,o),
(219,906,cs)
);
}
);
width = 660;
}
);
note = Egrave;
unicode = 200;
},
{
glyphname = Iacute;
kernRight = H;
layers = (
{
hints = (
{
horizontal = 1;
place = (0, 30);
place = (0, 30);
type = Stem;
},
{
horizontal = 1;
place = (670, 30);
place = (670, 30);
type = Stem;
},
{
place = (114, 106);
place = (114, 106);
type = Stem;
}
);
layerId = m01;
shapes = (
{
closed = 1;
nodes = (
(220,595,ls),
(220,640,o),
(244,665,o),
(291,669,cs),
(314,671,l),
(314,700,l),
(20,700,l),
(20,671,l),
(43,669,ls),
(90,665,o),
(114,640,o),
(114,595,cs),
(114,105,ls),
(114,60,o),
(90,35,o),
(43,31,cs),
(20,29,l),
(20,0,l),
(314,0,l),
(314,29,l),
(291,31,ls),
(244,35,o),
(220,60,o),
(220,105,cs)
);
},
{
closed = 1;
nodes = (
(92,765,l),
(185,901,ls),
(210,937,o),
(226,950,o),
(253,950,cs),
(282,950,o),
(301,930,o),
(301,906,cs),
(301,887,o),
(289,869,o),
(269,858,cs),
(96,765,l)
);
}
);
width = 334;
}
);
note = Iacute;
unicode = 205;
},
{
glyphname = Icircumflex;
kernRight = H;
layers = (
{
hints = (
{
horizontal = 1;
place = (0, 30);
place = (0, 30);
type = Stem;
},
{
horizontal = 1;
place = (670, 30);
place = (670, 30);
type = Stem;
},
{
horizontal = 1;
place = (873, 42);
place = (873, 42);
type = Stem;
},
{
place = (114, 106);
place = (114, 106);
type = Stem;
}
);
layerId = m01;
shapes = (
{
closed = 1;
nodes = (
(220,595,ls),
(220,640,o),
(244,665,o),
(291,669,cs),
(314,671,l),
(314,700,l),
(20,700,l),
(20,671,l),
(43,669,ls),
(90,665,o),
(114,640,o),
(114,595,cs),
(114,105,ls),
(114,60,o),
(90,35,o),
(43,31,cs),
(20,29,l),
(20,0,l),
(314,0,l),
(314,29,l),
(291,31,ls),
(244,35,o),
(220,60,o),
(220,105,cs)
);
},
{
closed = 1;
nodes = (
(8,765,l),
(12,765,l),
(178,873,l),
(214,873,l),
(164,838,l),
(322,765,l),
(326,765,l),
(222,915,l),
(112,915,l)
);
}
);
width = 334;
}
);
note = Icircumflex;
unicode = 206;
},
{
glyphname = Idieresis;
kernRight = H;
layers = (
{
hints = (
{
horizontal = 1;
place = (0, 30);
place = (0, 30);
type = Stem;
},
{
horizontal = 1;
place = (670, 30);
place = (670, 30);
type = Stem;
},
{
horizontal = 1;
place = (805, 99);
place = (805, 99);
type = Stem;
},
{
place = (114, 106);
place = (114, 106);
type = Stem;
},
{
place = (21, 98);
place = (21, 98);
type = Stem;
},
{
place = (215, 98);
place = (215, 98);
type = Stem;
}
);
layerId = m01;
shapes = (
{
closed = 1;
nodes = (
(220,595,ls),
(220,640,o),
(244,665,o),
(291,669,cs),
(314,671,l),
(314,700,l),
(20,700,l),
(20,671,l),
(43,669,ls),
(90,665,o),
(114,640,o),
(114,595,cs),
(114,105,ls),
(114,60,o),
(90,35,o),
(43,31,cs),
(20,29,l),
(20,0,l),
(314,0,l),
(314,29,l),
(291,31,ls),
(244,35,o),
(220,60,o),
(220,105,cs)
);
},
{
closed = 1;
nodes = (
(21,805,l),
(119,805,l),
(119,904,l),
(21,904,l)
);
},
{
closed = 1;
nodes = (
(215,805,l),
(313,805,l),
(313,904,l),
(215,904,l)
);
}
);
width = 334;
}
);
note = Idieresis;
unicode = 207;
},
{
glyphname = Igrave;
kernRight = H;
layers = (
{
hints = (
{
horizontal = 1;
place = (0, 30);
place = (0, 30);
type = Stem;
},
{
horizontal = 1;
place = (670, 30);
place = (670, 30);
type = Stem;
},
{
place = (114, 106);
place = (114, 106);
type = Stem;
}
);
layerId = m01;
shapes = (
{
closed = 1;
nodes = (
(220,595,ls),
(220,640,o),
(244,665,o),
(291,669,cs),
(314,671,l),
(314,700,l),
(20,700,l),
(20,671,l),
(43,669,ls),
(90,665,o),
(114,640,o),
(114,595,cs),
(114,105,ls),
(114,60,o),
(90,35,o),
(43,31,cs),
(20,29,l),
(20,0,l),
(314,0,l),
(314,29,l),
(291,31,ls),
(244,35,o),
(220,60,o),
(220,105,cs)
);
},
{
closed = 1;
nodes = (
(33,887,o),
(45,869,o),
(65,858,cs),
(238,765,l),
(242,765,l),
(149,901,ls),
(124,937,o),
(108,950,o),
(81,950,cs),
(52,950,o),
(33,930,o),
(33,906,cs)
);
}
);
width = 334;
}
);
note = Igrave;
unicode = 204;
},
{
glyphname = Ntilde;
kernRight = N;
layers = (
{
hints = (
{
horizontal = 1;
place = (0, 30.5);
place = (0, 30.5);
type = Stem;
},
{
horizontal = 1;
place = (669.5, 30.5);
place = (669.5, 30.5);
type = Stem;
},
{
horizontal = 1;
place = (845, 80);
place = (845, 80);
type = Stem;
},
{
place = (114, 53);
place = (114, 53);
type = Stem;
},
{
place = (597, 53);
place = (597, 53);
type = Stem;
},
{
horizontal = 1;
place = (780, 80);
place = (780, 80);
type = Stem;
}
);
layerId = m01;
shapes = (
{
closed = 1;
nodes = (
(650,-10,l),
(650,584,ls),
(650,635,o),
(673,661,o),
(721,668,cs),
(744,671,l),
(744,700,l),
(502,700,l),
(502,671,l),
(525,668,ls),
(573,662,o),
(597,634,o),
(597,584,cs),
(597,189,l),
(578,211,l),
(578,248,l),
(196,700,l),
(34,700,l),
(114,618,l),
(114,116,ls),
(114,65,o),
(91,39,o),
(43,32,cs),
(20,29,l),
(20,0,l),
(262,0,l),
(262,29,l),
(239,32,ls),
(191,38,o),
(167,66,o),
(167,116,cs),
(167,570,l)
);
},
{
closed = 1;
nodes = (
(222,780,l),
(250,828,o),
(275,845,o),
(300,845,cs),
(321,845,o),
(343,834,o),
(382,813,cs),
(421,792,o),
(443,780,o),
(466,780,cs),
(515,780,o),
(549,823,o),
(580,924,c),
(576,924,l),
(548,877,o),
(523,860,o),
(498,860,cs),
(478,860,o),
(455,871,o),
(420,891,cs),
(381,914,o),
(356,925,o),
(332,925,cs),
(283,925,o),
(249,881,o),
(218,780,c)
);
}
);
width = 759;
}
);
note = Ntilde;
unicode = 209;
},
{
glyphname = Oacute;
kernLeft = C;
kernRight = D;
layers = (
{
hints = (
{
horizontal = 1;
place = (-11, 43);
place = (-11, 43);
type = Stem;
},
{
horizontal = 1;
place = (670, 42);
place = (670, 42);
type = Stem;
},
{
place = (32, 114);
place = (32, 114);
type = Stem;
},
{
place = (582, 118);
place = (582, 118);
type = Stem;
}
);
layerId = m01;
shapes = (
{
closed = 1;
nodes = (
(487,-11,o),
(595,57,o),
(655,169,cs),
(685,225,o),
(700,287,o),
(700,355,cs),
(700,491,o),
(636,605,o),
(535,666,cs),
(484,697,o),
(429,712,o),
(368,712,cs),
(245,712,o),
(137,644,o),
(77,533,cs),
(47,477,o),
(32,415,o),
(32,347,cs),
(32,211,o),
(96,96,o),
(197,35,cs),
(248,4,o),
(303,-11,o),
(364,-11,cs)
);
},
{
closed = 1;
nodes = (
(146,556,o),
(237,670,o),
(354,670,cs),
(442,670,o),
(513,614,o),
(553,511,cs),
(572,460,o),
(582,400,o),
(582,331,cs),
(582,146,o),
(491,32,o),
(374,32,cs),
(286,32,o),
(215,88,o),
(176,191,cs),
(156,242,o),
(146,302,o),
(146,371,cs)
);
},
{
closed = 1;
nodes = (
(286,765,l),
(379,901,ls),
(404,937,o),
(420,950,o),
(447,950,cs),
(476,950,o),
(495,930,o),
(495,906,cs),
(495,887,o),
(483,869,o),
(463,858,cs),
(290,765,l)
);
}
);
width = 731;
}
);
note = Oacute;
unicode = 211;
},
{
glyphname = Ocircumflex;
kernLeft = C;
kernRight = D;
layers = (
{
hints = (
{
horizontal = 1;
place = (-11, 43);
place = (-11, 43);
type = Stem;
},
{
horizontal = 1;
place = (670, 42);
place = (670, 42);
type = Stem;
},
{
horizontal = 1;
place = (873, 42);
place = (873, 42);
type = Stem;
},
{
place = (32, 114);
place = (32, 114);
type = Stem;
},
{
place = (582, 118);
place = (582, 118);
type = Stem;
}
);
layerId = m01;
shapes = (
{
closed = 1;
nodes = (
(487,-11,o),
(595,57,o),
(655,169,cs),
(685,225,o),
(700,287,o),
(700,355,cs),
(700,491,o),
(636,605,o),
(535,666,cs),
(484,697,o),
(429,712,o),
(368,712,cs),
(245,712,o),
(137,644,o),
(77,533,cs),
(47,477,o),
(32,415,o),
(32,347,cs),
(32,211,o),
(96,96,o),
(197,35,cs),
(248,4,o),
(303,-11,o),
(364,-11,cs)
);
},
{
closed = 1;
nodes = (
(146,556,o),
(237,670,o),
(354,670,cs),
(442,670,o),
(513,614,o),
(553,511,cs),
(572,460,o),
(582,400,o),
(582,331,cs),
(582,146,o),
(491,32,o),
(374,32,cs),
(286,32,o),
(215,88,o),
(176,191,cs),
(156,242,o),
(146,302,o),
(146,371,cs)
);
},
{
closed = 1;
nodes = (
(202,765,l),
(206,765,l),
(372,873,l),
(408,873,l),
(358,838,l),
(516,765,l),
(520,765,l),
(416,915,l),
(306,915,l)
);
}
);
width = 731;
}
);
note = Ocircumflex;
unicode = 212;
},
{
glyphname = Odieresis;
kernLeft = C;
kernRight = D;
layers = (
{
hints = (
{
horizontal = 1;
place = (-11, 43);
place = (-11, 43);
type = Stem;
},
{
horizontal = 1;
place = (670, 42);
place = (670, 42);
type = Stem;
},
{
horizontal = 1;
place = (805, 99);
place = (805, 99);
type = Stem;
},
{
place = (32, 114);
place = (32, 114);
type = Stem;
},
{
place = (215, 98);
place = (215, 98);
type = Stem;
},
{
place = (409, 98);
place = (409, 98);
type = Stem;
},
{
place = (582, 118);
place = (582, 118);
type = Stem;
}
);
layerId = m01;
shapes = (
{
closed = 1;
nodes = (
(487,-11,o),
(595,57,o),
(655,169,cs),
(685,225,o),
(700,287,o),
(700,355,cs),
(700,491,o),
(636,605,o),
(535,666,cs),
(484,697,o),
(429,712,o),
(368,712,cs),
(245,712,o),
(137,644,o),
(77,533,cs),
(47,477,o),
(32,415,o),
(32,347,cs),
(32,211,o),
(96,96,o),
(197,35,cs),
(248,4,o),
(303,-11,o),
(364,-11,cs)
);
},
{
closed = 1;
nodes = (
(146,556,o),
(237,670,o),
(354,670,cs),
(442,670,o),
(513,614,o),
(553,511,cs),
(572,460,o),
(582,400,o),
(582,331,cs),
(582,146,o),
(491,32,o),
(374,32,cs),
(286,32,o),
(215,88,o),
(176,191,cs),
(156,242,o),
(146,302,o),
(146,371,cs)
);
},
{
closed = 1;
nodes = (
(215,805,l),
(313,805,l),
(313,904,l),
(215,904,l)
);
},
{
closed = 1;
nodes = (
(409,805,l),
(507,805,l),
(507,904,l),
(409,904,l)
);
}
);
width = 731;
}
);
note = Odieresis;
unicode = 214;
},
{
glyphname = Ograve;
kernLeft = C;
kernRight = D;
layers = (
{
hints = (
{
horizontal = 1;
place = (-11, 43);
place = (-11, 43);
type = Stem;
},
{
horizontal = 1;
place = (670, 42);
place = (670, 42);
type = Stem;
},
{
place = (32, 114);
place = (32, 114);
type = Stem;
},
{
place = (582, 118);
place = (582, 118);
type = Stem;
}
);
layerId = m01;
shapes = (
{
closed = 1;
nodes = (
(487,-11,o),
(595,57,o),
(655,169,cs),
(685,225,o),
(700,287,o),
(700,355,cs),
(700,491,o),
(636,605,o),
(535,666,cs),
(484,697,o),
(429,712,o),
(368,712,cs),
(245,712,o),
(137,644,o),
(77,533,cs),
(47,477,o),
(32,415,o),
(32,347,cs),
(32,211,o),
(96,96,o),
(197,35,cs),
(248,4,o),
(303,-11,o),
(364,-11,cs)
);
},
{
closed = 1;
nodes = (
(146,556,o),
(237,670,o),
(354,670,cs),
(442,670,o),
(513,614,o),
(553,511,cs),
(572,460,o),
(582,400,o),
(582,331,cs),
(582,146,o),
(491,32,o),
(374,32,cs),
(286,32,o),
(215,88,o),
(176,191,cs),
(156,242,o),
(146,302,o),
(146,371,cs)
);
},
{
closed = 1;
nodes = (
(227,887,o),
(239,869,o),
(259,858,cs),
(432,765,l),
(436,765,l),
(343,901,ls),
(318,937,o),
(302,950,o),
(275,950,cs),
(246,950,o),
(227,930,o),
(227,906,cs)
);
}
);
width = 731;
}
);
note = Ograve;
unicode = 210;
},
{
glyphname = Otilde;
kernLeft = C;
kernRight = D;
layers = (
{
hints = (
{
horizontal = 1;
place = (-11, 43);
place = (-11, 43);
type = Stem;
},
{
horizontal = 1;
place = (670, 42);
place = (670, 42);
type = Stem;
},
{
horizontal = 1;
place = (845, 80);
place = (845, 80);
type = Stem;
},
{
place = (32, 114);
place = (32, 114);
type = Stem;
},
{
place = (582, 118);
place = (582, 118);
type = Stem;
},
{
horizontal = 1;
place = (780, 80);
place = (780, 80);
type = Stem;
}
);
layerId = m01;
shapes = (
{
closed = 1;
nodes = (
(487,-11,o),
(595,57,o),
(655,169,cs),
(685,225,o),
(700,287,o),
(700,355,cs),
(700,491,o),
(636,605,o),
(535,666,cs),
(484,697,o),
(429,712,o),
(368,712,cs),
(245,712,o),
(137,644,o),
(77,533,cs),
(47,477,o),
(32,415,o),
(32,347,cs),
(32,211,o),
(96,96,o),
(197,35,cs),
(248,4,o),
(303,-11,o),
(364,-11,cs)
);
},
{
closed = 1;
nodes = (
(146,556,o),
(237,670,o),
(354,670,cs),
(442,670,o),
(513,614,o),
(553,511,cs),
(572,460,o),
(582,400,o),
(582,331,cs),
(582,146,o),
(491,32,o),
(374,32,cs),
(286,32,o),
(215,88,o),
(176,191,cs),
(156,242,o),
(146,302,o),
(146,371,cs)
);
},
{
closed = 1;
nodes = (
(184,780,l),
(212,828,o),
(237,845,o),
(262,845,cs),
(283,845,o),
(305,834,o),
(344,813,cs),
(383,792,o),
(405,780,o),
(428,780,cs),
(477,780,o),
(511,823,o),
(542,924,c),
(538,924,l),
(510,877,o),
(485,860,o),
(460,860,cs),
(440,860,o),
(417,871,o),
(382,891,cs),
(343,914,o),
(318,925,o),
(294,925,cs),
(245,925,o),
(211,881,o),
(180,780,c)
);
}
);
width = 731;
}
);
note = Otilde;
unicode = 213;
},
{
glyphname = Scaron;
kernLeft = S;
kernRight = S;
layers = (
{
hints = (
{
horizontal = 1;
place = (-11, 45);
place = (-11, 45);
type = Stem;
},
{
horizontal = 1;
place = (665, 45);
place = (665, 45);
type = Stem;
},
{
horizontal = 1;
place = (778, 42);
place = (778, 42);
type = Stem;
},
{
place = (31.5, 44);
place = (31.5, 44);
type = Stem;
},
{
place = (431.5, 42);
place = (431.5, 42);
type = Stem;
},
{
place = (35, 86);
place = (35, 86);
type = Stem;
},
{
place = (428, 92);
place = (428, 92);
type = Stem;
}
);
layerId = m01;
shapes = (
{
closed = 1;
nodes = (
(428,-11,o),
(520,76,o),
(520,198,cs),
(520,279,o),
(475,341,o),
(394,373,cs),
(210,445,ls),
(153,468,o),
(121,508,o),
(121,557,cs),
(121,622,o),
(166,665,o),
(237,665,cs),
(321,665,o),
(378,619,o),
(422,516,cs),
(440,474,l),
(475,474,l),
(472,708,l),
(400,667,l),
(408,659,o),
(423,642,o),
(431,630,c),
(432,593,l),
(389,668,o),
(321,710,o),
(240,710,cs),
(118,710,o),
(35,630,o),
(35,514,cs),
(35,439,o),
(76,383,o),
(155,351,cs),
(326,283,ls),
(391,258,o),
(428,214,o),
(428,159,cs),
(428,83,o),
(372,34,o),
(283,34,cs),
(198,34,o),
(134,82,o),
(91,178,cs),
(65,235,l),
(30,235,l),
(33,-9,l),
(107,35,l),
(90,50,o),
(79,59,o),
(76,64,c),
(75,98,l),
(131,25,o),
(200,-11,o),
(281,-11,cs)
);
},
{
closed = 1;
nodes = (
(102,928,l),
(206,778,l),
(316,778,l),
(420,928,l),
(416,928,l),
(250,820,l),
(214,820,l),
(264,855,l),
(106,928,l)
);
}
);
width = 545;
}
);
note = Scaron;
unicode = 352;
},
{
glyphname = Uacute;
kernLeft = U;
kernRight = J;
layers = (
{
hints = (
{
horizontal = 1;
place = (-11, 62);
place = (-11, 62);
type = Stem;
},
{
horizontal = 1;
place = (670, 30);
place = (670, 30);
type = Stem;
},
{
place = (114, 105);
place = (114, 105);
type = Stem;
},
{
place = (596, 53);
place = (596, 53);
type = Stem;
},
{
horizontal = 1;
place = (669.5, 30.5);
place = (669.5, 30.5);
type = Stem;
}
);
layerId = m01;
shapes = (
{
closed = 1;
nodes = (
(542,-11,o),
(649,103,o),
(649,283,cs),
(649,584,ls),
(649,635,o),
(672,661,o),
(720,668,cs),
(743,671,l),
(743,700,l),
(501,700,l),
(501,671,l),
(524,668,ls),
(572,662,o),
(596,634,o),
(596,584,cs),
(596,296,ls),
(596,145,o),
(520,51,o),
(399,51,cs),
(290,51,o),
(219,129,o),
(219,250,cs),
(219,595,ls),
(219,640,o),
(243,665,o),
(290,669,cs),
(313,671,l),
(313,700,l),
(20,700,l),
(20,671,l),
(43,669,ls),
(90,665,o),
(114,640,o),
(114,595,cs),
(114,230,ls),
(114,82,o),
(214,-11,o),
(372,-11,cs)
);
},
{
closed = 1;
nodes = (
(331,765,l),
(424,901,ls),
(449,937,o),
(465,950,o),
(492,950,cs),
(521,950,o),
(540,930,o),
(540,906,cs),
(540,887,o),
(528,869,o),
(508,858,cs),
(335,765,l)
);
}
);
width = 763;
}
);
note = Uacute;
unicode = 218;
},
{
glyphname = Ucircumflex;
kernLeft = U;
kernRight = J;
layers = (
{
hints = (
{
horizontal = 1;
place = (-11, 62);
place = (-11, 62);
type = Stem;
},
{
horizontal = 1;
place = (670, 30);
place = (670, 30);
type = Stem;
},
{
horizontal = 1;
place = (873, 42);
place = (873, 42);
type = Stem;
},
{
place = (114, 105);
place = (114, 105);
type = Stem;
},
{
place = (596, 53);
place = (596, 53);
type = Stem;
},
{
horizontal = 1;
place = (669.5, 30.5);
place = (669.5, 30.5);
type = Stem;
}
);
layerId = m01;
shapes = (
{
closed = 1;
nodes = (
(542,-11,o),
(649,103,o),
(649,283,cs),
(649,584,ls),
(649,635,o),
(672,661,o),
(720,668,cs),
(743,671,l),
(743,700,l),
(501,700,l),
(501,671,l),
(524,668,ls),
(572,662,o),
(596,634,o),
(596,584,cs),
(596,296,ls),
(596,145,o),
(520,51,o),
(399,51,cs),
(290,51,o),
(219,129,o),
(219,250,cs),
(219,595,ls),
(219,640,o),
(243,665,o),
(290,669,cs),
(313,671,l),
(313,700,l),
(20,700,l),
(20,671,l),
(43,669,ls),
(90,665,o),
(114,640,o),
(114,595,cs),
(114,230,ls),
(114,82,o),
(214,-11,o),
(372,-11,cs)
);
},
{
closed = 1;
nodes = (
(247,765,l),
(251,765,l),
(417,873,l),
(453,873,l),
(403,838,l),
(561,765,l),
(565,765,l),
(461,915,l),
(351,915,l)
);
}
);
width = 763;
}
);
note = Ucircumflex;
unicode = 219;
},
{
glyphname = Udieresis;
kernLeft = U;
kernRight = J;
layers = (
{
hints = (
{
horizontal = 1;
place = (-11, 62);
place = (-11, 62);
type = Stem;
},
{
horizontal = 1;
place = (670, 30);
place = (670, 30);
type = Stem;
},
{
horizontal = 1;
place = (805, 99);
place = (805, 99);
type = Stem;
},
{
place = (114, 105);
place = (114, 105);
type = Stem;
},
{
place = (260, 98);
place = (260, 98);
type = Stem;
},
{
place = (454, 98);
place = (454, 98);
type = Stem;
},
{
place = (596, 53);
place = (596, 53);
type = Stem;
},
{
horizontal = 1;
place = (669.5, 30.5);
place = (669.5, 30.5);
type = Stem;
}
);
layerId = m01;
shapes = (
{
closed = 1;
nodes = (
(542,-11,o),
(649,103,o),
(649,283,cs),
(649,584,ls),
(649,635,o),
(672,661,o),
(720,668,cs),
(743,671,l),
(743,700,l),
(501,700,l),
(501,671,l),
(524,668,ls),
(572,662,o),
(596,634,o),
(596,584,cs),
(596,296,ls),
(596,145,o),
(520,51,o),
(399,51,cs),
(290,51,o),
(219,129,o),
(219,250,cs),
(219,595,ls),
(219,640,o),
(243,665,o),
(290,669,cs),
(313,671,l),
(313,700,l),
(20,700,l),
(20,671,l),
(43,669,ls),
(90,665,o),
(114,640,o),
(114,595,cs),
(114,230,ls),
(114,82,o),
(214,-11,o),
(372,-11,cs)
);
},
{
closed = 1;
nodes = (
(260,805,l),
(358,805,l),
(358,904,l),
(260,904,l)
);
},
{
closed = 1;
nodes = (
(454,805,l),
(552,805,l),
(552,904,l),
(454,904,l)
);
}
);
width = 763;
}
);
note = Udieresis;
unicode = 220;
},
{
glyphname = Ugrave;
kernLeft = U;
kernRight = J;
layers = (
{
hints = (
{
horizontal = 1;
place = (-11, 62);
place = (-11, 62);
type = Stem;
},
{
horizontal = 1;
place = (670, 30);
place = (670, 30);
type = Stem;
},
{
place = (114, 105);
place = (114, 105);
type = Stem;
},
{
place = (596, 53);
place = (596, 53);
type = Stem;
},
{
horizontal = 1;
place = (669.5, 30.5);
place = (669.5, 30.5);
type = Stem;
}
);
layerId = m01;
shapes = (
{
closed = 1;
nodes = (
(542,-11,o),
(649,103,o),
(649,283,cs),
(649,584,ls),
(649,635,o),
(672,661,o),
(720,668,cs),
(743,671,l),
(743,700,l),
(501,700,l),
(501,671,l),
(524,668,ls),
(572,662,o),
(596,634,o),
(596,584,cs),
(596,296,ls),
(596,145,o),
(520,51,o),
(399,51,cs),
(290,51,o),
(219,129,o),
(219,250,cs),
(219,595,ls),
(219,640,o),
(243,665,o),
(290,669,cs),
(313,671,l),
(313,700,l),
(20,700,l),
(20,671,l),
(43,669,ls),
(90,665,o),
(114,640,o),
(114,595,cs),
(114,230,ls),
(114,82,o),
(214,-11,o),
(372,-11,cs)
);
},
{
closed = 1;
nodes = (
(272,887,o),
(284,869,o),
(304,858,cs),
(477,765,l),
(481,765,l),
(388,901,ls),
(363,937,o),
(347,950,o),
(320,950,cs),
(291,950,o),
(272,930,o),
(272,906,cs)
);
}
);
width = 763;
}
);
note = Ugrave;
unicode = 217;
},
{
glyphname = Yacute;
kernLeft = Y;
kernRight = Y;
layers = (
{
hints = (
{
horizontal = 1;
place = (0, 30);
place = (0, 30);
type = Stem;
},
{
horizontal = 1;
place = (669.5, 30.5);
place = (669.5, 30.5);
type = Stem;
},
{
place = (314, 103);
place = (314, 103);
type = Stem;
},
{
place = (558, 137);
place = (558, 137);
type = Stem;
},
{
horizontal = 1;
place = (673, 27);
place = (673, 27);
type = Stem;
},
{
horizontal = 1;
place = (670, 30);
place = (670, 30);
type = Stem;
},
{
place = (486, 209);
place = (486, 209);
type = Stem;
}
);
layerId = m01;
shapes = (
{
closed = 1;
nodes = (
(369,312,l),
(356,327,l),
(376,357,l),
(223,588,ls),
(213,604,o),
(208,618,o),
(208,630,cs),
(208,651,o),
(222,665,o),
(247,668,cs),
(272,671,l),
(272,700,l),
(21,700,l),
(21,673,l),
(49,668,o),
(71,649,o),
(95,613,cs),
(314,285,l),
(314,105,ls),
(314,60,o),
(290,35,o),
(243,31,cs),
(220,29,l),
(220,0,l),
(511,0,l),
(511,29,l),
(488,31,ls),
(441,35,o),
(417,60,o),
(417,105,cs),
(417,313,l),
(610,599,ls),
(639,643,o),
(664,665,o),
(695,673,c),
(695,700,l),
(486,700,l),
(486,671,l),
(503,669,ls),
(540,665,o),
(558,650,o),
(558,623,cs),
(558,606,o),
(551,587,o),
(536,566,cs)
);
},
{
closed = 1;
nodes = (
(303,765,l),
(396,901,ls),
(421,937,o),
(437,950,o),
(464,950,cs),
(493,950,o),
(512,930,o),
(512,906,cs),
(512,887,o),
(500,869,o),
(480,858,cs),
(307,765,l)
);
}
);
width = 716;
}
);
note = Yacute;
unicode = 221;
},
{
glyphname = Ydieresis;
kernLeft = Y;
kernRight = Y;
layers = (
{
hints = (
{
horizontal = 1;
place = (0, 30);
place = (0, 30);
type = Stem;
},
{
horizontal = 1;
place = (669.5, 30.5);
place = (669.5, 30.5);
type = Stem;
},
{
horizontal = 1;
place = (805, 99);
place = (805, 99);
type = Stem;
},
{
place = (314, 103);
place = (314, 103);
type = Stem;
},
{
place = (558, 137);
place = (558, 137);
type = Stem;
},
{
horizontal = 1;
place = (673, 27);
place = (673, 27);
type = Stem;
},
{
horizontal = 1;
place = (670, 30);
place = (670, 30);
type = Stem;
},
{
place = (486, 209);
place = (486, 209);
type = Stem;
},
{
place = (232, 98);
place = (232, 98);
type = Stem;
},
{
place = (426, 98);
place = (426, 98);
type = Stem;
}
);
layerId = m01;
shapes = (
{
closed = 1;
nodes = (
(369,312,l),
(356,327,l),
(376,357,l),
(223,588,ls),
(213,604,o),
(208,618,o),
(208,630,cs),
(208,651,o),
(222,665,o),
(247,668,cs),
(272,671,l),
(272,700,l),
(21,700,l),
(21,673,l),
(49,668,o),
(71,649,o),
(95,613,cs),
(314,285,l),
(314,105,ls),
(314,60,o),
(290,35,o),
(243,31,cs),
(220,29,l),
(220,0,l),
(511,0,l),
(511,29,l),
(488,31,ls),
(441,35,o),
(417,60,o),
(417,105,cs),
(417,313,l),
(610,599,ls),
(639,643,o),
(664,665,o),
(695,673,c),
(695,700,l),
(486,700,l),
(486,671,l),
(503,669,ls),
(540,665,o),
(558,650,o),
(558,623,cs),
(558,606,o),
(551,587,o),
(536,566,cs)
);
},
{
closed = 1;
nodes = (
(232,805,l),
(330,805,l),
(330,904,l),
(232,904,l)
);
},
{
closed = 1;
nodes = (
(426,805,l),
(524,805,l),
(524,904,l),
(426,904,l)
);
}
);
width = 716;
}
);
note = Ydieresis;
unicode = 376;
},
{
glyphname = Zcaron;
kernLeft = Z;
kernRight = Z;
layers = (
{
hints = (
{
horizontal = 1;
place = (0, 41);
place = (0, 41);
type = Stem;
},
{
horizontal = 1;
place = (659, 41);
place = (659, 41);
type = Stem;
},
{
horizontal = 1;
place = (778, 42);
place = (778, 42);
type = Stem;
},
{
place = (13, 580);
place = (13, 580);
type = Stem;
}
);
layerId = m01;
shapes = (
{
closed = 1;
nodes = (
(454,640,l),
(420,640,l),
(13,0,l),
(561,0,l),
(593,249,l),
(560,249,l),
(542,184,ls),
(515,85,o),
(464,41,o),
(383,41,cs),
(120,41,l),
(132,60,l),
(165,60,l),
(573,700,l),
(56,700,l),
(44,456,l),
(76,456,l),
(98,535,ls),
(122,622,o),
(166,659,o),
(243,659,cs),
(466,659,l)
);
},
{
closed = 1;
nodes = (
(152,928,l),
(256,778,l),
(366,778,l),
(470,928,l),
(466,928,l),
(300,820,l),
(264,820,l),
(314,855,l),
(156,928,l)
);
}
);
width = 610;
}
);
note = Zcaron;
unicode = 381;
},
{
glyphname = aacute;
kernLeft = a;
kernRight = a;
layers = (
{
hints = (
{
horizontal = 1;
place = (-10, 53);
place = (-10, 53);
type = Stem;
},
{
horizontal = 1;
place = (310, 78);
place = (310, 78);
type = Stem;
},
{
horizontal = 1;
place = (441, 39);
place = (441, 39);
type = Stem;
},
{
place = (34, 91);
place = (34, 91);
type = Stem;
},
{
place = (340, 66);
place = (340, 66);
type = Stem;
},
{
horizontal = 1;
place = (-6, 54);
place = (-6, 54);
type = Stem;
},
{
place = (53, 99);
place = (53, 99);
type = Stem;
},
{
place = (315, 91);
place = (315, 91);
type = Stem;
},
{
place = (53, 67);
place = (53, 67);
type = Stem;
}
);
layerId = m01;
shapes = (
{
closed = 1;
nodes = (
(340,95,l),
(317,59,l),
(318,18,o),
(345,-6,o),
(390,-6,cs),
(429,-6,o),
(473,26,o),
(490,67,c),
(488,68,l),
(472,53,o),
(458,48,o),
(438,48,cs),
(419,48,o),
(406,61,o),
(406,82,cs),
(406,336,ls),
(406,429,o),
(344,480,o),
(231,480,cs),
(133,480,o),
(53,422,o),
(53,362,cs),
(53,333,o),
(75,310,o),
(100,310,cs),
(132,310,o),
(152,330,o),
(152,370,cs),
(152,378,o),
(152,384,o),
(151,388,c),
(120,388,l),
(125,419,o),
(170,441,o),
(222,441,cs),
(278,441,o),
(315,401,o),
(315,338,cs),
(315,292,l),
(161,240,ls),
(66,208,o),
(34,174,o),
(34,109,cs),
(34,34,o),
(84,-10,o),
(167,-10,cs),
(228,-10,o),
(271,18,o),
(330,107,cs),
(340,122,l)
);
},
{
closed = 1;
nodes = (
(125,174,o),
(148,201,o),
(212,224,cs),
(315,260,l),
(315,126,l),
(287,77,o),
(242,43,o),
(201,43,cs),
(156,43,o),
(125,75,o),
(125,122,cs)
);
},
{
closed = 1;
nodes = (
(153,535,l),
(246,671,ls),
(271,707,o),
(287,720,o),
(314,720,cs),
(343,720,o),
(362,700,o),
(362,676,cs),
(362,657,o),
(350,639,o),
(330,628,cs),
(157,535,l)
);
}
);
width = 501;
}
);
note = aacute;
unicode = 225;
},
